<svg width="480" height="480" viewBox="0 0 480 480" fill="none" xmlns="http://www.w3.org/2000/svg">
<path d="M397.16 91.5751H29.2171C23.7324 91.5751 19.2861 96.0237 19.2861 101.511V365.911C19.2861 371.398 23.7324 375.847 29.2171 375.847H397.16C402.644 375.847 407.091 371.398 407.091 365.911V101.511C407.091 96.0237 402.644 91.5751 397.16 91.5751Z" fill="#F5F5F5"/>
<path d="M33.6066 91.5751H437.321C445.226 91.5751 451.641 97.9939 451.641 105.903V135.095H19.2861V105.903C19.2861 97.9939 25.7015 91.5751 33.6066 91.5751Z" fill="#99C779"/>
<path d="M55.2258 104.08C57.1126 104.08 58.6421 102.55 58.6421 100.662C58.6421 98.7747 57.1126 97.2444 55.2258 97.2444C53.3391 97.2444 51.8096 98.7747 51.8096 100.662C51.8096 102.55 53.3391 104.08 55.2258 104.08Z" fill="#FAFAFA"/>
<path d="M79.1001 100.662C79.1001 102.55 77.5707 104.08 75.6838 104.08C73.797 104.08 72.2676 102.55 72.2676 100.662C72.2676 98.7745 73.797 97.2444 75.6838 97.2444C77.5707 97.2444 79.1001 98.7745 79.1001 100.662Z" fill="#FAFAFA"/>
<path d="M96.1614 104.08C98.0481 104.08 99.5776 102.55 99.5776 100.662C99.5776 98.7747 98.0481 97.2444 96.1614 97.2444C94.2746 97.2444 92.7451 98.7747 92.7451 100.662C92.7451 102.55 94.2746 104.08 96.1614 104.08Z" fill="#FAFAFA"/>
<path d="M450.111 336.857C450.111 336.857 450.091 336.997 450.071 337.076H443.735L345.617 336.758L280.868 336.559H278.901L274.353 336.539L215.124 336.361L78.653 335.943H73.6478H70.1719H68.1659H67.2721C67.2721 335.943 67.1331 335.725 66.8947 335.307C66.8749 335.268 66.855 335.228 66.8153 335.188C66.7358 335.029 66.6365 334.85 66.5173 334.652C65.8818 333.479 64.8688 331.571 63.6969 329.028C63.399 328.372 63.0812 327.676 62.7436 326.921C62.4854 326.325 62.2073 325.709 61.9491 325.073C61.8498 324.855 61.7703 324.636 61.671 324.417C61.5717 324.199 61.4923 323.96 61.3929 323.742C60.8964 322.53 60.3999 321.238 59.8834 319.867C59.3869 318.515 58.8903 317.104 58.4137 315.634C58.4137 315.594 58.3938 315.574 58.3739 315.535C58.0959 314.7 57.8377 313.865 57.5795 312.991C57.2021 311.719 56.8247 310.408 56.4672 309.056C56.1295 307.765 55.7919 306.453 55.494 305.102C54.9378 302.717 54.4611 300.213 54.0639 297.65C53.2496 292.483 52.7927 286.978 52.8722 281.275C52.9516 275.989 53.5078 270.544 54.6995 265.039C57.6788 251.248 64.6106 237.059 78.077 224.063C127.613 176.29 170.217 202.76 191.846 201.428C195.719 201.19 199.116 199.66 202.472 197.216C208.61 192.744 214.529 185.253 222.811 177.204C235.205 165.142 252.882 151.867 284.363 145.647C323.312 137.957 376.84 140.123 399.98 163.214C413.982 177.184 416.882 198.825 398.708 230.581C397.596 232.509 396.424 234.476 395.153 236.483C394.1 238.172 393.167 239.782 392.373 241.312C390.366 245.167 389.195 248.565 388.698 251.606C387.506 258.899 390.247 264.046 395.193 268.298C396.603 269.511 398.212 270.663 399.94 271.776C405.7 275.413 412.989 278.552 420.239 282.209C424.251 284.236 428.243 286.422 431.977 288.965C435.453 291.31 438.691 293.973 441.491 297.053C443.318 299.061 444.967 301.266 446.377 303.691C446.457 303.83 446.536 303.969 446.615 304.108C448.423 307.327 449.793 310.964 450.628 315.078C450.667 315.276 450.707 315.495 450.747 315.713C451.839 321.675 451.76 328.65 450.131 336.917L450.111 336.857Z" fill="#D9EDCB"/>
<path d="M398.689 230.541L179.87 267.762L164.179 248.923L399.96 163.155C413.963 177.125 416.862 198.766 398.689 230.521V230.541Z" fill="#CFDBC6"/>
<path d="M450.071 337.056L345.617 336.738L280.867 336.539H278.901L274.353 336.52C232.722 313.408 220.03 289.164 220.03 289.164C221.52 288.787 328.059 266.828 399.94 271.716C405.7 275.353 412.989 278.493 420.239 282.149C424.251 284.176 428.243 286.362 431.977 288.906C445.305 297.928 455.236 311.302 450.052 337.036L450.071 337.056Z" fill="#D1E7C2"/>
<path d="M450.072 337.056L67.2527 335.884C67.2527 335.884 46.7154 301.902 54.68 264.98C59.3873 268.179 64.7302 270.504 68.1266 267.861C72.4168 264.523 84.6914 254.785 93.9868 247.393C100.382 242.305 105.368 238.351 105.368 238.351C105.368 238.351 110.591 233.323 114.008 234.734C115.597 235.39 117.126 236.94 118.477 238.371C120.046 240.02 121.357 241.491 122.231 241.153C123.005 240.855 128.745 234.993 135.399 228.494C142.49 221.559 150.613 213.908 154.963 211.424C154.963 211.424 159.015 207.271 163.404 212.02C165.649 214.445 169.105 220.665 172.978 228.137C181.896 245.386 192.979 269.332 196.335 269.014C201.162 268.557 208.65 257.846 213.218 256.772C217.767 255.699 238.502 293.198 247.341 294.808C256.18 296.417 273.062 282.745 286.727 286.76C300.392 290.774 322.499 313.289 342.976 309.275C359.382 306.055 396.464 287.912 420.219 282.169C438.512 291.41 456.686 304.088 450.052 337.056H450.072Z" fill="#8CB96E"/>
<path d="M450.311 335.765L395.333 336.281L345.598 336.758L67.233 335.904C67.233 335.904 57.4808 319.748 54.0248 297.61C53.2105 292.443 52.7537 286.939 52.8331 281.235C88.108 283.918 155.202 303.333 173.832 306.632C194.985 310.388 267.322 314.144 289.29 320.026C311.257 325.928 334.555 324.04 346.353 322.172C358.131 320.304 395.154 320.562 407.29 313.468C414.897 308.997 432.852 305.638 433.746 307.506C435.633 311.441 437.003 315.475 437.976 318.853C438.751 318.496 439.545 318.158 440.32 317.86C439.843 315.475 439.188 310.885 440.658 309.156C442.664 306.771 443.915 310.388 443.597 313.607C443.458 314.938 442.942 316.151 442.366 317.105C443.597 316.131 445.603 314.64 446.815 314.462C447.947 314.303 449.178 314.561 449.913 314.779C449.715 313.647 449.317 312.236 448.563 310.646C447.47 308.341 443.041 306.89 439.863 305.599C437.023 304.446 435.156 303.432 437.579 302.061C440.141 300.611 443.458 301.982 446.14 303.731C446.318 303.85 446.477 303.949 446.636 304.068C448.444 307.288 449.814 310.924 450.648 315.038C451.82 320.88 451.84 327.716 450.35 335.784L450.311 335.765Z" fill="#D9EDCB"/>
<path d="M450.31 335.764L395.332 336.281L345.598 336.758L280.848 336.559H278.881L274.333 336.539L215.105 336.361L67.2521 335.903C67.2521 335.903 57.4999 319.747 54.0439 297.61C82.1486 300.034 137.802 305.32 204.359 313.706C299.994 325.769 349.848 333.718 401.807 317.621C411.4 314.66 419.702 311.977 426.972 309.652C429.336 308.897 431.6 308.182 433.745 307.486C435.87 306.811 437.916 306.175 439.842 305.578C442.047 304.903 444.133 304.287 446.119 303.711C446.298 303.83 446.456 303.929 446.615 304.048C448.423 307.268 449.793 310.904 450.628 315.018C451.799 320.86 451.819 327.696 450.33 335.764H450.31Z" fill="#7B8675"/>
<path d="M443.735 335.764L345.617 336.758L280.868 336.559H278.901L274.353 336.539L215.124 336.361L67.1926 335.764C67.1926 335.764 66.994 335.446 66.5372 334.592C65.9016 333.419 64.8887 331.512 63.7168 328.968C79.4872 323.464 107.91 312.275 134.862 320.92C175.043 333.797 336.183 335.804 364.705 330.578C393.227 325.351 429.455 317.641 439.803 327.239C442.603 329.842 443.676 332.048 443.775 335.745L443.735 335.764Z" fill="#D9EDCB"/>
<path d="M66.7954 335.129C66.7159 334.97 66.6166 334.791 66.4974 334.592C65.8618 333.42 64.8489 331.512 63.677 328.968C63.3791 328.312 63.0613 327.617 62.7237 326.862C62.4655 326.266 62.1874 325.65 61.9292 325.014C61.8299 324.795 61.7504 324.576 61.6511 324.358C61.5518 324.139 61.4724 323.901 61.373 323.682C68.1857 307.725 83.4993 275.929 97.7999 279.904C111.902 283.819 82.5062 318.078 66.7954 335.109V335.129Z" fill="#6B7665"/>
<path d="M57.5601 312.931C57.1827 311.66 56.8054 310.348 56.4478 308.997C56.1102 307.705 55.7725 306.393 55.4746 305.042C58.295 290.734 62.8831 273.286 68.4246 273.922C74.9989 274.677 64.4125 298.723 57.5601 312.931Z" fill="#6B7665"/>
<path d="M111.028 321.695C106.261 324.239 92.5165 330.598 80.8178 335.923H74.6408H70.3506C80.3213 326.623 97.7799 313.051 113.113 313.19C114.583 313.19 115.854 314.263 116.093 315.694C116.331 317.224 115.477 319.33 111.048 321.695H111.028Z" fill="#6B7665"/>
<path d="M450.31 335.764C450.25 336.122 450.171 336.5 450.091 336.857H394.815C394.815 336.857 394.994 336.639 395.332 336.281C397.417 334.036 405.541 326.007 414.697 327.398C425.343 329.008 427.747 325.789 427.747 325.789C429.236 324.298 430.865 322.987 432.533 321.854C425.165 319.112 411.738 313.667 417.915 312.574C423.695 311.56 430.607 317.184 434.321 320.721C434.798 320.443 435.274 320.185 435.751 319.926C432.811 315.316 429.812 312.136 426.932 309.632C425.343 308.261 423.794 307.089 422.324 305.996C419.484 303.909 416.902 302.121 414.816 299.776C408.838 293.019 414.24 290.953 414.24 290.953C421.43 291.251 426.773 296.02 430.666 302.002C431.798 303.75 432.811 305.598 433.705 307.466C435.592 311.401 436.963 315.435 437.936 318.813C438.71 318.456 439.505 318.118 440.279 317.82C439.803 315.435 439.147 310.845 440.617 309.116C442.623 306.731 443.874 310.348 443.557 313.567C443.418 314.899 442.901 316.111 442.325 317.065C443.557 316.091 445.563 314.601 446.774 314.422C447.906 314.263 449.138 314.521 449.873 314.74C449.674 313.607 449.277 312.196 448.522 310.606C447.43 308.301 443.001 306.85 439.823 305.559C436.982 304.406 435.115 303.393 437.538 302.021C440.101 300.571 443.418 301.942 446.099 303.691C446.278 303.81 446.437 303.909 446.596 304.029C448.403 307.248 449.773 310.884 450.608 314.998C451.78 320.84 451.799 327.676 450.31 335.745V335.764Z" fill="#6B7665"/>
<path d="M323.193 267.066C323.193 267.066 317.414 264.423 313.024 266.728C308.635 269.033 311.316 288.071 317.592 289.919C317.592 289.919 329.331 293.675 323.193 267.066Z" fill="black"/>
<path d="M339.937 295.563C339.937 295.563 339.897 295.503 339.877 295.484C339.738 295.265 339.5 294.748 339.341 294.351C340.513 288.648 339.719 285.349 339.719 285.349C339.858 283.68 340.851 272.094 338.567 266.709C337.474 264.105 335.627 264.105 335.627 264.105C335.627 264.105 331.992 269.133 331.714 271.359C331.456 273.406 337.454 291.688 337.792 294.808L337.891 297.987L338.825 297.769C338.825 297.769 338.904 297.749 338.944 297.729C339.063 297.67 339.162 297.59 339.222 297.471L339.977 296.278C340.116 296.04 340.116 295.762 339.977 295.543L339.937 295.563ZM338.169 295.046H338.209C338.209 295.046 338.209 295.046 338.189 295.046H338.169Z" fill="#FFBE9D"/>
<path d="M342.877 330.101C342.877 330.101 343.79 331.194 345.26 331.174C346.174 331.174 347.008 331.432 347.624 331.949C348.16 332.406 347.942 333.281 347.246 333.439L340.334 335.029C339.679 335.188 339.024 334.731 338.924 334.056C338.865 333.539 338.785 332.982 338.706 332.545C338.527 331.512 339.361 330.459 339.361 330.459L342.877 330.121V330.101Z" fill="black"/>
<path d="M344.108 330.2C344.108 330.2 342.122 331.75 338.19 331.651C338.19 331.651 334.078 314.004 333.284 312.931C333.105 312.673 332.708 312.017 332.231 311.163C332.191 311.083 332.152 311.004 332.112 310.944C330.523 308.102 328.06 303.353 327.881 302.618C327.643 301.644 330.483 289.144 332.807 289.542C334.555 289.84 336.045 290.635 336.7 291.012C336.918 291.131 337.038 291.231 337.038 291.231C337.038 291.231 337.117 291.588 337.276 292.205C337.415 292.761 337.614 293.536 337.832 294.45C337.852 294.569 337.892 294.689 337.912 294.808C339.203 300.054 341.507 309.414 341.844 311.023C342.321 313.269 344.089 330.22 344.089 330.22L344.108 330.2Z" fill="black"/>
<path d="M337.852 294.45L332.112 310.944C330.523 308.102 328.06 303.353 327.881 302.618C327.643 301.644 330.483 289.144 332.807 289.542C334.555 289.84 336.045 290.635 336.7 291.012C336.918 291.131 337.038 291.231 337.038 291.231C337.038 291.231 337.117 291.588 337.276 292.205C337.415 292.761 337.614 293.536 337.832 294.45H337.852Z" fill="black"/>
<path d="M323.651 331.691C323.651 331.691 324.266 332.903 325.637 333.201C326.511 333.38 327.246 333.837 327.702 334.473C328.1 335.009 327.702 335.764 327.047 335.764H320.075C319.48 335.764 319.023 335.248 319.082 334.652C319.142 334.135 319.182 333.539 319.221 333.062C319.281 332.048 320.274 331.234 320.274 331.234L323.651 331.671V331.691Z" fill="black"/>
<path d="M320.254 251.168C319.837 249.38 320.354 248.048 321.168 246.757C321.962 245.525 323.075 245.485 324.147 244.432C325.16 243.458 327.027 242.802 328.517 242.802C333.284 242.802 337.415 245.723 336.481 250.691C336.184 252.261 336.442 253.513 335.151 255.342C333.562 257.647 331.615 259.475 328.517 259.475C326.868 259.475 325.418 259.097 324.147 257.885C323.452 257.229 322.459 257.15 321.843 256.435C320.612 254.984 320.711 253.096 320.254 251.129V251.168Z" fill="black"/>
<path d="M332.886 262.814L326.948 265.854L325.756 261.721C325.756 261.721 326.511 260.29 326.848 257.945C326.987 256.951 327.067 255.819 326.967 254.547L331.814 257.031C331.814 257.031 331.695 257.488 331.615 258.144C331.536 258.859 331.496 259.813 331.695 260.747C331.873 261.542 332.231 262.277 332.866 262.814H332.886Z" fill="#FFBE9D"/>
<path d="M319.122 292.741C319.122 292.741 317.99 307.745 318.248 331.631C318.248 331.631 319.619 332.346 321.267 332.505C324.346 332.803 325.081 331.591 325.081 331.591C325.081 331.591 328.219 319.926 329.013 314.68C329.728 309.831 334.495 292.344 334.495 292.344L319.142 292.721L319.122 292.741Z" fill="black"/>
<path d="M336.759 263.211C336.163 262.953 334.574 262.317 332.131 261.919C332.151 262.774 331.933 263.569 330.423 263.768C328.417 264.026 326.649 262.675 325.736 261.741C325.736 261.741 324.326 261.9 322.697 262.257C321.883 262.436 320.989 262.675 320.214 262.973C319.261 263.33 318.427 263.768 317.99 264.304C316.46 266.192 313.918 271.875 313.918 271.875C313.918 271.875 318.129 273.445 319.181 274.34V274.538L319.857 280.003L317.89 290.893C317.89 290.893 317.87 291.092 317.87 291.171C317.87 291.907 318.367 292.562 319.102 292.721C319.102 292.721 319.261 292.741 319.579 292.801C321.664 293.099 330.086 294.093 336.719 292.304C338.209 291.907 339.182 290.476 339.063 288.946L337.991 275.413C338.567 275.313 339.222 275.214 339.778 275.154C340.235 275.115 340.593 275.095 340.732 275.134C340.732 275.134 339.977 264.423 336.759 263.231V263.211Z" fill="#3F443B"/>
<path opacity="0.4" d="M322.26 284.574C322.121 288.369 321.763 291.588 319.578 292.801C319.26 292.761 319.102 292.721 319.102 292.721C318.367 292.542 317.87 291.887 317.87 291.171C317.87 291.072 317.87 290.972 317.89 290.893L319.856 280.003L319.201 274.538L319.241 274.399C319.241 274.399 322.419 279.725 322.24 284.593L322.26 284.574Z" fill="#3F443B"/>
<path opacity="0.4" d="M339.778 275.134C339.222 275.194 337.991 275.393 337.991 275.393L337.375 269.729C337.375 269.729 339.46 273.724 339.778 275.134Z" fill="#3F443B"/>
<path d="M318.268 288.946L318.784 286.124C327.404 273.644 328.06 271.398 324.186 265.794C323.074 264.185 321.048 263.191 320.234 262.953C321.028 262.655 321.902 262.436 322.717 262.237C323.531 262.615 324.286 262.992 324.882 263.509C336.719 273.763 318.287 288.946 318.287 288.946H318.268Z" fill="black"/>
<path d="M331.714 260.747C328.953 260.667 326.848 257.965 326.848 257.965L331.615 258.163C331.535 258.879 331.495 259.833 331.694 260.767L331.714 260.747Z" fill="#FFBE9D"/>
<path d="M331.972 259.078C331.972 259.078 325.875 259.813 325.755 255.521C325.616 251.228 328.159 248.446 329.847 248.486C333.224 248.546 333.78 249.917 334.177 251.328C334.574 252.758 334.773 258.76 331.972 259.058V259.078Z" fill="#FFBE9D"/>
<path d="M330.344 256.614C330.344 256.614 330.483 257.15 331.814 257.051C331.814 257.051 332.926 256.971 332.886 256.375C332.886 256.375 331.794 255.978 330.344 256.614Z" fill="white"/>
<path d="M331.356 248.545C331.356 248.545 326.152 248.545 327.344 252.122C328.099 254.368 325.596 254.726 325.596 254.726L324.385 251.109L325.14 248.287L331.356 248.545Z" fill="black"/>
<path d="M328.337 272.928C326.828 273.028 325.894 273.783 325.338 274.578C325.338 274.578 325.318 274.538 325.298 274.518C325.12 274.28 324.842 274.896 324.564 275.532C324.405 275.909 324.444 276.267 324.524 276.505C324.524 276.565 324.524 276.605 324.524 276.605C324.524 276.605 318.863 277.122 318.029 277.499C318.029 277.499 318.486 276.247 319.3 274.379C318.565 273.644 316.142 272.571 314.533 272.074C313.302 275.214 312.845 278.294 313.52 281.295C313.6 281.613 313.878 281.831 314.196 281.851C316.003 281.931 321.962 281.911 326.311 278.294H326.391C327.444 278.214 328.417 277.181 328.794 275.81C329.172 274.439 329.191 274.856 329.489 273.902C329.787 272.948 328.377 272.928 328.377 272.928H328.337Z" fill="#FFBE9D"/>
<path d="M172.977 228.156C170.852 228.832 167.912 229.21 167.535 226.348C166.999 222.195 155.082 230.243 148.924 231.972C142.767 233.721 146.243 226.606 146.104 224.599C146.025 223.367 140.026 226.149 135.398 228.494C142.489 221.559 150.613 213.908 154.962 211.424C154.962 211.424 159.014 207.271 163.404 212.02C165.648 214.445 169.104 220.665 172.977 228.137V228.156Z" fill="#CFDBC6"/>
<path d="M118.457 238.371C118.318 238.252 117.166 237.318 115.08 238.371C112.856 239.523 109.896 240.139 108.565 239.742C107.235 239.345 93.9668 247.393 93.9668 247.393C100.362 242.306 105.348 238.351 105.348 238.351C105.348 238.351 110.571 233.323 113.988 234.734C115.577 235.39 117.106 236.94 118.457 238.371Z" fill="#CFDBC6"/>
<path d="M461.77 335.765H49.754C49.4908 335.765 49.2773 335.978 49.2773 336.241V336.381C49.2773 336.644 49.4908 336.858 49.754 336.858H461.77C462.034 336.858 462.247 336.644 462.247 336.381V336.241C462.247 335.978 462.034 335.765 461.77 335.765Z" fill="black"/>
<path d="M183.802 332.506L181.161 333.877C181.161 333.877 179.592 331.83 178.182 329.346C177.188 327.617 176.295 325.65 176.076 324.06C175.54 320.185 171.428 313.806 171.865 312.733C172.283 311.64 180.426 309.772 180.426 309.772C180.426 309.772 182.015 320.662 183.068 327.716C183.385 329.763 183.644 331.492 183.802 332.525V332.506Z" fill="#FFBE9D"/>
<path d="M181.796 317.303C180.287 318.038 178.896 318.456 177.685 318.694C175.897 319.052 174.547 318.992 173.951 318.933C173.732 318.913 173.613 318.893 173.613 318.893C173.613 318.893 172.143 317.84 170.455 315.376C168.906 313.13 167.754 309.891 167.754 309.851L180.187 308.639L181.816 317.303H181.796Z" fill="black"/>
<path d="M177.685 318.694C175.898 319.052 174.547 318.992 173.951 318.933L175.342 313.508C175.342 313.508 177.149 316.329 177.685 318.694Z" fill="black"/>
<path d="M183.803 332.505L181.161 333.877C181.161 333.877 179.592 331.83 178.182 329.346C179.274 329.266 181.181 328.928 183.068 327.696C183.385 329.743 183.644 331.472 183.803 332.505Z" fill="#847263"/>
<path d="M177.805 312.256C177.805 312.256 174.468 316.965 172.462 323.563C171.985 325.113 170.376 327.06 168.728 328.789C167.139 330.458 165.53 331.929 164.954 332.644L162.272 331.353C162.272 331.353 163.226 328.65 164.616 326.186C165.133 325.272 165.709 324.397 166.324 323.702C167.178 322.748 166.9 310.646 167.754 309.851C168.608 309.056 177.824 312.256 177.824 312.256H177.805Z" fill="#FFBE9D"/>
<path d="M179.393 309.454L174.467 319.449C174.467 319.449 170.793 319.568 168.211 318.118C166.721 317.283 166.065 316.309 166.065 316.309L167.595 309.454H179.373H179.393Z" fill="black"/>
<path d="M170.594 276.068C170.594 276.068 168.926 272.551 164.874 274.638C160.842 276.724 164.775 284.713 162.649 286.7C160.524 288.667 163.424 289.959 162.987 291.37C162.55 292.781 163.782 294.391 166.622 294.212C169.442 294.013 172.422 294.172 173.713 291.708C174.984 289.224 174.706 283.779 174.209 283.024C173.713 282.249 170.614 276.088 170.614 276.088L170.594 276.068Z" fill="#847263"/>
<path d="M177.129 294.848L170.257 290.694C170.257 290.694 170.436 290.476 170.952 288.985C171.17 288.349 171.29 287.793 171.349 287.356C171.349 287.316 171.349 287.276 171.349 287.236C171.429 286.601 171.349 286.243 171.349 286.243L172.859 286.779L175.639 287.793C175.6 288.508 175.699 289.005 175.858 289.343C176.215 290.178 176.891 290.178 176.911 290.178L177.089 294.848H177.129Z" fill="#FFBE9D"/>
<path d="M175.897 289.323C173.216 289.561 171.687 287.793 171.349 287.356C171.309 287.296 171.27 287.256 171.27 287.256C171.27 287.256 171.309 287.256 171.369 287.236C171.587 287.177 172.183 286.998 172.898 286.779L175.679 287.793C175.639 288.508 175.738 289.005 175.897 289.343V289.323Z" fill="#847263"/>
<path d="M176.016 288.369C176.016 288.369 170.038 289.025 169.919 284.991C169.8 280.957 168.906 279.089 173.057 278.731C177.188 278.373 178.161 279.864 178.42 281.235C179.174 285.508 177.724 288.19 176.036 288.369H176.016Z" fill="#FFBE9D"/>
<path d="M164.874 274.638C164.795 274.459 164.735 274.32 164.735 274.32C164.795 274.399 164.835 274.518 164.874 274.638Z" fill="#5D4F44"/>
<path d="M191.747 273.445C191.529 273.306 191.131 273.326 190.615 273.445C190.238 273.564 189.801 273.723 189.344 273.982C189.304 273.982 189.284 273.982 189.244 274.021C188.172 274.598 188.212 277.32 188.212 277.36C187.536 277.916 184.895 283.242 184.299 284.693C183.683 286.143 177.963 290.555 177.963 290.555L179.393 295.404C181.101 294.53 186.325 288.548 187.397 286.779C188.49 285.011 190.039 279.148 189.84 278.175C189.86 278.135 189.979 277.936 190.178 277.658C190.496 277.161 191.012 276.406 191.33 276.029C191.568 275.75 191.787 275.194 191.886 274.677C192.005 274.101 191.966 273.564 191.747 273.445Z" fill="#FFBE9D"/>
<path d="M173.375 280.699C171.27 280.162 172.064 283.918 171.528 283.66C170.932 283.381 169.899 283.381 170.058 284.097C170.217 284.812 170.455 285.071 170.575 285.528C170.694 285.985 170.575 286.879 170.078 286.7C169.581 286.521 165.013 281.295 168.251 277.221C171.488 273.147 181.101 275.651 178.082 279.924C177.546 280.679 174.885 281.096 173.375 280.719V280.699Z" fill="#847263"/>
<path d="M181.041 310.924C181.041 310.924 179.254 311.878 176.413 311.838C174.606 311.818 170.793 311.023 168.33 310.149C166.919 309.652 165.966 309.096 166.085 308.659C166.244 308.003 167.456 302.995 168.568 298.365C169.581 294.132 170.514 290.197 170.514 290.197C170.514 290.197 173.315 292.185 174.944 291.489C176.572 290.794 176.374 289.999 176.374 289.999C176.374 289.999 177.446 289.562 177.943 289.72C178.439 289.879 179.869 289.065 179.869 289.065C179.869 289.065 181.439 290.277 181.498 292.88C181.498 293.258 181.498 293.675 181.419 294.132L180.287 295.444C180.287 295.444 182.69 303.015 181.061 310.964L181.041 310.924Z" fill="black"/>
<path d="M188.172 335.744H180.306C180.306 335.744 180.147 334.473 180.346 333.36C180.366 333.221 180.445 333.101 180.545 333.002C181.001 333.161 181.677 333.26 182.432 333.002C183.047 332.784 183.504 332.446 183.822 332.128C183.901 332.207 185.53 333.757 186.285 333.757C187.039 333.757 188.231 334.135 188.191 335.725L188.172 335.744Z" fill="#847263"/>
<path d="M168.728 328.769C167.139 330.439 165.53 331.909 164.954 332.625L162.272 331.333C162.272 331.333 163.226 328.63 164.616 326.166C165.093 326.921 166.364 328.451 168.747 328.769H168.728Z" fill="#847263"/>
<path d="M165.53 331.949C165.53 331.949 165.43 333.658 166.006 333.877C166.582 334.095 167.635 334.672 167.635 335.745H163.702C163.702 335.745 160.981 334.413 160.624 333.837C160.266 333.261 162.431 330.836 162.431 330.836C162.431 330.836 163.762 332.307 165.55 331.929L165.53 331.949Z" fill="#847263"/>
<path d="M168.35 310.129C166.94 309.632 165.987 309.076 166.106 308.639C166.265 307.983 167.476 302.975 168.588 298.345C168.906 297.749 169.125 297.391 169.125 297.391C169.125 297.391 171.23 307.009 168.35 310.149V310.129Z" fill="#D9EDCB"/>
<path d="M174.468 304.287C173.852 303.889 172.342 304.128 172.104 304.168C171.25 303.671 168.807 301.962 167.635 300.968C167.377 300.75 167.397 300.293 167.576 300.014C168.052 299.279 168.847 298.027 169.125 297.391C169.522 296.457 172.104 291.151 170.614 290.714C170.614 290.714 165.291 291.847 163.206 300.114C163.007 300.929 163.206 301.783 163.762 302.399C164.735 303.472 166.861 305.022 171.786 305.598C171.786 305.598 173.336 306.572 174.845 305.698C175.322 305.42 175.123 304.724 174.448 304.287H174.468Z" fill="#FFBE9D"/>
<path d="M170.535 290.158C170.535 290.158 167.417 290.376 164.854 293.775C164.854 293.775 165.709 296.894 169.76 297.729C169.76 297.729 172.263 292.105 170.515 290.138L170.535 290.158Z" fill="black"/>
<path d="M316.5 159.518L202.453 197.156C208.59 192.685 214.509 185.193 222.792 177.145L316.5 159.498V159.518Z" fill="#CFDBC6"/>
<path d="M312.964 172.077C310.203 172.077 307.959 174.323 307.959 177.085C307.959 179.847 310.203 182.093 312.964 182.093C315.725 182.093 317.969 179.847 317.969 177.085C317.969 174.323 315.725 172.077 312.964 172.077Z" fill="#CFDBC6"/>
<path d="M304.781 250.334C303.967 248.665 300.392 246.479 300.134 246.3C297.75 242.524 292.308 233.641 291.673 232.648C290.898 231.415 283.887 211.146 283.887 211.146L270.341 208.582C270.341 208.582 282.635 233.999 284.681 237.079C287.601 241.53 295.824 247.413 297.929 248.883C298.128 249.499 298.843 251.745 299.18 252.261C299.558 252.838 301.643 254.467 301.842 254.408C302.021 254.348 302.12 254.149 301.921 253.772C301.743 253.394 300.908 252.261 301.087 252.261C301.286 252.261 303.927 255.342 304.642 254.984C305.357 254.626 305.596 251.983 304.762 250.334H304.781Z" fill="#FFBE9D"/>
<path d="M269.328 206.754C269.328 206.754 263.349 203.614 254.789 202.978C250.201 202.641 245.95 205.482 244.52 209.854C244.441 210.113 244.361 210.371 244.282 210.649C242.276 217.883 243.368 239.782 250.121 245.485C256.874 251.188 269.308 248.784 269.308 248.784V206.754H269.328Z" fill="black"/>
<path d="M287.979 257.786C287.979 257.786 287.244 266.848 286.409 277.718C285.257 292.503 280.848 329.326 280.848 329.326C280.848 329.326 281.782 330.796 277.253 329.842C277.253 329.842 271.692 317.303 270.54 302.876C270.54 302.637 270.5 302.399 270.48 302.161C269.408 287.475 267.739 256.534 267.739 256.534L287.998 257.786H287.979Z" fill="black"/>
<path d="M288.217 254.646C288.217 254.646 287.243 266.828 286.389 277.698L270.5 302.856C270.5 302.617 270.46 302.379 270.44 302.141C269.368 287.455 267.699 256.514 267.699 256.514L288.217 254.646Z" fill="black"/>
<path d="M287.283 255.262L250.241 325.809C250.241 325.809 246.785 327.359 246.348 326.007C246.348 326.007 249.625 293.695 255.385 286.442C258.642 282.348 262.456 270.047 262.634 265.755C262.813 261.462 263.806 252.937 263.806 252.937L287.283 255.262Z" fill="black"/>
<path d="M256.536 335.745C256.536 335.745 251.154 335.824 249.605 334.294C249.426 334.115 248.83 332.307 248.83 332.287C248.79 332.148 248.512 331.472 247.4 331.114C246.665 330.876 246.069 330.876 245.354 330.598C244.838 330.399 243.845 329.902 243.348 329.624C241.68 328.65 242.057 328.133 242.057 328.133C242.057 328.133 242.415 327.796 242.911 327.319C243.05 327.18 243.189 327.041 243.328 326.882C244.043 326.107 244.858 325.153 245.056 324.457C245.235 323.861 245.553 323.483 245.871 323.245C246.268 322.927 246.625 322.847 246.625 322.847C246.625 322.847 247.221 325.212 248.373 324.914C250.618 324.338 251.035 324.417 251.114 324.437C251.114 324.437 252.941 328.014 253.458 329.286C254.372 331.551 255.543 332.406 256.258 333.141C256.437 333.34 256.576 333.539 256.676 333.757C257.053 334.612 256.775 335.566 256.477 335.725L256.536 335.745Z" fill="#847263"/>
<path d="M256.536 335.744C256.536 335.744 251.154 335.824 249.605 334.294C249.426 334.115 248.83 332.307 248.83 332.287C248.79 332.148 248.512 331.472 247.4 331.114C246.665 330.876 246.069 330.876 245.354 330.598C244.838 330.399 243.845 329.902 243.348 329.624C241.68 328.65 242.057 328.133 242.057 328.133C242.057 328.133 242.415 327.796 242.911 327.319C243.05 327.179 243.189 327.04 243.328 326.881C243.507 327.557 243.984 328.789 245.275 329.286C247.102 330.001 249.088 331.214 249.664 332.207C250.24 333.201 250.618 334.075 251.73 334.453C252.842 334.83 255.782 334.93 255.98 334.83C256.139 334.751 256.298 334.016 256.715 333.757C257.093 334.612 256.815 335.566 256.517 335.725L256.536 335.744Z" fill="#3F443B"/>
<path d="M276.578 335.765H278.802C279.537 335.645 280.093 335.427 280.868 335.327C282.02 335.168 282.556 335.645 282.675 335.765L282.695 335.784H292.13C292.368 335.447 292.13 334.652 291.911 334.075C291.752 333.678 291.435 333.38 291.018 333.261C290.024 332.963 288.038 332.704 286.231 331.075C285.218 330.161 281.325 327.696 281.325 327.696H281.305C281.305 327.696 280.808 327.816 279.041 329.306C278.127 330.081 276.558 328.213 276.558 328.213C276.558 328.213 276.26 328.452 276.042 328.909C275.863 329.266 275.744 329.763 275.843 330.359C275.982 331.214 275.525 332.784 275.168 333.857C274.949 334.513 274.77 334.97 274.77 334.97C274.77 334.97 274.671 335.506 276.578 335.745V335.765Z" fill="#847263"/>
<path d="M276.578 335.804H278.783C279.517 335.685 280.074 335.447 280.848 335.347C282 335.188 282.536 335.665 282.656 335.784L282.675 335.804H292.11C292.348 335.466 292.11 334.672 291.891 334.095C291.613 333.837 291.514 335.208 291.375 335.427C291.216 335.645 283.669 335.506 283.232 335.188C282.795 334.87 281.484 334.314 279.676 334.751C278.087 335.129 275.744 334.155 275.168 333.896C274.949 334.552 274.77 335.009 274.77 335.009C274.77 335.009 274.671 335.566 276.578 335.824V335.804Z" fill="#3F443B"/>
<path d="M267.897 205.482C267.897 205.482 276.736 209.834 281.86 208.225C281.86 208.225 280.609 206.615 278.404 205.403C278.524 204.667 278.623 203.972 278.702 203.376C278.98 201.19 279 199.938 279 199.938L273.578 195.566L272.366 194.592C272.406 195.626 272.347 196.599 272.208 197.474C272.208 197.553 272.188 197.613 272.168 197.672C271.294 202.939 267.897 205.482 267.897 205.482Z" fill="#FFBE9D"/>
<path d="M262.853 251.824C262.833 252.381 263.985 253.017 264.482 253.235C266.726 254.249 268.871 255.063 271.076 255.64C272.605 256.057 274.174 256.335 275.823 256.494C280.57 256.971 286.151 255.918 288.078 255.938C288.276 255.938 288.455 255.858 288.614 255.739C288.733 255.64 288.852 249.837 288.733 242.544C288.733 242.266 288.733 241.948 288.713 241.67V241.57C288.693 238.728 288.574 235.728 288.455 232.747C288.177 226.189 287.66 219.85 286.787 216.352C285.754 212.219 283.41 209.516 281.265 207.509L279.736 205.979C279.736 205.979 279.497 205.84 279.378 205.86C277.67 206.178 275.803 206.158 273.995 205.264C271.969 204.27 269.765 203.197 269.407 203.435C265.216 206.575 263.111 215.856 263.151 226.388C263.151 226.726 263.151 227.063 263.151 227.381C263.151 228.474 263.21 229.567 263.27 230.68C263.727 238.47 263.27 245.207 262.992 249.122C262.912 250.254 262.853 251.149 262.833 251.765L262.853 251.824Z" fill="black"/>
<path d="M282.836 236.961L282.983 236.466C283.096 236.085 283.497 235.852 283.897 235.97L284.658 236.197C285.039 236.31 285.272 236.711 285.154 237.111L285.007 237.606C284.894 237.987 284.493 238.22 284.093 238.102L283.331 237.875C282.951 237.762 282.717 237.361 282.836 236.961Z" fill="black"/>
<path d="M280.755 237.415L278.018 246.635C277.834 247.256 278.188 247.909 278.808 248.093L282.311 249.134C282.932 249.318 283.584 248.965 283.768 248.344L286.505 239.124C286.689 238.503 286.336 237.85 285.715 237.666L282.212 236.625C281.591 236.441 280.939 236.794 280.755 237.415Z" fill="#D9EDCB"/>
<path d="M280.63 237.775L278.008 246.598C277.829 247.214 278.187 247.889 278.802 248.068L282.298 249.102C282.914 249.281 283.589 248.923 283.768 248.307L286.33 239.662C285.814 239.484 284.622 239.126 283.768 239.185C282.934 239.245 281.365 238.271 280.63 237.775Z" fill="#3F443B"/>
<path d="M280.387 238.611L278.674 244.383L284.424 246.091L286.137 240.319L280.387 238.611Z" fill="black"/>
<path d="M262.853 251.824C262.833 252.381 263.985 253.017 264.482 253.235C266.726 254.249 268.871 255.063 271.076 255.64C277.193 235.887 269.864 216.75 269.864 216.75L263.151 227.441C263.151 228.534 263.21 229.627 263.27 230.74C263.727 238.53 263.27 245.266 262.992 249.181C262.912 250.314 262.853 251.208 262.833 251.824H262.853Z" fill="#D9EDCB"/>
<path d="M272.248 219.83C270.063 218.539 265.654 216.174 262.019 215.796C261.224 215.717 260.728 214.882 261.065 214.147C262.217 211.524 265.455 206.019 269.407 203.475C269.785 203.237 270.063 203.436 270.44 203.654C271.89 204.469 275.028 206.893 275.227 209.755C275.406 212.299 274.532 216.69 273.996 219.055C273.817 219.85 272.923 220.228 272.228 219.81L272.248 219.83Z" fill="black"/>
<path d="M272.128 197.593C272.128 197.593 272.128 197.613 272.168 197.673C272.506 198.289 274.849 202.243 278.703 203.376C278.981 201.19 279 199.938 279 199.938L273.578 195.566C272.863 196.401 272.367 197.176 272.188 197.474C272.148 197.553 272.108 197.593 272.108 197.593H272.128Z" fill="#FFBE9D"/>
<path d="M280.57 199.819C280.57 199.819 272.129 201.23 271.334 195.944C270.54 190.658 268.911 187.299 274.274 186.167C279.637 185.054 280.987 186.902 281.682 188.591C282.378 190.28 282.755 199.302 280.57 199.799V199.819Z" fill="#FFBE9D"/>
<path d="M282.993 185.55C281.246 184.736 272.705 180.682 269.05 184.378C268.991 183.822 268.991 183.146 268.991 183.146C268.732 183.623 268.613 184.338 268.554 184.835C268.236 184.438 267.62 184.378 267.62 184.378C268.057 184.577 268.236 184.974 268.315 185.312C264.681 190.717 270.202 196.202 270.957 197.056C271.732 197.931 272.188 197.673 272.188 197.673C272.188 197.673 273.559 195.805 272.903 194.572C272.903 194.572 271.791 193.44 272.427 192.724C273.082 192.009 273.44 193.102 273.956 193.062C274.473 193.022 275.386 191.532 275.446 190.181C275.505 188.829 280.411 190.896 282.397 190.24C284.364 189.585 286.092 186.961 283.013 185.531L282.993 185.55Z" fill="black"/>
<path d="M262.972 232.21L262.714 230.601C266.626 229.965 269.804 228.077 272.128 224.997C273.896 222.672 275.127 219.631 275.525 216.65C276.299 210.868 274.79 207.589 270.877 206.595C267.381 205.701 263.349 208.443 263.309 208.463L262.376 207.112C262.575 206.973 267.063 203.932 271.274 205.005C274.571 205.84 278.246 208.563 277.133 216.869C276.875 218.777 276.061 222.513 273.419 225.99C270.817 229.408 267.302 231.495 262.972 232.21Z" fill="black"/>
<path d="M285.615 243.299C285.417 242.524 282.676 243.14 282.1 242.564C281.961 242.425 283.371 242.325 283.788 242.206C284.205 242.087 284.284 241.908 284.205 241.729C284.125 241.55 281.543 241.014 280.848 241.093C280.431 241.153 279.2 241.63 278.306 241.988C278.306 241.988 267.58 234.237 265.694 232.33C264.323 230.959 272.387 219.91 272.248 219.83C270.063 218.519 265.654 216.154 262.019 215.776C261.86 215.776 261.761 215.736 261.622 215.677C259.139 221.022 256.597 228.057 256.061 235.092C256.061 235.092 265.197 244.015 276.717 245.565C276.717 245.565 281.166 246.618 283.013 246.578C285.536 246.518 285.794 244.034 285.595 243.259L285.615 243.299Z" fill="#FFBE9D"/>
<path d="M191.866 274.677C191.767 275.194 191.568 275.731 191.31 276.029C190.992 276.406 190.476 277.161 190.158 277.658C189.264 276.863 189.225 275.075 189.324 274.002C189.781 273.763 190.218 273.584 190.595 273.465C191.191 273.723 191.608 274.161 191.866 274.677Z" fill="#FFBE9D"/>
<path d="M209.842 208.483C209.762 208.205 208.73 205.005 203.744 206.059C203.744 206.059 206.247 205.741 206.922 206.714C206.922 206.714 204.936 205.8 203.704 206.575C202.473 207.35 202.254 209.894 202.453 210.669C202.632 211.444 204.002 213.769 204.916 213.769C205.254 213.769 205.631 213.65 205.949 213.511C205.81 213.928 205.691 214.365 205.571 214.862C204.598 219.393 207.617 222.851 209.186 221.996C210.179 221.44 210.934 223.208 210.934 223.208L219.236 212.199C219.236 212.199 213.457 205.244 209.842 208.503V208.483Z" fill="black"/>
<path d="M231.789 272.412C231.57 273.247 230.835 275.154 230.279 275.154C229.822 275.154 229.664 272.829 229.068 272.332C228.214 271.617 227.518 270.107 227.399 269.749C227.181 268.994 226.962 268.835 226.962 268.835C226.962 268.835 220.15 256.355 219.613 253.176C219.435 252.142 218.998 250.056 218.461 247.711C217.885 245.167 217.23 242.345 216.733 240.219C218.918 239.802 221.322 239.643 223.288 239.603C223.685 242.186 224.043 244.829 224.36 247.115C224.817 250.533 225.175 253.176 225.373 253.752C225.969 255.302 227.598 263.708 229.147 268.06C229.326 268.497 229.822 269.61 230.379 269.987C231.054 270.464 232.027 271.577 231.789 272.412Z" fill="#FFBE9D"/>
<path d="M193.038 261.959C193.217 262.396 194.011 262.794 195.163 263.092C197.745 263.728 202.075 263.827 205.253 262.635C208.649 261.383 211.112 243.418 212.165 234.217C212.522 230.998 212.721 228.852 212.721 228.852C212.721 228.852 210.775 225.792 203.227 226.805C195.679 227.819 194.905 230.362 194.23 234.953C193.554 239.543 192.442 260.508 193.038 261.939V261.959Z" fill="#847263"/>
<path d="M222.871 262.873C219.097 250.831 223.228 248.208 222.831 242.186C222.434 236.165 217.766 229.687 217.766 229.687C217.766 229.687 217.528 229.667 217.131 229.627C216.813 229.468 216.734 228.157 216.734 226.765C216.734 225.116 216.873 223.347 216.873 223.347L211.272 222.235L210.934 222.175C210.934 226.07 209.921 228.633 209.186 229.23C208.491 229.309 205.512 229.687 203.664 230.462C202.969 230.76 202.453 231.098 202.254 231.495C200.725 234.873 199.176 243.398 198.103 249.479C197.507 252.878 197.05 255.501 196.812 256.057C196.157 257.587 194.17 265.914 192.442 270.206C192.244 270.623 191.708 271.716 191.132 272.074C190.436 272.511 189.423 273.584 189.622 274.439C189.801 275.293 189.999 276.625 190.873 276.625C191.251 276.625 191.866 275.889 192.462 274.995C192.859 275.214 192.959 274.558 193.396 274.161C193.872 273.743 194.111 271.955 194.111 271.955C194.369 271.22 194.588 271.061 194.588 271.061C194.588 271.061 201.917 258.879 202.592 255.719C202.81 254.686 203.347 252.619 203.962 250.314C204.062 249.956 204.161 249.599 204.24 249.241C205.333 252.222 205.909 253.593 205.869 254.885C205.829 256.713 204.578 258.362 201.996 264.185C200.566 267.404 226.684 275.154 222.851 262.853L222.871 262.873Z" fill="#FFBE9D"/>
<path d="M216.892 223.328C216.892 223.328 216.773 225.096 216.753 226.746C213.615 226.666 211.966 223.804 211.291 222.215L216.892 223.328Z" fill="#FFBE9D"/>
<path d="M210.715 221.619C210.715 221.619 209.066 219.035 208.689 216.81C208.411 215.22 209.206 209.358 215.105 210.212C215.105 210.212 216.813 210.371 218.421 211.464C219.693 212.338 221.54 214.186 219.474 219.314L218.938 221.042L210.715 221.619Z" fill="black"/>
<path d="M217.925 224.898C217.925 224.898 210.516 225.017 210.516 220.407C210.516 215.796 209.543 212.696 214.27 212.418C218.997 212.14 219.911 213.908 220.288 215.438C220.666 216.969 219.832 224.739 217.905 224.878L217.925 224.898Z" fill="#FFBE9D"/>
<path d="M228.273 332.466L225.89 333.042C225.89 333.042 222.156 327.915 219.037 320.94C217.071 316.508 215.363 311.461 215.005 306.771C214.846 304.645 214.966 302.598 215.482 300.71C215.482 300.71 214.827 296.239 213.913 290.277C212.9 283.64 211.589 275.174 210.576 268.954L211.192 268.775L224.46 264.841C224.46 264.841 227.062 275.015 225.87 290.933C225.632 294.192 225.214 297.709 224.599 301.425C223.546 307.784 223.983 314.163 224.857 319.469C226.108 327.06 228.273 332.486 228.273 332.486V332.466Z" fill="black"/>
<path d="M225.87 290.913L215.025 306.771C214.866 304.645 214.985 302.598 215.502 300.71C215.502 300.71 214.846 296.239 213.933 290.277C212.92 283.64 211.609 275.174 210.596 268.954L211.211 268.775L224.479 264.841C224.479 264.841 227.081 275.015 225.889 290.933L225.87 290.913Z" fill="black"/>
<path d="M214.231 301.763C213.754 302.637 209.107 308.241 204.419 314.461C204.022 314.998 203.605 315.574 203.168 316.17C200.407 320.065 197.229 325.133 195.342 327.597C193.614 329.842 192.065 327.04 192.939 325.033C194.31 321.874 195.481 316.349 196.812 312.275C197.11 311.341 197.428 310.467 197.765 309.732C199.196 306.532 201.996 303.015 205.373 299.537C205.968 298.941 200.447 284.554 200.824 273.465C200.963 269.073 201.579 265.198 202.989 262.853L216.912 263.549C216.912 263.549 218.819 293.178 214.231 301.783V301.763Z" fill="black"/>
<path d="M220.09 212.895C218.938 211.504 218.084 211.802 217.607 212.219C213.635 210.013 210.953 213.292 210.953 213.292C210.457 216.611 208.073 218.499 208.073 218.499C208.073 218.499 209.424 219.333 212.542 218.539C213.496 218.3 214.35 217.624 215.065 216.81C213.813 218.916 212.085 220.446 212.085 220.446C215.8 218.717 217.289 213.551 217.448 213.014C217.905 213.411 218.799 214.306 219.057 215.16C219.434 216.333 219.593 218.757 220.288 218.678C220.288 218.678 221.818 215.001 220.09 212.915V212.895Z" fill="black"/>
<path d="M200.288 268.398C200.268 268.875 200.288 269.252 200.367 269.511C200.665 270.445 201.678 270.862 204.141 270.624C205.65 270.465 206.326 267.941 206.623 265.795C207.517 268.875 208.788 270.604 210.437 270.961C212.82 271.498 224.857 272.949 225.651 267.225C226.525 260.926 223.923 249.778 223.784 243.776C224.142 241.65 224.261 239.802 224.221 238.212C224.122 233.939 222.871 231.535 221.897 230.561C221.619 230.343 221.341 230.223 220.249 230.025C219.693 229.925 218.918 229.826 217.806 229.667C217.806 229.667 217.329 229.607 217.349 229.627C217.548 229.985 219.752 233.224 219.534 234.277C219.315 235.39 210.894 235.231 210.218 234.615C209.543 233.999 207.815 229.389 207.815 229.389C207.815 229.389 204.399 229.766 202.711 230.978C202.711 230.978 202.711 230.979 202.711 230.998C202.512 231.137 202.353 231.296 202.274 231.455C200.486 234.854 198.699 243.438 197.447 249.579C200.486 251.248 203.148 250.751 203.962 250.533C202.889 257.587 200.446 265.159 200.288 268.378V268.398Z" fill="#3F443B"/>
<path d="M217.786 229.667C217.786 229.667 217.786 229.667 217.786 229.687C218.124 230.203 223.248 238.411 223.745 243.756C224.103 241.63 224.222 239.782 224.182 238.192C223.527 236.165 220.567 231.654 219.018 229.826C218.899 229.687 217.767 229.667 217.767 229.667H217.786Z" fill="#847263"/>
<path d="M219.058 320.94C222.156 327.935 225.91 333.042 225.91 333.042L228.293 332.466C228.293 332.466 226.128 327.06 224.877 319.449C224.142 320.006 222.514 320.721 219.058 320.94Z" fill="#FFBE9D"/>
<path d="M224.023 335.744H225.651C226.188 335.665 226.605 335.506 227.161 335.426C228.015 335.307 228.392 335.665 228.472 335.744H235.384C235.562 335.486 235.384 334.93 235.225 334.492C235.106 334.214 234.867 333.996 234.569 333.896C233.834 333.678 232.385 333.499 231.074 332.287C230.319 331.611 227.479 329.803 227.479 329.803C227.479 329.803 227.121 329.882 225.83 330.995C225.155 331.551 224.023 330.2 224.023 330.2C224.023 330.2 223.804 330.379 223.645 330.717C223.526 330.975 223.427 331.333 223.506 331.77C223.606 332.386 223.268 333.558 223.01 334.333C222.851 334.81 222.712 335.148 222.712 335.148C222.712 335.148 222.632 335.546 224.042 335.725L224.023 335.744Z" fill="black"/>
<path d="M224.023 335.745H225.652C226.188 335.665 226.605 335.506 227.161 335.427C228.015 335.307 228.393 335.665 228.472 335.745H235.384C235.563 335.486 235.384 334.93 235.225 334.493C235.007 334.314 234.947 335.307 234.848 335.466C234.729 335.625 229.207 335.526 228.889 335.287C228.571 335.049 227.618 334.652 226.287 334.969C225.135 335.248 223.407 334.532 222.99 334.353C222.831 334.83 222.692 335.168 222.692 335.168C222.692 335.168 222.613 335.566 224.023 335.745Z" fill="#D9EDCB"/>
<path opacity="0.4" d="M200.288 268.398C201.937 267.841 204.062 266.371 206.604 263.092C213.357 254.368 207.18 244.114 206.346 243.935C205.512 243.736 203.963 250.572 203.963 250.572C202.89 257.627 200.447 265.198 200.288 268.417V268.398Z" fill="#3F443B"/>
<path d="M204.062 228.772C204.062 228.772 210.854 233.403 211.351 243.2C211.867 252.997 203.029 255.004 203.029 255.004L203.605 251.904C203.605 251.904 210.755 249.32 208.888 241.511C207.021 233.701 201.42 229.448 201.42 229.448L204.042 228.772H204.062Z" fill="#847263"/>
<path d="M215.8 222.175C215.8 222.175 215.939 222.751 217.349 222.632C217.349 222.632 218.541 222.552 218.501 221.917C218.501 221.917 217.349 221.479 215.8 222.175Z" fill="white"/>
<path d="M203.168 316.17C200.407 320.065 197.229 325.133 195.342 327.597C193.614 329.842 192.065 327.04 192.939 325.033C194.31 321.874 195.481 316.349 196.812 312.275C197.706 313.627 199.533 315.395 203.188 316.17H203.168Z" fill="#FFBE9D"/>
<path d="M199.037 335.745C199.037 335.745 194.985 335.228 193.972 333.916C193.853 333.757 193.595 332.346 193.595 332.327C193.575 332.207 193.436 331.691 192.641 331.293C192.125 331.035 191.668 330.975 191.152 330.697C190.774 330.498 190.079 330.021 189.741 329.763C188.589 328.849 188.927 328.511 188.927 328.511C188.927 328.511 189.245 328.293 189.662 327.975C189.781 327.895 189.9 327.796 190.019 327.696C190.635 327.2 191.35 326.544 191.569 326.047C191.767 325.63 192.045 325.371 192.303 325.212C192.641 325.014 192.919 324.994 192.919 324.994C192.919 324.994 193.118 326.822 194.012 326.743C195.759 326.544 196.077 326.643 196.137 326.683C196.137 326.683 197.15 329.564 197.388 330.578C197.825 332.386 198.62 333.141 199.096 333.777C199.215 333.936 199.295 334.115 199.354 334.274C199.553 334.97 199.235 335.645 198.997 335.745H199.037Z" fill="black"/>
<path d="M199.037 335.745C199.037 335.745 194.985 335.228 193.972 333.916C193.853 333.757 193.595 332.347 193.595 332.327C193.575 332.207 193.436 331.691 192.641 331.293C192.125 331.035 191.668 330.975 191.152 330.697C190.774 330.498 190.079 330.021 189.741 329.763C188.589 328.849 188.927 328.511 188.927 328.511C188.927 328.511 189.245 328.293 189.662 327.975C189.781 327.895 189.9 327.796 190.019 327.696C190.079 328.233 190.317 329.207 191.231 329.704C192.542 330.439 193.892 331.571 194.23 332.366C194.568 333.161 194.747 333.877 195.561 334.274C196.375 334.672 198.56 335.049 198.719 335.009C198.858 334.97 199.057 334.433 199.394 334.274C199.593 334.97 199.275 335.645 199.037 335.745Z" fill="#D9EDCB"/>
<path d="M111.882 352.313L106.113 344.916L70.8988 372.409C67.7934 372.323 63.9757 373.834 60.4713 376.585L36.9952 394.928C31.2402 399.417 28.4624 405.517 31.3684 409.237C34.2744 412.957 40.8414 411.746 46.6107 407.256L70.0868 388.927C73.6054 386.191 75.9986 382.842 76.6681 379.82L111.882 352.327V352.313Z" fill="black"/>
<path d="M182.938 290.884C165.16 268.08 132.267 264.018 109.475 281.805C86.6828 299.607 82.6229 332.502 100.401 355.306C118.179 378.11 151.071 382.172 173.863 364.37C196.656 346.583 200.716 313.674 182.923 290.87L182.938 290.884ZM167.168 355.79C149.12 369.886 123.079 366.665 108.991 348.607C94.9023 330.549 98.1217 304.481 116.17 290.4C134.219 276.304 160.259 279.525 174.348 297.583C188.436 315.641 185.217 341.694 167.168 355.79Z" fill="#3F443B"/>
<path opacity="0.5" d="M167.168 355.79C149.119 369.886 123.079 366.665 108.991 348.607C94.9021 330.549 98.1216 304.481 116.17 290.4C134.219 276.304 160.259 279.525 174.348 297.583C188.436 315.641 185.217 341.694 167.168 355.79Z" fill="#E9FDDB"/>
<path d="M152.328 185.571C149.091 185.571 146.032 184.044 144.09 181.499L115.582 144.142C112.144 139.627 113.037 133.209 117.591 129.779C122.145 126.37 128.619 127.256 132.08 131.77L152.105 157.996L207.96 80.5592C211.286 75.9559 217.738 74.8937 222.381 78.1912C227.025 81.4887 228.097 87.8846 224.77 92.4878L160.744 181.277C158.824 183.933 155.766 185.571 152.484 185.571H152.35H152.328Z" fill="#263238"/>
<path d="M442.364 68.5713H265.453C256.833 68.5713 249.842 74.7913 249.842 83.396V121.153C249.842 129.321 256.118 136.018 264.103 136.693L271.313 173.099L299.576 136.554H442.344C450.964 136.554 457.419 129.778 457.419 121.153V83.396C457.419 74.7714 450.964 68.5713 442.344 68.5713H442.364Z" fill="white"/>
<path d="M427.249 81.7863H259.276V87.4499H427.249V81.7863Z" fill="#6B7665"/>
<path d="M444.231 93.1136H259.276V98.7771H444.231V93.1136Z" fill="#6B7665"/>
<path d="M395.152 106.329H259.276V111.992H395.152V106.329Z" fill="#6B7665"/>
<path d="M410.247 117.656H259.276V123.319H410.247V117.656Z" fill="#6B7665"/>
</svg>
