<svg width="480" height="480" viewBox="0 0 480 480" fill="none" xmlns="http://www.w3.org/2000/svg">
<path d="M453.076 47.1428H214.577C210.612 47.1428 207.398 50.3649 207.398 54.3396V268.414C207.398 272.389 210.612 275.611 214.577 275.611H453.076C457.04 275.611 460.254 272.389 460.254 268.414V54.3396C460.254 50.3649 457.04 47.1428 453.076 47.1428Z" fill="#DBE5D3"/>
<path d="M215.773 47.1428H451.868C456.491 47.1428 460.242 50.9042 460.242 55.5391V72.6459H207.398V55.5391C207.398 50.9042 211.15 47.1428 215.773 47.1428Z" fill="#6B7665"/>
<path d="M222.824 61.944C223.927 61.944 224.821 61.0472 224.821 59.941C224.821 58.8348 223.927 57.938 222.824 57.938C221.72 57.938 220.826 58.8348 220.826 59.941C220.826 61.0472 221.72 61.944 222.824 61.944Z" fill="white"/>
<path d="M236.785 59.941C236.785 61.0473 235.891 61.944 234.787 61.944C233.684 61.944 232.79 61.0473 232.79 59.941C232.79 58.8347 233.684 57.938 234.787 57.938C235.891 57.938 236.785 58.8347 236.785 59.941Z" fill="white"/>
<path d="M246.763 61.944C247.866 61.944 248.761 61.0472 248.761 59.941C248.761 58.8348 247.866 57.938 246.763 57.938C245.66 57.938 244.765 58.8348 244.765 59.941C244.765 61.0472 245.66 61.944 246.763 61.944Z" fill="white"/>
<path d="M429.845 93.2234H334.366V96.6937H429.845V93.2234Z" fill="white"/>
<path d="M429.845 107.477H334.366V110.947H429.845V107.477Z" fill="white"/>
<path d="M429.845 121.731H334.366V125.201H429.845V121.731Z" fill="white"/>
<path d="M429.845 135.984H334.366V139.455H429.845V135.984Z" fill="white"/>
<path d="M382.105 150.25H334.366V153.72H382.105V150.25Z" fill="white"/>
<path d="M232.952 181.75H328.431V178.28H232.952V181.75Z" fill="white"/>
<path d="M232.952 196.004H328.431V192.534H232.952V196.004Z" fill="white"/>
<path d="M232.952 210.27H328.431V206.799H232.952V210.27Z" fill="white"/>
<path d="M232.952 224.524H328.431V221.053H232.952V224.524Z" fill="white"/>
<path d="M280.691 238.777H328.431V235.307H280.691V238.777Z" fill="white"/>
<path d="M426.628 174.46H344.925V242.62H426.628V174.46Z" fill="white"/>
<path d="M344.785 222.031L368.934 205.064L385.776 216.756L412.282 194.281L426.639 208.534V242.609H344.925L344.785 222.031Z" fill="#6B7665"/>
<path d="M387.193 201.14C390.971 201.14 394.035 198.069 394.035 194.281C394.035 190.492 390.971 187.421 387.193 187.421C383.415 187.421 380.352 190.492 380.352 194.281C380.352 198.069 383.415 201.14 387.193 201.14Z" fill="#6B7665"/>
<path d="M314.655 91.1153H232.952V159.275H314.655V91.1153Z" fill="white"/>
<path d="M232.813 138.698L256.961 121.731L273.804 133.423L300.298 110.936L314.655 125.201V159.275H232.952L232.813 138.698Z" fill="#6B7665"/>
<path d="M275.221 117.795C278.999 117.795 282.062 114.724 282.062 110.936C282.062 107.148 278.999 104.077 275.221 104.077C271.442 104.077 268.379 107.148 268.379 110.936C268.379 114.724 271.442 117.795 275.221 117.795Z" fill="#6B7665"/>
<path d="M389.412 248.633H50.8185C33.58 248.633 19.6055 262.644 19.6055 279.926V283.36C19.6055 300.642 33.58 314.653 50.8185 314.653H389.412C406.65 314.653 420.625 300.642 420.625 283.36V279.926C420.625 262.644 406.65 248.633 389.412 248.633Z" fill="white"/>
<path d="M331.788 248.029V314.64H387.811C406.167 314.64 421.032 299.724 421.032 281.334C421.032 262.932 406.153 248.029 387.811 248.029H331.788Z" fill="#44513C"/>
<path d="M383.914 279.493C383.822 279.493 383.901 278.243 383.35 276.086C382.799 273.981 381.395 270.89 378.233 268.496C376.672 267.325 374.704 266.339 372.434 265.944C370.177 265.563 367.645 265.642 365.231 266.562C364.011 266.983 362.843 267.628 361.767 268.443C360.678 269.233 359.694 270.219 358.881 271.364C357.201 273.613 356.244 276.494 356.217 279.48C356.244 282.452 357.188 285.346 358.881 287.596C359.694 288.74 360.678 289.727 361.767 290.516C362.843 291.331 364.011 291.963 365.231 292.397C367.645 293.318 370.19 293.396 372.434 293.015C374.704 292.62 376.672 291.634 378.233 290.463C381.395 288.082 382.799 284.978 383.35 282.873C383.901 280.729 383.822 279.466 383.914 279.466C383.914 279.466 384.085 280.716 383.599 282.926C383.114 285.096 381.749 288.306 378.522 290.831C376.921 292.068 374.887 293.12 372.526 293.554C370.19 293.975 367.527 293.923 364.995 292.962C363.722 292.528 362.489 291.857 361.36 291.016C360.219 290.187 359.182 289.161 358.317 287.964C356.545 285.609 355.535 282.571 355.509 279.453C355.535 276.336 356.545 273.297 358.317 270.943C359.169 269.746 360.219 268.72 361.36 267.891C362.489 267.049 363.722 266.378 364.995 265.944C367.527 264.997 370.177 264.931 372.526 265.352C374.887 265.786 376.921 266.839 378.522 268.075C381.749 270.601 383.127 273.81 383.599 275.981C384.085 278.191 383.914 279.453 383.914 279.453V279.493Z" fill="white"/>
<path d="M396.943 299.171C396.838 299.329 393.217 296.908 388.861 293.791C384.505 290.66 381.067 288.003 381.172 287.845C381.277 287.687 384.898 290.095 389.254 293.225C393.61 296.356 397.048 299.013 396.943 299.158V299.171Z" fill="white"/>
<path d="M302.897 275.454H57.7461V289.582H302.897V275.454Z" fill="#6B7665"/>
<path d="M389.412 314.653C389.412 314.653 390.186 314.588 391.682 314.509C392.429 314.509 393.361 314.338 394.45 314.167C395.552 314.048 396.799 313.68 398.216 313.312C400.997 312.443 404.382 311.036 407.833 308.471C408.266 308.155 408.699 307.826 409.132 307.484C409.551 307.129 409.958 306.735 410.391 306.34C411.27 305.59 412.057 304.696 412.884 303.775C413.737 302.881 414.406 301.789 415.219 300.763C415.56 300.197 415.902 299.631 416.256 299.053L416.781 298.185L417.227 297.251C418.526 294.791 419.378 291.95 419.982 288.937C420.1 288.174 420.218 287.398 420.336 286.622C420.376 285.833 420.415 285.031 420.454 284.228C420.52 282.623 420.507 280.94 420.454 279.256C420.362 272.521 417.83 265.155 412.569 259.262C407.387 253.369 399.344 249.133 390.396 248.91C381.448 248.818 371.949 248.91 362.004 248.884C282.364 248.91 172.364 248.949 50.8578 248.989C43.3268 248.989 35.927 251.843 30.3772 256.802C24.8142 261.722 21.1012 268.654 20.2484 275.954C20.0647 276.862 20.0909 277.783 20.0253 278.69C19.9597 279.598 19.9466 280.519 19.9597 281.453C19.9335 283.307 20.0122 285.123 20.1828 286.938C20.5501 290.568 21.6785 294.081 23.2923 297.303C26.5461 303.749 32.0303 308.958 38.5511 311.773C41.8049 313.18 45.2817 313.996 48.7848 314.232C50.5298 314.364 52.3011 314.338 54.0723 314.338C55.8435 314.338 57.6016 314.338 59.3597 314.338C66.3922 314.338 73.359 314.338 80.2471 314.338C94.0233 314.338 107.524 314.338 120.684 314.338C173.335 314.364 220.751 314.39 260.558 314.417C300.365 314.456 332.588 314.495 354.866 314.522C365.992 314.548 374.638 314.574 380.503 314.588C383.429 314.601 385.659 314.614 387.168 314.627C388.664 314.627 389.438 314.666 389.438 314.666C389.438 314.666 388.664 314.693 387.168 314.706C385.659 314.706 383.429 314.719 380.503 314.745C374.638 314.759 365.992 314.785 354.866 314.811C332.588 314.837 300.378 314.877 260.558 314.916C220.738 314.943 173.322 314.956 120.684 314.995C107.524 314.995 94.0364 314.995 80.2471 314.995C73.359 314.995 66.3922 314.995 59.3597 314.995C57.6016 314.995 55.8435 314.995 54.0723 314.995C52.3011 314.995 50.5429 315.022 48.7455 314.89C45.1768 314.653 41.6212 313.811 38.2887 312.378C31.6236 309.497 26.0213 304.17 22.6887 297.593C21.0356 294.304 19.8941 290.713 19.5136 287.004C19.3431 285.149 19.2644 283.281 19.2906 281.44C19.2906 280.519 19.2906 279.585 19.3562 278.651C19.4218 277.717 19.3956 276.783 19.5792 275.849C20.4583 268.391 24.25 261.301 29.9311 256.276C35.5859 251.212 43.1694 248.305 50.8578 248.292C172.351 248.331 282.351 248.371 362.004 248.397C371.962 248.423 381.435 248.357 390.409 248.476C399.488 248.726 407.623 253.04 412.858 259.012C418.158 264.984 420.704 272.455 420.782 279.256C420.835 280.966 420.835 282.61 420.769 284.241C420.73 285.057 420.677 285.859 420.638 286.662C420.52 287.451 420.402 288.227 420.284 289.003C419.68 292.042 418.801 294.909 417.476 297.382C417.319 297.698 417.174 298.014 417.017 298.316L416.479 299.197C416.125 299.776 415.77 300.355 415.429 300.921C414.616 301.96 413.934 303.052 413.068 303.946C412.241 304.867 411.441 305.761 410.549 306.511C410.116 306.892 409.709 307.287 409.276 307.655C408.83 307.984 408.384 308.313 407.964 308.642C404.487 311.194 401.076 312.601 398.268 313.443C396.838 313.798 395.591 314.167 394.489 314.272C393.387 314.443 392.469 314.588 391.708 314.588C390.199 314.653 389.438 314.666 389.438 314.666L389.412 314.653Z" fill="#44513C"/>
<path d="M232.206 273.091C230.789 271.426 230.638 270.017 233.844 269.737C240.906 269.097 246.11 266.011 246.923 264.217C247.747 262.424 245.506 260.677 243.589 261.76C242.044 262.634 239.013 263.297 236.713 263.717C234.819 264.054 232.88 264.089 230.986 263.798C229.337 263.542 227.897 263.263 226.607 262.983C226.607 262.983 219.139 261.364 215.91 258.849L200.101 275.781L207.512 284.177C207.512 284.177 211.054 289.488 217.408 288.859C223.773 288.23 232.322 283.653 232.322 283.653C233.484 281.872 243.717 288.207 247.016 290.582C250.268 292.923 252.754 292.352 252.626 290.082C252.545 288.521 242.625 281.022 239.303 278.751C237.491 277.505 233.913 275.129 232.206 273.126" fill="#FFBE9D"/>
<path d="M222.914 287.799C222.925 287.892 222.461 288.102 221.636 288.079C220.823 288.067 219.696 287.741 218.697 286.984C217.699 286.227 217.083 285.214 216.851 284.445C216.607 283.665 216.676 283.153 216.769 283.141C216.99 283.094 217.385 285.004 219.197 286.332C220.962 287.718 222.914 287.566 222.925 287.799H222.914Z" fill="#EB996E"/>
<path d="M229.174 285.33C229.174 285.423 228.721 285.598 227.943 285.551C227.165 285.505 226.096 285.179 225.155 284.433C224.215 283.688 223.622 282.733 223.39 281.988C223.146 281.243 223.204 280.753 223.297 280.742C223.529 280.684 223.947 282.489 225.655 283.781C227.328 285.12 229.174 285.086 229.174 285.318V285.33Z" fill="#EB996E"/>
<path d="M246.215 109.196C246.877 123.1 263.789 142.14 276.368 145.226C282.977 146.845 290.597 146.088 295.836 150.536C304.826 158.176 299.564 174.013 305.627 184.261C309.356 190.561 316.755 193.647 320.948 199.633C327.917 209.578 323.236 224.6 313.735 232.007C304.234 239.413 291.561 240.822 279.655 240.519C253.451 239.844 226.608 231.494 207.663 212.862C198.766 204.116 163.943 177.099 176.092 113.085" fill="black"/>
<path d="M340.81 208.681L241.173 179.02C232.915 175.504 226.666 174.642 226.666 174.642L193.028 174.863C188.463 174.863 184.153 175.853 180.123 177.565L89.4298 207.773C82.7161 209.904 78.0815 216.798 78.0815 224.658C78.0815 234.347 85.0508 242.208 93.6462 242.208H135.531C135.415 242.604 135.345 242.825 135.345 242.825L281.014 243.372C281.014 243.372 281.014 243.337 281.014 243.314L336.617 243.442C345.212 243.442 352.182 235.512 352.182 225.73C352.182 217.788 347.547 210.824 340.833 208.681H340.81Z" fill="#44513C"/>
<path d="M320.843 219.476C320.843 219.476 320.53 219.476 319.937 219.43C319.264 219.348 318.416 219.255 317.37 219.139C315.152 218.859 311.923 218.498 307.939 218.114C299.97 217.334 288.913 216.647 276.681 216.798C264.45 216.973 253.416 217.951 245.471 218.929C241.498 219.418 238.281 219.861 236.062 220.198C235.029 220.338 234.181 220.466 233.507 220.559C232.926 220.629 232.613 220.653 232.601 220.629C232.601 220.606 232.891 220.524 233.472 220.396C234.134 220.257 234.982 220.094 236.004 219.884C238.211 219.441 241.417 218.917 245.39 218.347C253.335 217.206 264.404 216.134 276.67 215.971C288.924 215.82 300.017 216.6 307.997 217.532C311.981 217.986 315.198 218.44 317.417 218.824C318.45 218.999 319.298 219.15 319.96 219.267C320.541 219.372 320.843 219.453 320.843 219.476Z" fill="#44513C"/>
<g opacity="0.6">
<path d="M297.461 195.207C297.461 195.207 297.38 195.335 297.183 195.545C296.95 195.79 296.66 196.092 296.3 196.477C295.51 197.28 294.348 198.456 292.78 199.9C291.201 201.344 289.226 203.056 286.729 204.791C284.22 206.492 281.165 208.262 277.425 209.24C273.708 210.288 269.329 210.183 264.973 208.995C260.594 207.819 256.273 205.595 251.859 203.196C247.422 200.832 242.857 198.095 237.665 196.523C232.531 194.823 226.642 194.87 221.439 197.362C216.2 199.726 211.74 203.347 206.861 205.944C205.653 206.62 204.376 207.144 203.144 207.703C201.867 208.157 200.612 208.669 199.323 208.984C196.767 209.741 194.177 210.125 191.645 210.311C181.458 211.045 172.352 207.726 166.149 203.278C163.013 201.042 160.632 198.503 158.448 196.418C156.276 194.322 154.278 192.645 152.49 191.527C148.854 189.28 146.322 189.385 146.38 189.233C146.38 189.233 146.972 189.233 148.087 189.431C149.191 189.629 150.805 190.165 152.652 191.248C154.499 192.343 156.555 193.996 158.762 196.069C160.992 198.119 163.385 200.622 166.486 202.788C172.631 207.097 181.598 210.3 191.587 209.543C194.073 209.345 196.605 208.96 199.102 208.215C200.368 207.901 201.588 207.4 202.842 206.957C204.05 206.398 205.293 205.898 206.478 205.234C211.263 202.672 215.724 199.039 221.102 196.605C226.445 194.031 232.671 193.985 237.898 195.743C243.217 197.373 247.794 200.145 252.219 202.521C256.622 204.943 260.873 207.155 265.147 208.332C269.399 209.519 273.638 209.659 277.274 208.669C280.933 207.761 283.964 206.049 286.462 204.407C288.959 202.73 290.957 201.053 292.56 199.656C294.163 198.258 295.359 197.117 296.184 196.349C296.567 195.988 296.869 195.708 297.113 195.475C297.322 195.277 297.438 195.184 297.45 195.196L297.461 195.207Z" fill="white"/>
</g>
<g opacity="0.2">
<path d="M142.628 219.278L205.607 231.18L198.336 243.058L196.419 243.093L142.628 219.278Z" fill="#44513C"/>
</g>
<g opacity="0.6">
<path d="M333.283 206.794C333.283 206.794 333.318 207.132 333.318 207.761C333.306 208.39 333.237 209.333 333.039 210.521C332.644 212.885 331.68 216.355 329.241 219.965C326.848 223.563 322.806 227.22 317.347 229.118C314.641 230.073 311.621 230.62 308.484 230.504C305.348 230.388 302.177 229.666 299.029 228.769C295.882 227.872 292.85 226.894 289.853 226.288C286.868 225.636 283.918 225.508 281.153 225.834C275.601 226.498 270.909 228.815 267.575 231.412C264.172 233.974 262.092 236.804 260.826 238.807C260.524 239.308 260.257 239.762 260.013 240.17C259.816 240.566 259.642 240.903 259.491 241.206C259.2 241.765 259.038 242.056 259.014 242.044C258.991 242.044 259.096 241.718 259.34 241.136C259.467 240.822 259.618 240.461 259.793 240.053C260.025 239.634 260.269 239.156 260.548 238.644C261.744 236.571 263.788 233.625 267.215 230.958C270.572 228.256 275.346 225.823 281.06 225.089C283.906 224.74 286.973 224.856 290.016 225.508C293.071 226.114 296.126 227.104 299.25 227.989C302.375 228.885 305.476 229.584 308.508 229.712C311.539 229.829 314.466 229.328 317.091 228.408C322.4 226.603 326.36 223.109 328.753 219.639C331.192 216.145 332.226 212.78 332.714 210.463C333.19 208.122 333.19 206.783 333.272 206.794H333.283Z" fill="white"/>
</g>
<path d="M89.4995 240.181C89.4995 240.181 203.365 290.547 202.773 289.406C202.18 288.264 220.846 255.227 220.846 255.227L128.597 209.519L89.4995 240.181Z" fill="#44513C"/>
<path d="M141.769 216.052C141.769 216.052 142.629 216.355 144.115 217.042C145.718 217.799 147.832 218.8 150.376 220C155.649 222.527 162.909 226.079 170.912 230.038C178.915 233.997 186.14 237.631 191.355 240.298C193.852 241.602 195.932 242.673 197.511 243.488C198.952 244.257 199.741 244.711 199.718 244.758C199.695 244.804 198.859 244.455 197.372 243.768C195.769 243.011 193.655 242.009 191.111 240.81C185.838 238.283 178.567 234.731 170.564 230.76C162.561 226.801 155.336 223.167 150.132 220.501C147.635 219.196 145.556 218.125 143.976 217.31C142.536 216.541 141.746 216.087 141.769 216.04V216.052Z" fill="#44513C"/>
<g opacity="0.6">
<path d="M166.777 231.331C166.777 231.331 166.719 232.635 165.72 234.719C164.756 236.792 162.549 239.517 158.925 241.52C157.124 242.51 154.987 243.349 152.606 243.78C150.213 244.21 147.6 244.234 144.905 243.873C139.492 243.174 133.905 240.915 128.295 238.283C122.685 235.651 117.342 233.112 112.15 231.901C109.571 231.272 107.039 230.981 104.693 231.04C102.335 231.098 100.163 231.529 98.2576 232.134C94.4245 233.357 91.7646 235.418 90.3127 237.13C88.8375 238.83 88.338 240.018 88.2451 239.972C88.2451 239.972 88.6284 238.737 90.0687 236.932C91.4742 235.127 94.169 232.926 98.0717 231.599C100.023 230.935 102.242 230.469 104.669 230.376C107.097 230.283 109.687 230.574 112.324 231.191C117.632 232.39 123.045 234.941 128.643 237.573C134.23 240.193 139.725 242.44 145.01 243.151C147.635 243.523 150.178 243.523 152.49 243.139C154.813 242.755 156.892 241.974 158.658 241.043C162.212 239.156 164.419 236.583 165.441 234.603C166.498 232.612 166.684 231.331 166.777 231.366V231.331Z" fill="white"/>
</g>
<g opacity="0.6">
<path d="M215.108 265.847C215.085 265.999 212.588 265.58 208.511 265.51C206.478 265.463 204.062 265.58 201.391 265.871C198.731 266.208 195.827 266.744 192.842 267.571C189.868 268.433 187.115 269.504 184.664 270.622C182.237 271.775 180.123 272.951 178.415 274.057C174.989 276.247 173.072 277.924 172.979 277.807C172.945 277.761 173.398 277.318 174.257 276.549C175.105 275.769 176.418 274.744 178.102 273.568C179.786 272.38 181.912 271.146 184.351 269.935C186.813 268.77 189.601 267.652 192.621 266.779C195.653 265.929 198.603 265.417 201.309 265.114C204.016 264.858 206.478 264.799 208.534 264.927C210.59 265.032 212.239 265.219 213.366 265.44C214.493 265.638 215.12 265.778 215.108 265.836V265.847Z" fill="white"/>
</g>
<g opacity="0.2">
<path d="M229.151 174.432C227.27 179.708 230.092 185.402 232.833 190.293C234.738 193.693 236.69 197.14 239.431 199.9C242.184 202.66 245.889 204.698 249.78 204.57C254.891 204.407 259.467 200.611 264.578 200.914C268.051 201.112 271.106 203.173 273.987 205.129C278.981 208.518 284.104 211.814 289.772 213.898C295.44 215.971 301.736 216.763 307.509 215.016C313.282 213.269 318.381 208.704 319.786 202.823" fill="#44513C"/>
</g>
<path d="M229.581 172.977C229.848 166.828 230.173 161.273 230.173 161.273C230.173 161.273 243.868 159.538 244.46 145.517C245.053 131.496 243.659 99.2156 243.659 99.2156L218.442 87.0813L191.308 108.998L195.559 173.384C196.175 182.666 204.073 189.746 213.343 189.315C222.147 188.907 229.198 181.827 229.569 172.988L229.581 172.977Z" fill="#FFBE9D"/>
<path d="M241.301 124.567C241.313 125.557 240.546 126.372 239.594 126.384C238.63 126.396 237.84 125.616 237.817 124.626C237.805 123.636 238.572 122.821 239.524 122.797C240.488 122.786 241.278 123.566 241.301 124.556V124.567Z" fill="black"/>
<path d="M243.398 119.577C243.19 119.82 241.824 118.799 239.945 118.835C238.066 118.845 236.731 119.899 236.522 119.657C236.415 119.544 236.614 119.103 237.196 118.626C237.768 118.156 238.757 117.683 239.933 117.668C241.11 117.652 242.114 118.102 242.693 118.559C243.287 119.021 243.504 119.46 243.408 119.571L243.398 119.577Z" fill="black"/>
<path d="M220.51 124.567C220.521 125.557 219.755 126.372 218.802 126.384C217.838 126.395 217.048 125.615 217.025 124.625C217.013 123.636 217.78 122.82 218.732 122.797C219.697 122.785 220.486 123.566 220.51 124.556V124.567Z" fill="black"/>
<path d="M221.528 117.975C221.332 118.367 219.216 117.441 216.741 118.083C214.266 118.677 212.833 120.498 212.472 120.238C212.298 120.128 212.431 119.488 213.049 118.671C213.652 117.861 214.81 116.931 216.355 116.546C217.901 116.16 219.355 116.439 220.275 116.857C221.206 117.279 221.627 117.797 221.528 117.975Z" fill="black"/>
<path d="M229.244 137.365C229.244 137.249 230.406 137.086 232.299 136.9C232.775 136.865 233.24 136.783 233.321 136.434C233.437 136.061 233.252 135.502 233.019 134.897C232.589 133.627 232.136 132.311 231.66 130.926C229.779 125.266 228.42 120.619 228.64 120.55C228.849 120.48 230.545 124.998 232.427 130.658C232.88 132.055 233.31 133.383 233.728 134.652C233.902 135.246 234.204 135.921 233.948 136.678C233.809 137.063 233.461 137.319 233.147 137.4C232.833 137.493 232.566 137.482 232.334 137.493C230.429 137.528 229.244 137.493 229.244 137.377V137.365Z" fill="black"/>
<path d="M214.379 136.954C208.887 133.75 229.505 144.817 240.11 144.064C240.11 144.064 234.273 154.193 223.274 150.312C211.845 146.298 214.411 136.952 214.411 136.952L214.379 136.954Z" fill="white"/>
<path d="M230.174 161.261C230.174 161.261 221.009 161.529 212.03 155.311C212.03 155.311 216.293 165.524 229.93 164.708L230.162 161.273L230.174 161.261Z" fill="#EB996E"/>
<path d="M176.603 122.797C176.557 134.932 173.386 167.014 195.443 171.463L194.642 127.281C194.642 127.281 216.003 117.184 219.615 96.1529L219.743 96.2694C221.113 99.4485 223.553 106.261 222.066 111.816L242.068 116.753L244.367 118.861C244.367 118.861 251.488 103.21 237.747 89.0143C224.006 74.8188 212.263 85.1015 204.898 84.2165C199.997 83.6226 183.003 83.739 176.081 113.073L176.592 122.786L176.603 122.797Z" fill="black"/>
<path d="M195.199 127.77C193.329 126.617 190.785 127.56 189.31 129.191C186.987 131.741 186.581 135.852 188.358 138.81C190.147 141.767 193.968 143.305 197.302 142.42" fill="#FFBE9D"/>
<path d="M194.769 138.215C194.769 138.32 194.142 138.425 193.167 138.157C192.237 137.913 190.797 137.167 190.239 135.56C189.972 134.78 190.019 133.93 190.321 133.278C190.611 132.614 191.087 132.172 191.517 131.88C192.4 131.31 193.062 131.356 193.074 131.438C193.108 131.566 192.528 131.741 191.866 132.335C191.204 132.905 190.565 134.058 191.006 135.292C191.424 136.527 192.539 137.249 193.352 137.61C194.189 137.983 194.769 138.087 194.758 138.215H194.769Z" fill="#EB996E"/>
<path d="M192.934 140.976C191.924 141.22 191.401 142.618 192.017 143.468C192.632 144.318 194.119 144.248 194.665 143.363C195.211 142.466 194.572 141.115 193.55 140.964" fill="black"/>
<path d="M233.473 243.442V220.396C233.473 220.396 199.346 227.5 198.719 243.163L233.473 243.431V243.442Z" fill="#FFBE9D"/>
<path d="M229.93 170.543C230.487 177.565 233.74 184.331 238.85 189.152C243.973 193.973 250.907 196.803 257.934 196.919C262.975 197.013 268.284 195.801 272.883 197.874C276.879 199.668 279.458 203.557 282.606 206.608C289.993 213.77 301.469 216.379 311.226 213.095C315.361 211.709 321.924 208.728 322.69 204.419C323.271 201.147 319.275 197.886 316.929 195.534C314.571 193.181 311.528 191.679 308.519 190.27C284.208 178.823 258.109 170.496 231.289 169.076" fill="#44513C"/>
<path d="M250.829 301.252L302.629 430.164L324.245 396.361L354.167 434.431L389.853 401.542L355.843 369.771L387.233 349.2L250.829 301.252Z" fill="#6B7665"/>
<path d="M231.336 320.299C231.624 320.731 223.161 326.419 212.444 332.997C201.728 339.575 192.82 344.578 192.532 344.146C192.243 343.714 200.706 338.026 211.423 331.448C222.139 324.87 231.047 319.867 231.309 320.299H231.336Z" fill="#6B7665"/>
<path d="M235.371 294.343C235.292 294.572 232.095 293.785 227.039 292.21C221.982 290.635 215.065 288.248 207.571 285.302C200.051 282.356 193.37 279.461 188.575 277.252C183.78 275.067 180.872 273.569 180.977 273.34C181.082 273.112 184.173 274.179 189.099 276.058C194.68 278.242 201.152 280.782 208.278 283.575C215.431 286.318 221.903 288.807 227.51 290.966C232.436 292.845 235.475 294.064 235.371 294.318V294.343Z" fill="#6B7665"/>
<path d="M250.987 235.805C251.249 235.754 251.982 238.471 252.873 242.916C253.764 247.36 254.812 253.532 255.703 260.363C256.594 267.22 257.144 273.442 257.406 277.963C257.668 282.484 257.642 285.277 257.406 285.303C256.856 285.353 255.598 274.255 253.842 260.592C252.087 246.928 250.489 235.881 251.013 235.779L250.987 235.805Z" fill="#6B7665"/>
<path d="M322.699 264.655C322.909 265.163 313.319 269.176 302.524 275.88C291.703 282.585 283.161 288.452 282.821 287.995C282.664 287.791 284.629 286.115 287.956 283.576C291.31 281.061 296 277.684 301.502 274.331C312.454 267.525 322.542 264.223 322.699 264.655Z" fill="#6B7665"/>
</svg>
