<svg width="480" height="480" viewBox="0 0 480 480" fill="none" xmlns="http://www.w3.org/2000/svg">
<path d="M323.698 115.604C324.725 110.199 321.4 104.915 316.071 103.479C310.327 101.92 304.411 105.402 303.018 111.173C302.016 115.312 301.331 122.592 300.671 130.31L322.427 136.933L323.698 115.58V115.604Z" fill="white"/>
<path d="M322.427 136.933L300.671 130.31L297.787 160.162C297.249 165.64 301.282 170.364 306.758 171.118C306.831 171.118 306.88 171.118 306.954 171.143C313.016 172.068 318.736 168.05 319.885 162.036L322.427 136.909V136.933Z" fill="#FFBE9D"/>
<path d="M233.84 210.1L306.098 143.386C306.098 143.386 313.431 151.226 317.318 154.975C321.253 158.774 321.131 165.08 317.073 168.757L244.767 219.352L233.815 210.124L233.84 210.1Z" fill="#FFBE9D"/>
<path d="M242.933 227.972C255.473 217.819 244.791 200.336 229.978 206.789C217.438 216.942 228.12 234.424 242.933 227.972Z" fill="#FFBE9D"/>
<path d="M225.7 221.057C225.7 221.057 221.08 222.079 222.082 215.871C223.084 209.662 227.338 203.843 239.267 205.766L225.7 221.057Z" fill="#FFBE9D"/>
<path d="M362.467 53.4427L317.733 63.5473C317.733 63.5473 301.111 87.0191 309.715 120.595H383.88C383.88 120.595 389.942 107.082 376.522 88.3582C368.284 76.8658 362.467 53.4427 362.467 53.4427Z" fill="black"/>
<path d="M302.48 430.501L307.833 393.419L283.633 391.447L278.451 432.352L297.273 436.613L302.48 430.501Z" fill="#FFBE9D"/>
<path d="M304.167 428.895C304.167 428.895 285.198 436.223 276.618 423.879L238.851 446.547L309.642 447.545L304.191 428.895H304.167Z" fill="black"/>
<path d="M238.844 446.583L238.716 452.742L309.956 454.216L310.084 448.057L238.844 446.583Z" fill="white"/>
<path d="M333.232 280.296L313.749 403.183H275.078C277.303 385.043 288.865 293.445 293.778 264.129C306.88 186.214 315.24 167.49 315.24 167.49L344.354 162.28L347.58 166.955L322.403 167.734L333.232 280.321V280.296Z" fill="#3F443B"/>
<path d="M372.489 430.501L373.1 393.419L348.9 391.447L348.46 432.352L367.282 436.613L372.489 430.501Z" fill="#FFBE9D"/>
<path d="M374.175 428.895C374.175 428.895 355.207 436.223 346.627 423.879L308.86 446.547L379.651 447.545L374.2 428.895H374.175Z" fill="black"/>
<path d="M308.865 446.574L308.736 452.733L379.977 454.207L380.105 448.048L308.865 446.574Z" fill="white"/>
<path d="M347.58 166.93L358.825 166.59C358.825 166.59 378.014 186.969 379.016 224.685C379.676 249.837 381.069 366.514 380.36 403.183H340.589L333.231 280.296L322.402 167.71L347.58 166.93Z" fill="#3F443B"/>
<path fill-rule="evenodd" clip-rule="evenodd" d="M329.272 211.557L333.99 280.244L332.472 280.348L327.754 211.662L329.272 211.557Z" fill="#7F7F7F"/>
<path fill-rule="evenodd" clip-rule="evenodd" d="M318.147 206.048L328.829 210.917L328.198 212.302L317.516 207.432L318.147 206.048Z" fill="#7F7F7F"/>
<path d="M336.898 100.825L364.594 104.672C367.796 105.11 369.996 108.129 369.434 111.294L359.851 167.466H315.289L303.678 113.51C302.822 108.689 306.22 104.136 311.133 103.6L336.947 100.8L336.898 100.825Z" fill="white"/>
<path fill-rule="evenodd" clip-rule="evenodd" d="M304.984 120.669C305.307 120.593 305.629 120.794 305.704 121.117L308.32 132.341C308.395 132.664 308.195 132.987 307.872 133.062C307.549 133.137 307.227 132.936 307.151 132.614L304.536 121.389C304.461 121.066 304.661 120.744 304.984 120.669Z" fill="#DEDEDE"/>
<path d="M388.622 114.435L378.576 142.144C378.576 142.144 409.669 152.565 416.489 156.728C424.189 161.403 430.105 159.285 434.162 151.274C437.927 143.873 435.116 134.815 427.807 130.822L388.598 114.46L388.622 114.435Z" fill="#FFBE9D"/>
<path d="M369.189 106.303C362.613 102.699 354.376 104.745 350.245 111.002C345.796 117.747 343.865 127.486 350.758 131.698C355.696 134.718 378.576 142.144 378.576 142.144L388.622 114.435L369.189 106.327V106.303Z" fill="white"/>
<path fill-rule="evenodd" clip-rule="evenodd" d="M354.993 133.42C355.118 133.113 355.469 132.966 355.775 133.091L365.627 137.108C365.933 137.233 366.081 137.583 365.956 137.89C365.83 138.197 365.48 138.344 365.173 138.219L355.322 134.202C355.015 134.077 354.868 133.726 354.993 133.42Z" fill="#DEDEDE"/>
<path d="M375.203 193.616L413.043 136.86C417.443 130.992 425.876 129.97 431.547 134.62C437.292 139.319 436.925 149.57 431.84 154.975L386.789 201.87L375.227 193.592L375.203 193.616Z" fill="#FFBE9D"/>
<path d="M346.896 198.145L360.365 188.917L358.531 185.946C357.871 184.875 357.994 183.463 358.874 182.538C359.778 181.588 361.22 181.369 362.345 182.026L377.402 190.646L388.036 200.482C381.118 208.177 376.009 208.761 372.905 207.86C372.587 208.03 372.245 208.201 371.927 208.323L360.389 213.338C359.338 213.971 357.994 213.679 357.309 212.657C356.82 211.926 356.502 210.684 358.654 209.224L356.502 210.709C355.402 211.366 353.96 211.05 353.251 209.954C352.591 209.004 353.056 207.568 354.302 206.521L352.616 207.446C351.418 208.177 349.829 207.738 349.145 206.448C348.582 205.328 349.022 203.964 350.049 203.258L352.42 201.627L349.487 202.771C348.167 203.453 346.505 202.917 345.845 201.505C345.282 200.312 345.771 198.875 346.871 198.121L346.896 198.145Z" fill="#FFBE9D"/>
<path d="M335.92 35.7658C334.918 34.037 334.576 29.5326 334.576 29.5326C344.378 29.5326 354.473 33.9153 359.362 42.8511C366.525 55.9749 361.318 76.3058 344.451 82.4659C328.269 88.4069 336.873 37.4215 336.873 37.4215L335.92 35.7658Z" fill="black"/>
<path d="M323.282 85.6069L324.358 102.602C324.724 108.567 328.611 111.538 334.502 111.124C339.538 110.783 344.084 107.861 344.353 102.846L341.347 76.1841L323.258 85.6069H323.282Z" fill="#FFBE9D"/>
<path d="M324.015 99.7777L343.962 80.3233L323.135 83.8782L324.015 99.7777Z" fill="#FFBE9D"/>
<path d="M328.465 88.3583C318.393 88.3826 310.058 80.4937 309.765 72.2883L309.178 52.9557C308.811 42.6807 316.682 33.964 326.973 33.2579C334.722 32.7222 348.778 44.166 349.218 50.8131L349.536 66.3717C349.78 78.3998 340.54 87.5304 328.465 88.3583Z" fill="#FFBE9D"/>
<path d="M309.569 48.3295C309.153 38.225 318.027 31.9187 324.676 30.3117C330.2 28.9726 336.018 29.143 341.42 30.9448C347.849 33.0875 354.816 37.8841 350.073 48.4026C353.178 49.9365 355.94 51.6653 355.94 51.6653L344.353 65.4951C344.353 65.4951 343.522 61.6968 342.3 53.5644C336.262 51.1783 336.482 47.6721 335.847 43.8738C322.402 48.1348 309.544 48.3295 309.544 48.3295H309.569Z" fill="black"/>
<path d="M358.922 64.1316C359.215 68.4413 355.964 72.1666 351.638 72.4588C347.311 72.751 343.571 69.5126 343.278 65.203C342.984 60.8933 346.235 57.168 350.562 56.8758C354.889 56.5836 358.629 59.822 358.922 64.1316Z" fill="#FFBE9D"/>
<path fill-rule="evenodd" clip-rule="evenodd" d="M349.046 67.164C349.066 67.4474 348.852 67.693 348.569 67.7126C348.285 67.7322 348.04 67.5184 348.02 67.2351L348.533 67.1995C348.02 67.2351 348.02 67.2348 348.02 67.2345L348.02 67.2338L348.02 67.2321L348.02 67.2271L348.019 67.2109L348.016 67.1553C348.014 67.1081 348.013 67.0413 348.013 66.9578C348.013 66.791 348.019 66.5561 348.045 66.2769C348.097 65.7222 348.228 64.9742 348.55 64.2338C348.874 63.4905 349.398 62.739 350.241 62.2128C351.087 61.6846 352.207 61.4138 353.665 61.55C353.948 61.5764 354.156 61.827 354.13 62.1098C354.103 62.3926 353.853 62.6005 353.57 62.5741C352.291 62.4546 351.406 62.6982 350.785 63.0853C350.162 63.4745 349.757 64.0392 349.494 64.6442C349.229 65.2522 349.115 65.8845 349.07 66.3729C349.047 66.6153 349.041 66.8177 349.041 66.9578C349.041 67.0277 349.043 67.0818 349.044 67.1172L349.046 67.1558L349.046 67.1638L349.046 67.164Z" fill="black"/>
<path fill-rule="evenodd" clip-rule="evenodd" d="M320.557 66.6889C320.839 66.723 321.04 66.9792 321.006 67.2612L320.682 69.9443L322.787 70.0213C323.071 70.0317 323.293 70.2702 323.283 70.554C323.272 70.8379 323.034 71.0596 322.75 71.0492L320.085 70.9518C319.942 70.9465 319.807 70.8813 319.713 70.7719C319.62 70.6625 319.576 70.519 319.594 70.3762L319.985 67.1379C320.019 66.8559 320.275 66.6549 320.557 66.6889Z" fill="black"/>
<path d="M332.375 52.4931C332.375 52.4931 327.853 52.1279 327.804 53.954C327.804 53.954 327.804 55.1958 331.764 55.4393C335.7 55.6827 336.726 55.3906 337.093 54.2218C337.46 53.0531 334.502 52.4931 332.375 52.4688V52.4931Z" fill="black"/>
<path d="M314.164 52.9801C314.164 52.9801 317.904 52.5905 318.197 54.3192C318.197 54.3192 318.369 55.488 315.117 55.7558C311.842 56.0236 310.791 55.6097 310.473 54.6601C310.131 53.5888 312.404 53.0044 314.164 52.9801Z" fill="black"/>
<path d="M318.564 73.7736H330.249C330.249 73.7736 330.249 77.9615 324.407 77.6693C318.247 77.3771 318.564 73.7736 318.564 73.7736Z" fill="white"/>
<path fill-rule="evenodd" clip-rule="evenodd" d="M327.615 63.098L327.616 63.0973L327.63 63.0833C327.644 63.0697 327.667 63.048 327.698 63.0201C327.761 62.964 327.858 62.8835 327.985 62.7928C328.24 62.6108 328.612 62.3933 329.078 62.2489C329.984 61.9682 331.309 61.941 332.922 63.1548C333.149 63.3255 333.471 63.2799 333.642 63.0529C333.813 62.826 333.767 62.5035 333.54 62.3328C331.658 60.9169 329.989 60.8897 328.774 61.2664C328.179 61.4508 327.709 61.7263 327.388 61.9551C327.227 62.0699 327.101 62.1743 327.014 62.2518C326.971 62.2906 326.937 62.3228 326.912 62.3465L326.883 62.3753L326.874 62.3845L326.871 62.3877L326.87 62.3889L326.87 62.3895C326.869 62.3897 326.869 62.3899 327.242 62.7438L326.869 62.3899C326.674 62.596 326.682 62.9215 326.888 63.117C327.094 63.3123 327.42 63.3038 327.615 63.098ZM327.615 63.098L327.614 63.0993C327.614 63.0992 327.614 63.0991 327.614 63.0989L327.615 63.0984L327.615 63.098Z" fill="black"/>
<path fill-rule="evenodd" clip-rule="evenodd" d="M311.671 62.7438C311.269 62.4233 311.269 62.4231 311.269 62.4229L311.269 62.4223L311.27 62.4211L311.273 62.4181L311.28 62.4096L311.302 62.3836C311.32 62.3625 311.345 62.3339 311.378 62.2996C311.442 62.2312 311.534 62.1392 311.653 62.0378C311.888 61.8368 312.237 61.5893 312.682 61.4223C313.131 61.2536 313.678 61.1674 314.292 61.2953C314.905 61.4229 315.548 61.7563 316.202 62.3681C316.41 62.5621 316.421 62.8876 316.227 63.095C316.033 63.3025 315.707 63.3134 315.5 63.1194C314.956 62.6112 314.478 62.3846 314.082 62.3022C313.688 62.2201 313.34 62.2739 313.043 62.3852C312.743 62.4982 312.496 62.6707 312.321 62.8197C312.235 62.8933 312.17 62.9588 312.127 63.0042C312.106 63.0268 312.09 63.0441 312.081 63.0547L312.072 63.0652L312.073 63.065L312.073 63.0646" fill="black"/>
<path fill-rule="evenodd" clip-rule="evenodd" d="M323.478 64.5729H319.689V63.5443H323.478V64.5729Z" fill="black"/>
<path fill-rule="evenodd" clip-rule="evenodd" d="M344.29 61.7543L339.45 64.5057L338.941 63.6115L343.781 60.8601L344.29 61.7543Z" fill="black"/>
<path fill-rule="evenodd" clip-rule="evenodd" d="M331.373 56.6353C327.335 56.6353 324.065 59.8953 324.065 63.9125C324.065 67.9297 327.335 71.1897 331.373 71.1897C335.411 71.1897 338.681 67.9297 338.681 63.9125C338.681 59.8953 335.411 56.6353 331.373 56.6353ZM323.037 63.9125C323.037 59.3234 326.771 55.6067 331.373 55.6067C335.975 55.6067 339.71 59.3234 339.71 63.9125C339.71 68.5015 335.975 72.2182 331.373 72.2182C326.771 72.2182 323.037 68.5015 323.037 63.9125Z" fill="black"/>
<path fill-rule="evenodd" clip-rule="evenodd" d="M312.355 56.6353C308.58 56.6353 305.512 59.694 305.512 63.4499C305.512 67.2058 308.58 70.2644 312.355 70.2644C316.131 70.2644 319.199 67.2058 319.199 63.4499C319.199 59.694 316.131 56.6353 312.355 56.6353ZM304.483 63.4499C304.483 59.1221 308.016 55.6067 312.355 55.6067C316.695 55.6067 320.228 59.1221 320.228 63.4499C320.228 67.7776 316.695 71.293 312.355 71.293C308.016 71.293 304.483 67.7776 304.483 63.4499Z" fill="black"/>
<path d="M104.501 345.843L66.126 378.283L84.5052 399.854L122.88 367.415L104.501 345.843Z" fill="#FFBE9D"/>
<path d="M71.3573 368.486L95.6062 397.753C95.6062 397.753 89.6417 403.475 96.3395 413.555C103.037 423.635 102.377 432.766 96.3884 438.926L48.3062 380.88C48.3062 380.88 56.5439 374.914 71.3573 368.462V368.486Z" fill="#53584F"/>
<mask id="mask0_144_4797" style="mask-type:luminance" maskUnits="userSpaceOnUse" x="48" y="368" width="54" height="71">
<path d="M71.3573 368.486L95.6062 397.753C95.6062 397.753 89.6417 403.475 96.3395 413.555C103.037 423.635 102.377 432.766 96.3884 438.926L48.3062 380.88C48.3062 380.88 56.5439 374.914 71.3573 368.462V368.486Z" fill="white"/>
</mask>
<g mask="url(#mask0_144_4797)">
<path d="M104.113 420.178C104.113 420.178 95.4106 409.562 73.875 420.178L93.8461 444.307C93.8461 444.307 107.339 429.576 104.088 420.153L104.113 420.178Z" fill="white"/>
</g>
<path d="M96.4316 438.958L48.3403 380.91L44.1736 384.335L92.2649 442.383L96.4316 438.958Z" fill="white"/>
<path fill-rule="evenodd" clip-rule="evenodd" d="M85.2558 399.774C85.3497 399.377 85.748 399.131 86.1453 399.225C89.0883 399.92 90.9728 400.748 92.1389 401.423C92.7221 401.76 93.125 402.059 93.39 402.284C93.5225 402.396 93.6203 402.489 93.6887 402.559C93.723 402.594 93.7498 402.624 93.77 402.646L93.7952 402.675L93.8043 402.686L93.8079 402.691L93.8095 402.693L93.8102 402.694C93.8106 402.694 93.8109 402.694 93.2353 403.158L93.8109 402.694C94.0671 403.012 94.0171 403.478 93.6992 403.734C93.3838 403.988 92.9234 403.941 92.6659 403.63C92.6659 403.63 92.6659 403.63 92.6659 403.63C92.6643 403.628 92.6626 403.626 92.661 403.624M92.6643 403.628C92.6598 403.623 92.649 403.611 92.6312 403.593C92.5955 403.556 92.5318 403.494 92.4343 403.412C92.2395 403.247 91.9091 402.998 91.3983 402.702C90.3766 402.111 88.6312 401.332 85.8052 400.664C85.4079 400.57 85.1619 400.172 85.2558 399.774M92.6603 403.623C92.6603 403.623 92.6603 403.623 92.6603 403.623L92.6607 403.623C92.6606 403.623 92.6604 403.623 92.6603 403.623Z" fill="white"/>
<path fill-rule="evenodd" clip-rule="evenodd" d="M94.657 409.253C94.6572 409.254 94.6574 409.254 94.131 409.742L94.6574 409.254C94.9351 409.553 94.9176 410.021 94.6183 410.299C94.3193 410.576 93.8522 410.559 93.5744 410.26C93.5742 410.26 93.574 410.26 93.5739 410.26L93.5708 410.257L93.5512 410.236C93.5325 410.217 93.503 410.187 93.4628 410.148C93.3825 410.07 93.2602 409.955 93.0993 409.815C92.7769 409.537 92.303 409.163 91.7044 408.794C90.5016 408.052 88.8355 407.348 86.9011 407.403C86.4929 407.415 86.1526 407.094 86.1409 406.686C86.1293 406.277 86.4506 405.937 86.8588 405.925C89.1776 405.859 91.1293 406.702 92.481 407.536C93.1596 407.955 93.6971 408.377 94.0668 408.697C94.2519 408.858 94.3959 408.993 94.4952 409.09C94.545 409.138 94.5836 409.177 94.6107 409.205L94.6428 409.238L94.6523 409.248L94.6554 409.252L94.6566 409.253L94.657 409.253Z" fill="white"/>
<path d="M151.658 215.871C151.658 215.871 153.491 258.334 150.264 283.023L82.2842 355.362L106.411 387.965C106.411 387.965 170.822 339.244 182.482 318.523C194.166 297.803 186.222 262.352 186.222 262.352L151.633 215.871H151.658Z" fill="#3F443B"/>
<path d="M213.139 382.584L184.739 383.093L185.644 433.218L214.044 432.709L213.139 382.584Z" fill="#FFBE9D"/>
<path d="M181.309 422.978L219.418 422.832C219.418 422.832 220.078 431.062 232.153 432.255C244.229 433.472 250.902 439.778 251.905 448.3L176.347 448.617C176.347 448.617 176.933 438.488 181.309 422.978Z" fill="#53584F"/>
<mask id="mask1_144_4797" style="mask-type:luminance" maskUnits="userSpaceOnUse" x="176" y="422" width="76" height="27">
<path d="M181.309 422.978L219.418 422.832C219.418 422.832 220.078 431.062 232.153 432.255C244.229 433.472 250.902 439.778 251.905 448.3L176.347 448.617C176.347 448.617 176.933 438.488 181.309 422.978Z" fill="white"/>
</mask>
<g mask="url(#mask1_144_4797)">
<path d="M242.224 430.477C242.224 430.477 228.462 430.477 223.084 453.803L254.471 453.681C254.471 453.681 251.562 433.959 242.2 430.477H242.224Z" fill="white"/>
</g>
<path d="M251.852 448.318L176.295 448.62L176.317 454.001L251.874 453.699L251.852 448.318Z" fill="white"/>
<path fill-rule="evenodd" clip-rule="evenodd" d="M222.082 428.067C222.082 428.806 222.082 428.806 222.083 428.806L222.084 428.806L222.086 428.806L222.089 428.806L222.092 428.806C222.093 428.806 222.092 428.806 222.088 428.806C222.081 428.806 222.065 428.807 222.04 428.81C221.988 428.814 221.9 428.825 221.774 428.849C221.522 428.896 221.119 428.995 220.566 429.203C219.46 429.619 217.749 430.47 215.438 432.212C215.112 432.458 214.648 432.393 214.402 432.066C214.157 431.74 214.222 431.277 214.548 431.031C216.954 429.218 218.788 428.292 220.046 427.819C220.676 427.582 221.161 427.459 221.501 427.396C221.671 427.364 221.805 427.347 221.902 427.338C221.95 427.333 221.989 427.33 222.019 427.329L222.057 427.328L222.071 427.327L222.077 427.327L222.079 427.327L222.081 427.327C222.081 427.327 222.082 427.327 222.082 428.067Z" fill="white"/>
<path fill-rule="evenodd" clip-rule="evenodd" d="M227.795 432.311C227.795 432.311 227.794 432.311 227.794 432.311L227.753 431.574C227.794 432.311 227.794 432.311 227.794 432.311L227.79 432.311L227.762 432.313C227.735 432.315 227.694 432.319 227.638 432.325C227.527 432.337 227.36 432.358 227.151 432.393C226.731 432.463 226.142 432.591 225.477 432.817C224.14 433.273 222.537 434.113 221.347 435.653C221.097 435.976 220.633 436.035 220.31 435.786C219.987 435.536 219.927 435.072 220.177 434.749C221.602 432.904 223.495 431.93 225 431.418C225.755 431.161 226.424 431.016 226.906 430.935C227.148 430.894 227.343 430.869 227.482 430.855C227.551 430.847 227.605 430.843 227.644 430.839L227.69 430.836L227.704 430.835L227.709 430.835L227.711 430.835L227.711 430.835C227.712 430.835 227.712 430.835 227.751 431.536L227.712 430.835C228.119 430.812 228.468 431.124 228.491 431.532C228.514 431.939 228.202 432.288 227.795 432.311Z" fill="white"/>
<path d="M150.191 176.694C149.629 176.572 132.371 190.207 164.173 275.11C170.211 291.253 170.773 308.37 173.046 325.438L179.915 412.727L216.509 410.658L214.211 299.848L204.164 183.025L150.215 176.67L150.191 176.694Z" fill="#3F443B"/>
<path fill-rule="evenodd" clip-rule="evenodd" d="M152.169 241.655C152.169 241.655 152.169 241.655 152.904 241.388C153.639 241.121 153.639 241.121 153.64 241.122L153.652 241.157L153.69 241.261C153.723 241.353 153.772 241.49 153.836 241.67C153.963 242.03 154.151 242.562 154.39 243.254C154.869 244.637 155.556 246.659 156.391 249.213C158.061 254.322 160.321 261.563 162.684 270.099C167.407 287.162 172.549 309.429 174.193 330.173L172.633 330.297C171.001 309.697 165.889 287.541 161.176 270.516C158.821 262.008 156.568 254.79 154.905 249.699C154.073 247.154 153.388 245.141 152.912 243.766C152.674 243.078 152.488 242.549 152.361 242.193C152.298 242.015 152.25 241.88 152.217 241.789L152.181 241.688L152.169 241.655Z" fill="#7B8675"/>
<path d="M213.404 101.482L243.569 146.405C249.582 155.268 249.753 166.59 240.342 171.751C231.933 176.378 221.373 173.724 216.167 165.664L184.78 123.469C179.207 114.825 180.649 101.019 189.595 95.9306C197.76 91.3044 208.124 93.6905 213.38 101.433L213.404 101.482Z" fill="#6B7665"/>
<path d="M292.409 147.914L228.511 144.944C219.638 144.408 215.409 151.421 215.824 160.283C216.191 168.489 223.133 174.844 231.371 174.527L273.513 173.48L292.238 156.047L292.409 147.939V147.914Z" fill="#6B7665"/>
<path d="M292.36 150.812L298.764 150.179L292.238 156.022L292.36 150.812Z" fill="#FFBE9D"/>
<path d="M218.122 118.258C218.855 109.298 214.895 100.557 207.586 95.2975C201.915 91.2314 192.553 91.1096 186.784 90.647C186.784 90.647 188.177 88.1148 179.133 89.1374C168.72 90.3305 156.229 94.981 150.044 103.406C145.449 109.687 142.931 117.211 142.809 124.978L129.486 208.177C129.486 208.177 151.389 231.429 209.518 204.378L218.122 118.258Z" fill="#6B7665"/>
<path fill-rule="evenodd" clip-rule="evenodd" d="M214.781 153.044C214.62 156.935 214.487 160.174 214.494 162.351L212.951 162.355C212.944 160.159 213.08 156.856 213.241 152.919C213.376 149.638 213.529 145.918 213.632 142.032C213.861 133.436 213.853 123.965 212.908 116.332L214.439 116.142C215.4 123.898 215.404 133.467 215.175 142.073C215.069 146.028 214.915 149.767 214.781 153.044Z" fill="#3F443B"/>
<path d="M226.775 229.457C220.078 227.631 216.118 220.74 217.951 214.069C219.784 207.397 226.702 203.453 233.4 205.279C240.098 207.105 244.058 213.996 242.224 220.667C240.391 227.339 233.473 231.283 226.775 229.457Z" fill="#FFBE9D"/>
<path d="M240.831 210.904C240.831 210.904 243.911 206.083 237.702 203.867C231.493 201.651 222.229 202.211 217.951 214.093L240.831 210.904Z" fill="#FFBE9D"/>
<path d="M227.264 202.357L164.051 166.565C156.4 162.061 149.433 166.395 145.742 174.454C142.32 181.929 145.595 190.743 153.075 194.176L215.335 224.441L227.24 202.333L227.264 202.357Z" fill="#6B7665"/>
<path d="M183.167 116.87L175.711 173.31C174.098 183.877 166.495 192.301 156.058 189.745C146.744 187.456 140.78 178.35 142.467 168.927L147.16 113.656C148.944 103.552 159.431 94.3966 169.453 96.7097C178.595 98.828 184.584 107.593 183.167 116.846V116.87Z" fill="#6B7665"/>
<path fill-rule="evenodd" clip-rule="evenodd" d="M176.53 172.885L181.343 125.616L179.808 125.46L174.892 173.735L208.358 192.512L209.113 191.166L176.53 172.885Z" fill="#3F443B"/>
<path fill-rule="evenodd" clip-rule="evenodd" d="M141.699 169.483L143.972 146.693L145.507 146.847L143.235 169.631C142.384 179.76 147.742 189.422 156.804 194.149C156.805 194.149 156.805 194.149 156.805 194.15L189.266 210.949L188.556 212.319L156.094 195.519L156.092 195.518C146.481 190.506 140.791 180.254 141.698 169.495L141.699 169.483L141.699 169.483Z" fill="#3F443B"/>
<path d="M170.309 50.3748C170.309 50.3748 157.402 27.3899 174.978 26.0751C185.464 25.296 188.691 22.2524 201.72 18.6976C216.778 14.6071 235.845 32.4057 212.891 47.1365L179.329 37.3728L170.284 50.3748H170.309Z" fill="black"/>
<path d="M200.547 57.3384C200.229 61.6968 203.529 65.4708 207.904 65.7873C212.28 66.1038 216.069 62.8168 216.387 58.4584C216.704 54.1001 213.404 50.3261 209.029 50.0096C204.653 49.693 200.864 52.9801 200.547 57.3384Z" fill="#D8968F"/>
<path d="M200.033 66.3473L198.591 92.254C198.127 99.5342 193.091 99.729 185.904 99.2176C179.769 98.7794 176.811 96.3689 176.469 90.2331L179.427 62.7925L200.058 66.323L200.033 66.3473Z" fill="#FFBE9D"/>
<path d="M198.738 89.5757L182.531 76.1841L199.716 72.5562L198.738 89.5757Z" fill="#D8968F"/>
<path d="M190.964 80.3233L192.504 80.4207C202.991 81.1511 211.986 73.0918 212.378 62.6464L213.086 43.6547C213.478 33.2579 205.509 24.4195 195.071 23.689C184.389 22.9342 173.266 30.8231 172.509 41.4633L172.142 59.822C171.922 70.5596 180.209 79.5928 190.964 80.3476V80.3233Z" fill="#FFBE9D"/>
<path fill-rule="evenodd" clip-rule="evenodd" d="M201.837 55.1849C202.125 55.1549 202.383 55.3644 202.413 55.6528L203.171 62.9329C203.187 63.0878 203.134 63.2418 203.025 63.3534C202.916 63.465 202.764 63.5226 202.609 63.5107L200.066 63.316C199.777 63.2938 199.561 63.0415 199.583 62.7524C199.605 62.4633 199.858 62.2469 200.147 62.269L202.061 62.4157L201.369 55.7615C201.339 55.4731 201.548 55.2149 201.837 55.1849Z" fill="black"/>
<path d="M192.504 46.5765C192.504 46.5765 196.807 46.3817 196.782 48.1591C196.782 48.1591 196.733 49.3522 192.969 49.4739C189.204 49.5713 188.251 49.2548 187.958 48.1104C187.664 46.966 190.476 46.5278 192.504 46.5765Z" fill="black"/>
<path d="M208.882 47.6234C208.882 47.6234 205.338 47.1121 204.996 48.7678C204.996 48.7678 204.776 49.8878 207.88 50.2531C210.984 50.6183 212.011 50.2531 212.329 49.3522C212.696 48.3295 210.569 47.6965 208.882 47.5991V47.6234Z" fill="black"/>
<path d="M202.869 66.323L190.891 65.4951C190.891 65.4951 190.573 69.6587 197.515 70.17C202.135 70.4866 202.844 66.3473 202.844 66.3473L202.869 66.323Z" fill="white"/>
<path fill-rule="evenodd" clip-rule="evenodd" d="M195.945 54.8657C195.945 54.8659 195.946 54.8661 195.609 55.2688L195.946 54.8661C196.168 55.0521 196.198 55.3832 196.012 55.6056C195.826 55.8274 195.496 55.8574 195.274 55.6732L195.274 55.6732C195.274 55.6734 195.274 55.6735 195.274 55.6733M195.274 55.6732L195.274 55.6728L195.264 55.6654C195.254 55.6577 195.237 55.6447 195.213 55.6277C195.165 55.5935 195.09 55.5429 194.99 55.4844C194.788 55.3673 194.489 55.2204 194.106 55.1096C193.349 54.8903 192.25 54.8065 190.91 55.407C190.646 55.5256 190.335 55.4073 190.216 55.1427C190.098 54.8781 190.216 54.5675 190.481 54.4489C192.074 53.7346 193.432 53.8212 194.398 54.101C194.877 54.2398 195.256 54.4246 195.518 54.5769C195.649 54.6531 195.751 54.7216 195.823 54.7728C195.859 54.7985 195.887 54.8198 195.908 54.8357L195.933 54.8554L195.941 54.8619L195.944 54.8643L195.945 54.8653L195.945 54.8657" fill="black"/>
<path fill-rule="evenodd" clip-rule="evenodd" d="M210.368 55.94C210.369 55.9403 210.369 55.9406 209.969 56.2581L210.369 55.9406C210.549 56.1677 210.511 56.4979 210.284 56.6782C210.059 56.8573 209.731 56.8212 209.55 56.5982C209.55 56.5982 209.55 56.5982 209.55 56.5982C209.55 56.5982 209.55 56.5982 209.55 56.5982C209.55 56.5977 209.549 56.5968 209.548 56.5955C209.544 56.5907 209.535 56.5809 209.521 56.5671C209.494 56.5394 209.449 56.4961 209.384 56.4453C209.255 56.3436 209.052 56.2128 208.771 56.1147C208.221 55.9234 207.304 55.8328 205.947 56.4525C205.683 56.5729 205.372 56.4567 205.251 56.193C205.131 55.9292 205.247 55.6178 205.511 55.4974C207.087 54.7779 208.284 54.8334 209.116 55.123C209.525 55.2654 209.829 55.4587 210.035 55.621C210.137 55.7022 210.216 55.7759 210.271 55.8322C210.299 55.8603 210.321 55.8843 210.337 55.9027L210.357 55.9262L210.364 55.9346L210.367 55.9379L210.368 55.9393L210.368 55.94Z" fill="black"/>
<path d="M175.002 55.6097C175.002 55.6097 187.713 48.7435 184.12 37.5919C184.12 37.5919 204.506 29.4839 212.891 40.0024L216.215 27.5604L201.084 20.2072L176.029 28.0961L169.086 37.0319L170.358 49.2548L175.051 55.6341L175.002 55.6097Z" fill="black"/>
<path d="M162.047 54.6358C161.729 58.9941 165.029 62.7681 169.404 63.0846C173.78 63.4012 177.569 60.1141 177.887 55.7558C178.204 51.3974 174.904 47.6234 170.529 47.3069C166.153 46.9904 162.364 50.2774 162.047 54.6358Z" fill="#FFBE9D"/>
<path fill-rule="evenodd" clip-rule="evenodd" d="M173.106 57.7632C173.106 57.7635 173.106 57.7638 172.582 57.728L173.106 57.7638C173.086 58.0531 172.836 58.2715 172.546 58.2518C172.257 58.232 172.039 57.9817 172.058 57.6926C172.058 57.6925 172.058 57.6923 172.058 57.6922L172.058 57.692L172.059 57.6839L172.061 57.6449C172.062 57.6091 172.063 57.5544 172.063 57.4836C172.063 57.3418 172.057 57.1369 172.034 56.8914C171.987 56.3969 171.871 55.7566 171.603 55.1408C171.336 54.528 170.925 53.9558 170.293 53.5611C169.665 53.1685 168.768 52.9209 167.473 53.0402C167.184 53.0668 166.928 52.8543 166.902 52.5656C166.875 52.2769 167.088 52.0213 167.376 51.9947C168.855 51.8584 169.991 52.1342 170.849 52.6706C171.705 53.205 172.237 53.9674 172.565 54.7211C172.893 55.4719 173.026 56.2302 173.079 56.7925C173.106 57.0754 173.113 57.3135 173.113 57.4826C173.113 57.5673 173.112 57.635 173.11 57.6828L173.107 57.7393L173.107 57.7557L173.106 57.7608L173.106 57.7626L173.106 57.7632Z" fill="black"/>
<path d="M181.504 88.9183C181.504 88.9183 179.524 87.7739 172.411 90.3305C172.411 90.3305 176.396 103.625 193.018 102.967C199.911 102.699 201.891 97.4159 201.818 92.4488C201.818 92.3514 201.818 92.5462 201.818 92.4488C201.818 92.4488 196.391 89.1374 185.904 88.6748L181.529 88.9183H181.504Z" fill="#FFBE9D"/>
</svg>
