<svg width="329" height="378" viewBox="0 0 329 378" fill="none" xmlns="http://www.w3.org/2000/svg">
<g clip-path="url(#clip0_144_4108)">
<path d="M128.957 102.386L135.771 159.257C137.186 170.507 131.893 181.286 120.557 181.671C110.421 182.014 101.764 174.45 100.736 164.357L91.4786 109.5C90.3858 98.6786 98.3572 86.3357 109.221 85.8C119.121 85.3286 127.714 92.55 128.957 102.386Z" fill="black"/>
<path d="M124.136 106.521C124.929 97.0286 120.75 87.7714 113.014 82.2C107.036 77.8928 97.1358 77.7643 91.0715 77.2714C91.0715 77.2714 92.5501 74.5714 82.993 75.6643C72.0001 76.9071 58.8215 81.8571 52.3073 90.7928C47.4644 97.4357 44.8073 105.429 44.6787 113.636L39.043 176.657C39.043 176.657 83.1215 189.321 124.243 187.607L124.157 106.521H124.136Z" fill="black"/>
<path fill-rule="evenodd" clip-rule="evenodd" d="M120.721 143.248C120.549 147.437 120.406 150.921 120.418 153.252L118.554 153.262C118.542 150.904 118.688 147.339 118.861 143.093C119.002 139.657 119.161 135.775 119.269 131.726C119.513 122.617 119.505 112.584 118.497 104.494L120.347 104.263C121.374 112.502 121.377 122.655 121.133 131.776C121.022 135.909 120.862 139.815 120.721 143.248Z" fill="#FFBE9D"/>
<path d="M73.6717 34.6286C73.6717 34.6286 60.0646 10.2643 78.6003 8.87142C89.6789 8.03571 93.086 4.82142 106.822 1.07142C122.722 -3.27858 142.843 15.6 118.629 31.2L83.2075 20.85L73.6503 34.6286H73.6717Z" fill="black"/>
<path d="M105.6 41.9786C105.279 46.6071 108.75 50.6143 113.379 50.9357C118.007 51.2571 122.015 47.7857 122.336 43.1571C122.657 38.5286 119.186 34.5214 114.557 34.2C109.929 33.8786 105.922 37.35 105.6 41.9786Z" fill="#E49C77"/>
<path d="M105.043 51.5357L103.522 78.9857C103.05 86.7 97.7146 86.9143 90.1288 86.3786C83.6574 85.9286 80.5288 83.3571 80.1646 76.8643L83.2717 47.7857L105.043 51.5357Z" fill="#FFBE9D"/>
<path d="M103.672 76.1571L86.5718 61.9714L104.7 58.1143L103.672 76.1571Z" fill="#E49C77"/>
<path d="M95.4857 66.3428L97.1143 66.45C108.171 67.2214 117.686 58.6928 118.093 47.6143L118.843 27.4928C119.25 16.4786 110.85 7.11428 99.8357 6.34285C88.5643 5.54999 76.8214 13.9071 76.0286 25.1786L75.6428 44.6143C75.4071 55.9928 84.15 65.55 95.5071 66.3643L95.4857 66.3428Z" fill="#FFBE9D"/>
<path fill-rule="evenodd" clip-rule="evenodd" d="M106.95 39.614C107.297 39.5784 107.608 39.8311 107.643 40.1784L108.436 47.9141C108.455 48.0999 108.391 48.2847 108.261 48.4187C108.131 48.5528 107.948 48.6225 107.762 48.6091L105.083 48.4162C104.735 48.3911 104.473 48.0885 104.498 47.7403C104.523 47.3921 104.826 47.1301 105.174 47.1552L107.102 47.294L106.386 40.3073C106.35 39.96 106.603 39.6496 106.95 39.614Z" fill="black"/>
<path d="M95.6357 55.3928L108.3 55.6286C108.3 55.6286 108.407 51.1928 101.057 51.0643C96.1715 50.9786 95.6357 55.4143 95.6357 55.4143V55.3928Z" fill="white"/>
<path d="M78.6218 40.1571C78.6218 40.1571 92.0361 32.8929 88.2432 21.0857C88.2432 21.0857 109.757 12.5143 118.586 23.6357L122.079 10.4357L106.115 2.63571L79.6503 10.9929L72.3218 20.4429L73.6503 33.4071L78.6003 40.1571H78.6218Z" fill="black"/>
<path d="M64.9503 39.1286C64.6289 43.7571 68.1003 47.7643 72.7289 48.0857C77.3575 48.4071 81.3646 44.9357 81.686 40.3071C82.0075 35.6786 78.536 31.6714 73.9075 31.35C69.2789 31.0286 65.2718 34.5 64.9503 39.1286Z" fill="#FFBE9D"/>
<path fill-rule="evenodd" clip-rule="evenodd" d="M76.7022 42.451C76.7022 42.4514 76.7022 42.4517 76.0716 42.4071L76.7022 42.451C76.6776 42.7993 76.3753 43.0623 76.0271 43.0377C75.6791 43.0131 75.4168 42.7112 75.441 42.3633C75.441 42.3634 75.441 42.3632 75.441 42.3633L75.4415 42.3549L75.4433 42.3148C75.4448 42.2778 75.4463 42.2207 75.4464 42.1467C75.4467 41.9984 75.4411 41.7836 75.4174 41.5263C75.3696 41.0071 75.25 40.3377 74.972 39.696C74.6955 39.0579 74.2716 38.4674 73.6216 38.0617C72.9754 37.6585 72.0459 37.4005 70.6885 37.5293C70.3409 37.5623 70.0324 37.3073 69.9995 36.9597C69.9665 36.6121 70.2215 36.3036 70.5691 36.2707C72.1473 36.1209 73.3661 36.412 74.2909 36.9891C75.2118 37.5638 75.7817 38.3849 76.132 39.1933C76.4807 39.998 76.621 40.8098 76.6763 41.4103C76.7042 41.7128 76.711 41.9674 76.7107 42.1486C76.7106 42.2393 76.7087 42.312 76.7067 42.3635L76.7039 42.4245L76.7028 42.4425L76.7024 42.4482L76.7022 42.451Z" fill="black"/>
<path d="M85.4999 75.45C85.4999 75.45 83.3999 74.2286 75.8999 76.95C75.8999 76.95 80.0999 91.0286 97.6499 90.3214C104.914 90.0214 107.014 84.45 106.95 79.1786C106.928 79.2643 106.95 79.0929 106.95 79.1786C106.95 79.1786 101.228 75.6643 90.1499 75.1929L85.5213 75.4714L85.4999 75.45Z" fill="#FFBE9D"/>
<path fill-rule="evenodd" clip-rule="evenodd" d="M102.088 31.949C102.372 32.1513 102.439 32.546 102.237 32.8305C100.573 35.171 98.5645 36.0185 96.9539 36.2608C96.1567 36.3808 95.4656 36.3517 94.9712 36.2921C94.7235 36.2623 94.5237 36.2246 94.3826 36.1935C94.312 36.1779 94.2559 36.1639 94.2158 36.1533L94.1676 36.1401L94.1527 36.1358L94.1477 36.1343L94.1457 36.1337L94.1449 36.1334C94.1445 36.1333 94.1442 36.1332 94.3286 35.5286L94.1442 36.1332C93.8102 36.0314 93.6221 35.6781 93.724 35.3442C93.8256 35.0109 94.1775 34.8229 94.5108 34.9233L94.5144 34.9243L94.5392 34.9311C94.5633 34.9375 94.6024 34.9473 94.6551 34.9589C94.7605 34.9822 94.9197 35.0125 95.1224 35.0369C95.5287 35.0858 96.1032 35.1103 96.7658 35.0106C98.0748 34.8136 99.7626 34.129 101.206 32.0981C101.408 31.8135 101.803 31.7468 102.088 31.949Z" fill="black"/>
<path fill-rule="evenodd" clip-rule="evenodd" d="M111.469 33.0666C111.4 32.7255 111.068 32.5047 110.726 32.573C110.384 32.6414 110.162 32.9745 110.23 33.3168L110.85 33.1928C110.23 33.3168 110.23 33.3172 110.23 33.3176L110.23 33.3184L110.231 33.3204L110.232 33.3256L110.235 33.3407L110.246 33.3894C110.256 33.4298 110.27 33.4859 110.29 33.5554C110.33 33.6945 110.391 33.8883 110.482 34.1206C110.664 34.5842 110.966 35.2066 111.451 35.8518C112.429 37.1552 114.13 38.5217 116.986 38.8773C117.333 38.9204 117.648 38.6745 117.692 38.3281C117.735 37.9816 117.489 37.6658 117.142 37.6227C114.663 37.3139 113.257 36.1519 112.462 35.0928C112.059 34.5567 111.809 34.0394 111.659 33.6586C111.585 33.4687 111.536 33.3142 111.506 33.2104C111.492 33.1585 111.482 33.1195 111.476 33.0952L111.47 33.0702L111.469 33.0666Z" fill="black"/>
<path d="M100.35 41.6143C100.894 41.6143 101.336 41.173 101.336 40.6286C101.336 40.0842 100.894 39.6429 100.35 39.6429C99.8056 39.6429 99.3643 40.0842 99.3643 40.6286C99.3643 41.173 99.8056 41.6143 100.35 41.6143Z" fill="black"/>
<path d="M112.436 42.6C112.98 42.6 113.422 42.1587 113.422 41.6143C113.422 41.0699 112.98 40.6286 112.436 40.6286C111.892 40.6286 111.45 41.0699 111.45 41.6143C111.45 42.1587 111.892 42.6 112.436 42.6Z" fill="black"/>
<path d="M88.3502 32.9571C88.3502 32.9571 84.2144 37.1143 87.0859 38.3571C88.9716 39.1714 89.2502 35.1857 88.3502 32.9571Z" fill="white"/>
<path d="M83.9786 45.5143C83.9786 45.5143 79.8429 49.6714 82.7143 50.9143C84.6 51.7286 84.8786 47.7429 83.9786 45.5143Z" fill="white"/>
<path d="M145.822 377.979C220.948 377.979 281.85 317.076 281.85 241.95C281.85 166.823 220.948 105.921 145.822 105.921C70.695 105.921 9.79297 166.823 9.79297 241.95C9.79297 317.076 70.695 377.979 145.822 377.979Z" fill="#D9EDCB"/>
<path d="M219.171 153.857H74.8714C69.5577 153.857 65.25 158.165 65.25 163.479V322.329C65.25 327.642 69.5577 331.95 74.8714 331.95H219.171C224.485 331.95 228.793 327.642 228.793 322.329V163.479C228.793 158.165 224.485 153.857 219.171 153.857Z" fill="#7B8675"/>
<path fill-rule="evenodd" clip-rule="evenodd" d="M74.8712 154.489C69.9066 154.489 65.882 158.514 65.882 163.479V322.329C65.882 327.293 69.9066 331.318 74.8712 331.318H219.171C224.136 331.318 228.161 327.293 228.161 322.329V163.479C228.161 158.514 224.136 154.489 219.171 154.489H74.8712ZM64.6177 163.479C64.6177 157.816 69.2084 153.225 74.8712 153.225H219.171C224.834 153.225 229.425 157.816 229.425 163.479V322.329C229.425 327.991 224.834 332.582 219.171 332.582H74.8712C69.2084 332.582 64.6177 327.991 64.6177 322.329V163.479Z" fill="white"/>
<path d="M191.507 160.307H72.1929V326.871H221.85V184.286L191.507 160.307Z" fill="white"/>
<path d="M191.507 160.307L221.85 184.286V160.307H191.507Z" fill="#6B7665"/>
<path d="M191.507 160.307L221.85 184.286L195.75 190.8L191.507 160.307Z" fill="#44513C"/>
<path d="M106.886 178.2C106.886 181.329 104.357 183.857 101.228 183.857C98.0999 183.857 95.5713 181.329 95.5713 178.2C95.5713 175.071 98.0999 172.543 101.228 172.543C104.357 172.543 106.886 175.071 106.886 178.2Z" fill="#7B8675"/>
<path d="M85.9927 199.564C85.9927 199.564 100.778 170.464 117.407 199.564H85.9927Z" fill="#7B8675"/>
<path d="M181.264 183.171H128.507V187.329H181.264V183.171Z" fill="#7B8675"/>
<path d="M128.507 195.643V191.486H191.378V195.643" fill="#7B8675"/>
<path d="M188.228 311.379H91.0068V316.929H188.228V311.379Z" fill="#7B8675"/>
<path d="M206.614 322.457H91.0068V328.007H206.614V322.457Z" fill="#7B8675"/>
<path d="M186.236 301.671H103.629C95.0571 301.671 88.1143 296.4 88.1143 289.886V220.607C88.1143 214.093 95.0571 208.821 103.629 208.821H186.236C194.807 208.821 201.75 214.093 201.75 220.607V289.886C201.75 296.4 194.807 301.671 186.236 301.671Z" fill="#7B8675"/>
<path d="M152.764 172.929C152.764 172.929 144.235 204.857 149.143 227.721C154.05 250.564 158.7 279.771 158.7 279.771C158.7 279.771 155.185 281.207 159.985 292.586C164.785 303.964 171.578 302.743 175.307 291.064C179.035 279.386 171.75 274.157 171.75 274.157C171.75 274.157 161.785 230.636 162.964 226.35C164.143 222.064 170.507 177.514 170.507 177.514C170.507 177.514 161.185 166.05 152.764 172.95V172.929Z" fill="#FFBE9D"/>
<path d="M253.907 375.064L246.428 279.664C246.428 279.664 244.435 233.164 226.178 213.707L179.185 212.614C179.185 212.614 168.278 227.229 163.928 263.593C162.042 279.45 163.114 328.029 164.742 375.043H201.3L198.428 266.464L213.707 375.021H253.907V375.064Z" fill="#44513C"/>
<path fill-rule="evenodd" clip-rule="evenodd" d="M186.426 260.766L199.155 266.509L198.344 268.306L185.616 262.563L186.426 260.766Z" fill="#7B8675"/>
<path d="M177.428 136.329C177.428 136.329 163.328 135.321 152.507 155.807L143.207 178.264L178.95 191.293L177.428 136.329Z" fill="#6B7665"/>
<path d="M193.285 133.136L172.95 137.229C172.95 137.229 164.85 158.143 169.457 178.543L179.185 212.636L226.178 213.729L241.457 158.036L242.935 140.421L213.514 131.743L193.285 133.157V133.136Z" fill="#6B7665"/>
<path fill-rule="evenodd" clip-rule="evenodd" d="M172.922 187.275C172.922 187.275 172.922 187.275 172.028 187.607C171.134 187.94 171.134 187.939 171.134 187.939L171.133 187.935L171.129 187.924L171.115 187.887C171.104 187.855 171.087 187.808 171.066 187.748C171.024 187.627 170.963 187.45 170.889 187.221C170.739 186.763 170.533 186.095 170.302 185.247C169.839 183.551 169.273 181.13 168.858 178.214C168.029 172.39 167.794 164.547 170.216 156.559L172.041 157.112C169.726 164.746 169.941 172.289 170.746 177.945C171.148 180.769 171.696 183.112 172.142 184.745C172.364 185.561 172.561 186.199 172.702 186.63C172.772 186.846 172.828 187.01 172.866 187.119C172.885 187.173 172.9 187.213 172.909 187.239L172.919 187.268L172.922 187.275Z" fill="#3F443B"/>
<path d="M171.428 217.586L236.743 203.079L245.721 225.793C245.721 225.793 194.25 236.507 172.885 231.836L171.428 217.586Z" fill="#FFBE9D"/>
<path d="M225.278 172.714L226.007 214.393C226.414 219.943 234.15 227.164 239.635 226.329C244.435 225.6 249.321 222.879 249.107 218.036L249.493 176.571L225.257 172.736L225.278 172.714Z" fill="#FFBE9D"/>
<path d="M242.935 140.4C242.935 140.4 254.035 143.4 253.907 160.886L256.65 191.657L226.071 188.507L220.971 156L242.957 140.4H242.935Z" fill="#6B7665"/>
<path fill-rule="evenodd" clip-rule="evenodd" d="M225.436 166.196L227.022 188.439L225.12 188.575L223.534 166.332L225.436 166.196Z" fill="#3F443B"/>
<path d="M210.921 55.3286C210.921 55.3286 183.728 50.5286 173.636 82.3928C163.543 114.257 171 123.429 200.828 119.293H219.686C219.686 119.293 239.593 122.871 243.536 113.271C243.536 113.271 250.8 102.429 239.378 78.6643C227.957 54.9 210.921 55.3286 210.921 55.3286Z" fill="black"/>
<path d="M192.557 95.0571C192.707 99.2786 189.385 102.836 185.164 102.964C180.943 103.114 177.385 99.7929 177.257 95.5714C177.107 91.35 180.428 87.7929 184.65 87.6643C188.871 87.5143 192.428 90.8357 192.557 95.0571Z" fill="#FFBE9D"/>
<path d="M194.914 112.393L192.536 136.264L216.429 135.279L214.757 112.393H194.914Z" fill="#FFBE9D"/>
<path d="M193.414 127.5L210.985 116.229C211.821 115.671 207.343 111.643 206.357 111.557L194.55 115.671L193.435 127.479L193.414 127.5Z" fill="#FFBE9D"/>
<path d="M200.442 119.4C189.6 119.057 180.942 110.186 180.942 101.336L181.05 80.4214C181.05 69.3214 189.835 60.1928 200.935 59.8285C212.292 59.4428 223.821 68.2714 224.207 79.65L223.95 96.4714C223.735 109.479 213.45 118.993 200.442 119.421V119.4Z" fill="#FFBE9D"/>
<path fill-rule="evenodd" clip-rule="evenodd" d="M192.614 98.7917C192.894 98.8349 193.087 99.0975 193.044 99.3782L192.657 101.891L194.78 102.044C195.063 102.065 195.276 102.311 195.256 102.594C195.235 102.877 194.989 103.091 194.706 103.07L192.027 102.877C191.884 102.867 191.752 102.797 191.662 102.685C191.572 102.573 191.534 102.428 191.556 102.286L192.027 99.2218C192.07 98.9411 192.333 98.7485 192.614 98.7917Z" fill="black"/>
<path d="M189.15 93.9214C189.15 94.9714 188.293 95.8286 187.221 95.8286C186.171 95.8286 185.314 94.9714 185.314 93.9C185.314 92.8286 186.171 91.9929 187.243 91.9929C188.293 91.9929 189.15 92.85 189.15 93.9214Z" fill="black"/>
<path d="M205.714 93.9643C205.714 95.0143 204.857 95.8714 203.786 95.8714C202.736 95.8714 201.878 95.0143 201.878 93.9428C201.878 92.8928 202.736 92.0357 203.807 92.0357C204.857 92.0357 205.714 92.8929 205.714 93.9643Z" fill="black"/>
<path d="M201.214 85.1786C201.214 85.1786 201.707 83.6143 204.493 85.2428C206.614 86.4643 207.943 87.2786 209.293 87.8143C210.064 88.1143 210.664 88.7571 210.707 89.3143C210.75 89.7643 210.279 90.1928 209.721 90.2143C208.607 90.2571 206.636 89.9571 204.043 88.4786C200.721 86.5928 201.214 85.2 201.214 85.2V85.1786Z" fill="black"/>
<path d="M190.928 84.7928C190.928 84.7928 190.114 83.4857 188.271 84.9C186.857 85.9714 185.978 86.6571 185.014 87.1285C184.457 87.3857 184.157 87.9428 184.264 88.3928C184.35 88.7785 184.693 89.0357 185.164 89.0357C186.086 89.0571 187.757 88.8643 189.493 87.6C191.721 85.95 190.95 84.7928 190.95 84.7928H190.928Z" fill="black"/>
<path d="M202.457 108.471L191.378 108.964C191.378 108.964 192.364 105.643 197.528 105.643C202.693 105.643 202.457 108.471 202.457 108.471Z" fill="white"/>
<path d="M223.093 134.55L194.743 148.864L188.207 134.164L196.736 131.721L211.093 130.671L223.093 134.55Z" fill="#FFBE9D"/>
<path d="M176.914 82.0286L228.214 82.1571C228.214 82.1571 231.45 60.7714 204.471 57.9857C181.971 55.65 176.914 82.0286 176.914 82.0286Z" fill="black"/>
<path d="M218.185 79.1357C218.185 79.1357 221.678 107.271 208.692 120.171C208.692 120.171 229.221 125.357 238.178 116.593C247.135 107.829 228.942 79.1143 228.942 79.1143H218.185V79.1357Z" fill="black"/>
<path d="M181.735 223.329C181.735 223.329 169.885 210.064 156.964 207.3C154.864 206.85 152.657 207.193 150.685 208.05L143.421 211.221C141.943 211.864 141 213.343 141.085 214.95C141.257 217.607 142.093 221.7 145.457 224.871C146.485 225.836 147.985 226.093 149.335 225.621L156.578 223.093C156.578 223.093 166.607 236.314 176.207 230.807L181.757 223.329H181.735Z" fill="#FFBE9D"/>
<path d="M328.221 69.9857C328.221 48.1286 303.536 30.4071 273.107 30.4071C242.678 30.4071 217.993 48.1286 217.993 69.9857C217.993 86.8071 232.607 101.121 253.2 106.864C251.486 114.107 246.771 124.757 233.571 127.864C233.571 127.864 265.393 129.214 284.614 108.707C309.536 104.914 328.221 89.0357 328.221 70.0071V69.9857Z" fill="#44513C"/>
<path d="M267.921 86.7L267.771 84.6214C267.3 80.4 268.736 75.6 272.721 70.8214C276.321 66.6 278.314 63.4714 278.314 59.8928C278.314 55.8214 275.764 53.1 270.728 53.0357C267.857 53.0357 264.664 54 262.671 55.5L260.764 50.4643C263.486 48.5571 267.943 47.2714 272.186 47.2714C281.357 47.2714 285.514 52.95 285.514 59.0143C285.514 64.4357 282.471 68.3571 278.657 72.9C275.143 77.0571 273.878 80.6357 274.114 84.7071L274.264 86.7H267.964H267.921ZM266.25 97.95C266.25 94.9928 268.243 92.9143 270.964 92.9143C273.836 92.9143 275.678 94.9928 275.678 97.95C275.678 100.736 273.836 102.9 270.878 102.9C268.157 102.9 266.25 100.736 266.25 97.95Z" fill="white"/>
<path d="M85.3287 257.357L79.3073 249.643L42.5144 278.357C39.2787 278.271 35.293 279.857 31.6073 282.707L7.07154 301.843C1.05011 306.536 -1.84275 312.9 1.20011 316.779C4.22154 320.657 11.1001 319.414 17.1215 314.7L41.6573 295.564C45.3215 292.693 47.8287 289.221 48.5358 286.05L85.3287 257.336V257.357Z" fill="black"/>
<path d="M159.557 193.221C140.979 169.414 106.629 165.171 82.8215 183.75C59.0144 202.329 54.7715 236.679 73.3501 260.486C91.9287 284.293 126.279 288.536 150.086 269.957C173.893 251.379 178.136 217.029 159.557 193.221ZM143.079 261C124.222 275.721 97.0072 272.357 82.3072 253.5C67.5858 234.643 70.9501 207.429 89.8072 192.729C108.664 178.007 135.879 181.371 150.579 200.229C165.3 219.086 161.936 246.3 143.079 261Z" fill="black"/>
<path opacity="0.5" d="M143.1 261C124.243 275.721 97.0288 272.357 82.3288 253.5C67.6074 234.643 70.9717 207.429 89.8288 192.729C108.686 178.007 135.9 181.371 150.6 200.229C165.322 219.086 161.957 246.3 143.1 261Z" fill="white"/>
<path d="M147.728 152.336C141.835 153.857 135.814 150.3 134.314 144.386C132.793 138.493 136.35 132.471 142.264 130.971C148.157 129.45 154.178 133.007 155.678 138.921C157.2 144.814 153.643 150.836 147.728 152.336Z" fill="#FFBE9D"/>
<path d="M150.364 132.043C150.364 132.043 150.6 127.029 144.9 128.014C139.2 129.021 132.407 133.457 134.314 144.386L150.364 132.021V132.043Z" fill="#FFBE9D"/>
<path d="M136.307 131.4L72.5781 131.443C64.7781 131.336 61.371 137.657 62.0567 145.414C62.6995 152.614 69.0424 157.929 76.221 157.329L136.842 153.471L136.285 131.4H136.307Z" fill="black"/>
<path d="M54.6426 106.607L50.8926 132.643C50.8926 132.643 56.5712 157.264 76.2426 157.329L82.8854 132.643C82.8854 132.643 79.3283 132.579 82.1569 112.393L54.6426 106.607Z" fill="black"/>
<path fill-rule="evenodd" clip-rule="evenodd" d="M83.6537 104.448L81.5751 127.313L81.5746 127.318C81.2348 130.792 84.0659 133.752 87.5539 133.544L136.261 130.63L136.353 132.17L87.6458 135.084L87.6455 135.084C83.2058 135.348 79.609 131.581 80.0388 127.17C80.0389 127.17 80.039 127.169 80.0391 127.168L82.1172 104.309L83.6537 104.448Z" fill="#7F7F7F"/>
<path fill-rule="evenodd" clip-rule="evenodd" d="M50.1234 131.385L51.9872 102.507L53.5268 102.607L51.6615 131.509C51.4942 133.467 52.0089 135.733 53.0527 138.149C54.0932 140.558 55.6376 143.066 57.4654 145.485C63.6647 153.709 73.7543 158.06 84.0414 157.181L136.777 152.681L136.908 154.219L84.1726 158.719C73.3743 159.64 62.7636 155.076 56.2343 146.415C54.3549 143.927 52.7386 141.313 51.6363 138.761C50.5385 136.22 49.9285 133.689 50.1234 131.385Z" fill="#7F7F7F"/>
</g>
<defs>
<clipPath id="clip0_144_4108">
<rect width="328.221" height="377.571" fill="white" transform="translate(0 0.428558)"/>
</clipPath>
</defs>
</svg>
