<svg width="480" height="480" viewBox="0 0 480 480" fill="none" xmlns="http://www.w3.org/2000/svg">
<path d="M33.7087 202.507C33.7087 202.507 54.8169 160.29 103.107 170.299C151.397 180.308 194.31 178.128 222.787 138.422C251.263 98.7163 340.873 70.6051 381.994 162.834C423.115 255.063 348.241 408.766 238.585 382.802C128.928 356.871 127.468 307.387 54.12 317.297C-4.02718 325.159 9.18205 231.774 33.7419 202.474L33.7087 202.507Z" fill="#D9EDCB"/>
<mask id="mask0_144_4193" style="mask-type:luminance" maskUnits="userSpaceOnUse" x="12" y="101" width="382" height="286">
<path d="M33.7139 202.824C33.7139 202.824 54.816 160.421 103.092 170.474C151.368 180.528 194.269 178.338 222.737 138.456C251.205 98.5746 340.789 70.3389 381.898 162.976C423.007 255.613 348.155 409.997 238.53 383.918C128.905 357.872 127.446 308.169 54.1192 318.123C-4.01104 326.02 9.19436 232.221 33.7471 202.791L33.7139 202.824Z" fill="white"/>
</mask>
<g mask="url(#mask0_144_4193)">
<path d="M706.227 391.917L200.175 390.358C200.175 390.358 173.034 345.466 183.552 296.693C189.79 300.94 196.857 303.992 201.336 300.508C207.01 296.095 223.235 283.222 235.511 273.467C243.972 266.765 250.541 261.523 250.541 261.523C250.541 261.523 257.443 254.887 261.955 256.745C264.045 257.607 266.069 259.665 267.861 261.556C269.918 263.746 271.677 265.67 272.805 265.239C273.833 264.84 281.398 257.11 290.224 248.516C299.58 239.359 310.331 229.239 316.104 225.954C316.104 225.954 321.446 220.48 327.252 226.751C330.238 229.969 334.784 238.164 339.893 248.052C351.672 270.846 366.337 302.466 370.783 302.035C377.154 301.437 387.074 287.27 393.08 285.843C399.085 284.416 426.492 333.986 438.204 336.11C449.883 338.233 472.213 320.184 490.262 325.492C508.312 330.801 537.543 360.563 564.617 355.254C586.284 351.007 635.323 327.052 666.743 319.454C690.931 331.664 714.92 348.419 706.161 391.984L706.227 391.917Z" fill="#5D4F44"/>
<path d="M339.96 248.015C337.173 248.91 333.258 249.408 332.76 245.626C332.063 240.151 316.303 250.768 308.141 253.058C300.012 255.347 304.591 245.991 304.425 243.336C304.325 241.71 296.396 245.393 290.257 248.479C299.614 239.322 310.364 229.202 316.137 225.917C316.137 225.917 321.479 220.442 327.285 226.713C330.272 229.932 334.817 238.127 339.927 248.015H339.96Z" fill="white"/>
<path d="M267.894 261.519C267.728 261.353 266.202 260.125 263.415 261.519C260.462 263.045 256.58 263.874 254.788 263.343C253.03 262.813 235.511 273.463 235.511 273.463C243.972 266.761 250.541 261.519 250.541 261.519C250.541 261.519 257.443 254.883 261.955 256.741C264.046 257.603 266.069 259.66 267.861 261.552L267.894 261.519Z" fill="white"/>
</g>
<path d="M167.216 90.3788C166.479 90.5749 165.775 90.8037 165.005 91.0325C165.005 91.0325 150.029 95.6082 151.871 114.565C151.871 114.565 153.379 128.292 155.691 148.001C155.691 148.197 155.758 148.426 155.791 148.622C160.247 147.772 163.732 151.073 163.732 151.073C163.732 151.073 158.941 151.988 156.863 152.413C160.147 160.29 169.26 164.996 177.837 161.891C184.001 159.669 190.736 156.106 196.364 150.517L204.104 141.202C221.593 115.774 197.47 82.1751 167.216 90.4115V90.3788Z" fill="#FFBE9D"/>
<path d="M223.799 204.915L133.849 262.182C124.725 268.188 121.175 279.834 125.422 289.92C130.764 302.628 146.159 307.671 157.971 300.571L250.143 246.986C260.595 240.782 265.007 227.941 260.595 216.66C254.855 201.929 237.004 196.255 223.832 204.948L223.799 204.915Z" fill="#3F443B"/>
<path d="M131.693 202.26C131.693 202.26 128.574 178.006 108.965 172.598C107.538 172.2 102.462 164.701 100.902 164.635C86.9007 163.772 86.9339 173.162 88.261 182.751C89.2232 189.652 93.5697 195.625 99.6747 198.942L116.264 211.152L117.923 228.771L136.836 221.737L131.693 202.294V202.26Z" fill="#FFBE9D"/>
<path d="M90.8158 133.082L83.8481 136.731L112.946 195.127L120.047 191.311L90.8158 133.082Z" fill="black"/>
<path d="M160.858 244.995L144.965 199.838L102.296 216.395L125.422 289.92L160.858 244.995Z" fill="#3F443B"/>
<path d="M215.917 161.143C215.917 161.143 244.718 169.478 259.103 203.053C273.454 236.594 283.714 374.711 283.714 374.711C283.714 374.711 228.817 394.271 180.089 370.527C180.089 370.527 173.919 218.229 193.087 186.88L215.917 161.143Z" fill="#3F443B"/>
<path d="M234.416 388.529L238.762 351.634L256.978 357.042L253.262 391.35C254.755 391.814 256.314 392.544 257.873 393.44C249.844 395.265 241.317 396.824 233.288 397.222L234.416 388.529Z" fill="#6B7665"/>
<path d="M228.477 290.484C228.974 282.355 240.886 279.071 248.915 277.777C259.997 275.985 272.771 286.702 272.008 297.883L263.149 383.287L223.234 375.722L228.477 290.484Z" fill="#6B7665"/>
<path d="M258.802 391.748C254.124 383.188 243.374 380.036 234.814 384.714C226.253 389.392 223.101 400.142 227.78 408.703C232.458 417.263 243.208 420.415 251.768 415.737C260.329 411.058 263.481 400.308 258.802 391.748Z" fill="#FFBE9D"/>
<path d="M237.866 417.064C237.866 417.064 232.259 422.837 227.183 415.073C222.106 407.309 219.883 394.435 234.781 384.714L237.866 417.064Z" fill="#FFBE9D"/>
<path d="M204.621 229.202L233.653 305.647C236.871 314.373 248.783 317.326 257.841 315.17C266.766 313.079 272.805 304.718 271.975 295.594C270.25 276.449 264.078 250.271 251.537 212.645C247.754 201.331 236.374 194.363 224.562 196.022C208.868 198.212 199.179 214.337 204.654 229.235L204.621 229.202Z" fill="#6B7665"/>
<path d="M226.486 310.359L228.477 290.484L209.598 241.976" fill="#6B7665"/>
<path d="M182.571 155.551L197.764 186.857L223.714 167.189L202.464 123.429L182.571 155.551Z" fill="#FFBE9D"/>
<path d="M190.793 173.143C190.553 172.625 194.571 150.857 194.571 150.857L184.286 159.085L190.763 173.143H190.793Z" fill="#F4B8B2"/>
<path d="M155.06 133.714L150.275 141.42C149.614 142.472 150.222 144.033 151.279 143.999L156.857 143.762L155.06 133.714Z" fill="#FFBE9D"/>
<path d="M160.188 132.053C160.503 133.394 160.03 134.849 159.136 135.309C158.243 135.731 157.27 135.003 156.955 133.662C156.639 132.321 157.112 130.865 158.006 130.405C158.9 129.984 159.872 130.712 160.188 132.053Z" fill="black"/>
<path d="M190.717 121.265C190.717 121.265 204.926 78.213 155.143 98.3328C155.143 98.3328 171.924 71.0652 205.124 81.0589C212.872 83.3753 221.774 91.185 224.213 98.8954C228.203 111.404 221.807 122.258 213.268 143.966C213.268 143.966 204.135 145.29 198.563 131.325C197.311 128.215 190.717 121.265 190.717 121.265Z" fill="black"/>
<path d="M185.456 126.857C185.456 126.857 173.186 113.664 180.561 99.2239C180.561 99.2239 135.773 114.747 138.087 92.6274C141.137 63.386 199.838 80.2876 199.838 80.2876L208.286 96.2702L195.245 124.56L185.456 126.857Z" fill="black"/>
<path d="M204.223 122.796C205.451 128.337 201.967 133.812 196.459 135.039C190.918 136.267 185.444 132.783 184.216 127.275C182.988 121.734 186.472 116.26 191.98 115.032C197.521 113.805 202.995 117.288 204.223 122.796Z" fill="#FFBE9D"/>
<path fill-rule="evenodd" clip-rule="evenodd" d="M196.309 120.312C196.325 120.596 196.108 120.839 195.824 120.854C194.114 120.949 192.98 121.447 192.222 122.097C191.46 122.75 191.033 123.594 190.806 124.454C190.577 125.317 190.555 126.18 190.593 126.834C190.612 127.159 190.646 127.429 190.674 127.615C190.688 127.708 190.701 127.78 190.71 127.827L190.721 127.88L190.723 127.892L190.723 127.893L190.723 127.893C190.723 127.893 190.723 127.893 190.221 128.005M190.221 128.005C189.72 128.118 189.72 128.117 189.719 128.117L189.719 128.116L189.719 128.114L189.718 128.109L189.713 128.089C189.71 128.073 189.705 128.049 189.7 128.02C189.688 127.961 189.673 127.876 189.657 127.77C189.625 127.557 189.588 127.256 189.567 126.894C189.525 126.173 189.546 125.194 189.811 124.191C190.077 123.185 190.594 122.138 191.552 121.316C192.514 120.492 193.877 119.932 195.767 119.827C196.051 119.812 196.293 120.029 196.309 120.312" fill="#3F443B"/>
<path d="M179.143 78.9346C179.143 78.9346 163.636 59.8228 145.62 73.5074C127.604 87.1919 141.213 101.143 141.213 101.143L166.596 93.0853L179.143 78.9346Z" fill="black"/>
<path fill-rule="evenodd" clip-rule="evenodd" d="M154.548 119.109C155.04 118.78 155.705 118.913 156.034 119.405L155.143 120C156.034 119.405 156.033 119.404 156.033 119.404L156.032 119.403L156.032 119.402L156.03 119.4C156.03 119.4 156.031 119.4 156.032 119.402L156.048 119.425C156.065 119.448 156.094 119.487 156.135 119.539C156.218 119.643 156.348 119.798 156.528 119.982C156.887 120.353 157.437 120.836 158.182 121.269C159.649 122.122 161.931 122.818 165.158 121.976C165.731 121.827 166.316 122.17 166.465 122.743C166.615 123.316 166.271 123.901 165.699 124.05C161.881 125.045 159.02 124.235 157.105 123.122C156.159 122.572 155.459 121.957 154.991 121.476C154.756 121.234 154.579 121.025 154.456 120.871C154.395 120.794 154.348 120.73 154.314 120.683C154.297 120.66 154.283 120.641 154.273 120.626L154.26 120.607L154.255 120.6L154.253 120.598L154.253 120.596C154.252 120.596 154.252 120.595 155.143 120L154.252 120.595C153.923 120.103 154.056 119.438 154.548 119.109Z" fill="black"/>
<path d="M467.076 128.928C467.076 90.8783 423.336 60 369.395 60C315.454 60 271.714 90.8456 271.714 128.928C271.714 158.202 297.618 183.153 334.123 193.14C331.089 205.747 322.721 224.281 299.351 229.684C299.351 229.684 355.759 232.008 389.831 196.317C434.004 189.702 467.142 162.066 467.142 128.928H467.076Z" fill="#5D4F44"/>
<path d="M321.428 154.286C327.109 154.286 331.714 149.681 331.714 144C331.714 138.319 327.109 133.714 321.428 133.714C315.748 133.714 311.143 138.319 311.143 144C311.143 149.681 315.748 154.286 321.428 154.286Z" fill="#D9EDCB"/>
<path d="M360.856 145.714C368.431 145.714 374.571 139.19 374.571 131.143C374.571 123.095 368.431 116.571 360.856 116.571C353.282 116.571 347.142 123.095 347.142 131.143C347.142 139.19 353.282 145.714 360.856 145.714Z" fill="#D9EDCB"/>
<path d="M407.999 133.714C419.834 133.714 429.428 124.12 429.428 112.286C429.428 100.451 419.834 90.8572 407.999 90.8572C396.165 90.8572 386.571 100.451 386.571 112.286C386.571 124.12 396.165 133.714 407.999 133.714Z" fill="#D9EDCB"/>
</svg>
