<svg width="480" height="480" viewBox="0 0 480 480" fill="none" xmlns="http://www.w3.org/2000/svg">
<path d="M400.548 94.2857H236.37C233.641 94.2857 231.428 96.5095 231.428 99.2526V246.998C231.428 249.741 233.641 251.965 236.37 251.965H400.548C403.277 251.965 405.489 249.741 405.489 246.998V99.2526C405.489 96.5095 403.277 94.2857 400.548 94.2857Z" fill="#D9EDCB"/>
<path d="M237.193 94.2857H399.716C402.899 94.2857 405.481 96.8817 405.481 100.08V111.887H231.428V100.08C231.428 96.8817 234.011 94.2857 237.193 94.2857Z" fill="#53584F"/>
<path d="M242.047 104.501C242.806 104.501 243.422 103.882 243.422 103.118C243.422 102.355 242.806 101.736 242.047 101.736C241.287 101.736 240.671 102.355 240.671 103.118C240.671 103.882 241.287 104.501 242.047 104.501Z" fill="white"/>
<path d="M251.658 103.118C251.658 103.882 251.042 104.501 250.283 104.501C249.523 104.501 248.907 103.882 248.907 103.118C248.907 102.355 249.523 101.736 250.283 101.736C251.042 101.736 251.658 102.355 251.658 103.118Z" fill="white"/>
<path d="M258.526 104.501C259.286 104.501 259.901 103.882 259.901 103.118C259.901 102.355 259.286 101.736 258.526 101.736C257.767 101.736 257.151 102.355 257.151 103.118C257.151 103.882 257.767 104.501 258.526 104.501Z" fill="white"/>
<path d="M384.556 126.088H318.831V128.483H384.556V126.088Z" fill="white"/>
<path d="M384.556 135.926H318.831V138.321H384.556V135.926Z" fill="white"/>
<path d="M384.556 145.763H318.831V148.158H384.556V145.763Z" fill="white"/>
<path d="M384.556 155.6H318.831V157.996H384.556V155.6Z" fill="white"/>
<path d="M351.693 165.446H318.831V167.841H351.693V165.446Z" fill="white"/>
<path d="M249.019 187.186H314.745V184.791H249.019V187.186Z" fill="white"/>
<path d="M249.019 197.023H314.745V194.628H249.019V197.023Z" fill="white"/>
<path d="M249.019 206.869H314.745V204.474H249.019V206.869Z" fill="white"/>
<path d="M249.019 216.706H314.745V214.311H249.019V216.706Z" fill="white"/>
<path d="M281.882 226.544H314.745V224.149H281.882V226.544Z" fill="white"/>
<path d="M380.934 185.731H324.691V232.772H380.934V185.731Z" fill="white"/>
<path d="M324.596 218.562L341.219 206.852L352.813 214.922L371.059 199.41L380.942 209.248V232.764H324.692L324.596 218.562Z" fill="#53584F"/>
<path d="M353.789 204.144C356.39 204.144 358.498 202.025 358.498 199.41C358.498 196.796 356.39 194.676 353.789 194.676C351.188 194.676 349.079 196.796 349.079 199.41C349.079 202.025 351.188 204.144 353.789 204.144Z" fill="#53584F"/>
<path d="M303.854 128.21H247.612V175.251H303.854V128.21Z" fill="white"/>
<path d="M247.516 161.049L264.139 149.339L275.733 157.408L293.971 141.889L303.854 151.734V175.251H247.612L247.516 161.049Z" fill="#53584F"/>
<path d="M276.709 146.623C279.31 146.623 281.418 144.503 281.418 141.889C281.418 139.274 279.31 137.155 276.709 137.155C274.108 137.155 271.999 139.274 271.999 141.889C271.999 144.503 274.108 146.623 276.709 146.623Z" fill="#53584F"/>
<path d="M56.3867 275.946H232.425V368.253C232.425 370.207 230.851 371.789 228.906 371.789H59.9054C57.9607 371.789 56.3867 370.207 56.3867 368.253V275.946Z" fill="#D9EDCB"/>
<path d="M232.425 275.946H56.3867V293.752H232.425V275.946Z" fill="#53584F"/>
<path d="M67.1321 286.283C67.901 286.283 68.5244 285.656 68.5244 284.883C68.5244 284.11 67.901 283.484 67.1321 283.484C66.3631 283.484 65.7397 284.11 65.7397 284.883C65.7397 285.656 66.3631 286.283 67.1321 286.283Z" fill="white"/>
<path d="M75.4631 286.283C76.2321 286.283 76.8554 285.656 76.8554 284.883C76.8554 284.11 76.2321 283.484 75.4631 283.484C74.6942 283.484 74.0708 284.11 74.0708 284.883C74.0708 285.656 74.6942 286.283 75.4631 286.283Z" fill="white"/>
<path d="M83.7942 286.283C84.5631 286.283 85.1865 285.656 85.1865 284.883C85.1865 284.11 84.5631 283.484 83.7942 283.484C83.0252 283.484 82.4019 284.11 82.4019 284.883C82.4019 285.656 83.0252 286.283 83.7942 286.283Z" fill="white"/>
<path d="M211.26 308.104H144.784V310.523H211.26V308.104Z" fill="#53584F"/>
<path d="M211.26 318.06H144.784V320.479H211.26V318.06Z" fill="#53584F"/>
<path d="M211.26 328.009H144.784V330.428H211.26V328.009Z" fill="#53584F"/>
<path d="M211.26 337.965H144.784V340.384H211.26V337.965Z" fill="#53584F"/>
<path d="M178.018 347.914H144.784V350.333H178.018V347.914Z" fill="#53584F"/>
<path d="M127.91 306.416H71.0293V353.991H127.91V306.416Z" fill="white"/>
<path d="M70.9307 339.623L87.7445 327.781L99.4733 335.935L117.922 320.251L127.918 330.2V353.984H71.029L70.9307 339.623Z" fill="#53584F"/>
<path d="M105.217 320.251C105.217 322.898 103.083 325.043 100.449 325.043C97.816 325.043 95.6821 322.898 95.6821 320.251C95.6821 317.604 97.816 315.459 100.449 315.459C103.083 315.459 105.217 317.604 105.217 320.251Z" fill="#53584F"/>
<path d="M110.181 337.734C110.096 337.734 110.21 336.193 109.547 333.549C109.235 332.227 108.61 330.658 107.636 329.003C106.652 327.348 105.223 325.626 103.292 324.171C101.371 322.725 98.9394 321.498 96.1385 321.003C93.3564 320.528 90.2243 320.613 87.234 321.755C85.7295 322.278 84.2817 323.077 82.9474 324.076C82.2567 324.551 81.6605 325.141 81.0265 325.721C80.4587 326.358 79.8626 326.977 79.3705 327.69C77.2887 330.477 76.1154 334.053 76.0775 337.744C76.1059 341.434 77.2793 345.011 79.3705 347.797C79.8626 348.52 80.4587 349.138 81.0265 349.776C81.6605 350.346 82.2567 350.946 82.9474 351.421C84.2817 352.42 85.7295 353.219 87.234 353.742C90.2148 354.883 93.3564 354.979 96.1385 354.493C98.9394 353.999 101.362 352.772 103.292 351.326C105.223 349.861 106.642 348.14 107.636 346.494C108.62 344.839 109.244 343.27 109.547 341.948C110.21 339.294 110.087 337.753 110.181 337.763C110.181 337.763 110.191 337.858 110.191 338.039C110.191 338.248 110.181 338.524 110.172 338.866C110.172 339.227 110.153 339.675 110.058 340.198C109.992 340.721 109.916 341.33 109.727 341.995C109.443 343.346 108.837 344.944 107.863 346.637C106.879 348.33 105.45 350.099 103.5 351.611C101.551 353.105 99.0814 354.379 96.2142 354.912C93.3754 355.416 90.158 355.34 87.0826 354.18C85.5402 353.647 84.0451 352.838 82.673 351.811C81.9633 351.326 81.3482 350.717 80.6953 350.128C80.1086 349.481 79.4936 348.844 78.9826 348.102C76.8345 345.239 75.6233 341.558 75.5854 337.763C75.6233 333.968 76.8345 330.287 78.9826 327.424C79.4841 326.682 80.1086 326.045 80.6953 325.398C81.3482 324.808 81.9633 324.199 82.673 323.714C84.0451 322.687 85.5402 321.878 87.0826 321.346C90.158 320.185 93.3659 320.109 96.2142 320.613C99.0814 321.137 101.551 322.411 103.5 323.914C105.459 325.426 106.888 327.195 107.863 328.888C108.837 330.591 109.443 332.189 109.727 333.53C109.916 334.196 109.982 334.805 110.058 335.328C110.143 335.851 110.172 336.298 110.172 336.659C110.172 337.002 110.181 337.268 110.191 337.487C110.191 337.668 110.191 337.763 110.181 337.763V337.734Z" fill="black"/>
<path d="M93.0156 346.39C92.8831 346.39 92.7695 342.509 92.7695 337.725C92.7695 332.94 92.8831 329.06 93.0156 329.06C93.148 329.06 93.2616 332.94 93.2616 337.725C93.2616 342.509 93.148 346.39 93.0156 346.39Z" fill="black"/>
<path d="M101.636 337.734C101.636 337.867 97.7753 337.981 93.0156 337.981C88.2558 337.981 84.395 337.867 84.395 337.734C84.395 337.601 88.2558 337.487 93.0156 337.487C97.7753 337.487 101.636 337.601 101.636 337.734Z" fill="black"/>
<path d="M365.012 246.833H120.808C108.375 246.833 98.2959 256.964 98.2959 269.461V271.943C98.2959 284.44 108.375 294.571 120.808 294.571H365.012C377.445 294.571 387.524 284.44 387.524 271.943V269.461C387.524 256.964 377.445 246.833 365.012 246.833Z" fill="white"/>
<path d="M323.452 246.395V294.561H363.857C377.096 294.561 387.817 283.775 387.817 270.478C387.817 257.172 377.086 246.395 363.857 246.395H323.452Z" fill="#6B7665"/>
<path d="M361.047 269.147C360.981 269.147 361.038 268.243 360.64 266.683C360.243 265.161 359.23 262.926 356.95 261.195C355.824 260.349 354.404 259.635 352.767 259.35C351.14 259.074 349.314 259.131 347.572 259.797C346.692 260.101 345.85 260.567 345.074 261.157C344.289 261.728 343.579 262.441 342.992 263.269C341.781 264.895 341.09 266.978 341.072 269.137C341.09 271.287 341.772 273.379 342.992 275.006C343.579 275.833 344.289 276.547 345.074 277.117C345.85 277.707 346.692 278.164 347.572 278.477C349.314 279.143 351.149 279.2 352.767 278.925C354.404 278.639 355.824 277.926 356.95 277.079C359.23 275.358 360.243 273.113 360.64 271.591C361.038 270.041 360.981 269.128 361.047 269.128C361.047 269.128 361.17 270.031 360.82 271.629C360.47 273.199 359.486 275.519 357.158 277.346C356.004 278.24 354.537 279.001 352.834 279.314C351.149 279.619 349.228 279.581 347.402 278.886C346.484 278.573 345.595 278.088 344.781 277.479C343.958 276.88 343.21 276.138 342.586 275.272C341.308 273.57 340.579 271.372 340.561 269.118C340.579 266.864 341.308 264.667 342.586 262.964C343.201 262.099 343.958 261.357 344.781 260.758C345.595 260.149 346.484 259.664 347.402 259.35C349.228 258.665 351.14 258.617 352.834 258.922C354.537 259.236 356.004 259.997 357.158 260.891C359.486 262.717 360.48 265.038 360.82 266.607C361.17 268.205 361.047 269.118 361.047 269.118V269.147Z" fill="white"/>
<path d="M370.444 283.376C370.368 283.49 367.756 281.74 364.615 279.486C361.473 277.222 358.994 275.301 359.07 275.187C359.145 275.072 361.757 276.813 364.899 279.077C368.04 281.34 370.519 283.262 370.444 283.366V283.376Z" fill="white"/>
<path d="M302.615 266.227H125.804V276.442H302.615V266.227Z" fill="#53584F"/>
<path d="M365.012 294.571C365.012 294.571 365.571 294.523 366.649 294.466C367.189 294.466 367.861 294.343 368.646 294.219C369.441 294.133 370.34 293.867 371.362 293.601C373.368 292.973 375.809 291.955 378.298 290.101C378.61 289.872 378.922 289.635 379.235 289.387C379.538 289.13 379.831 288.845 380.143 288.56C380.777 288.018 381.345 287.371 381.941 286.705C382.556 286.058 383.039 285.269 383.625 284.527C383.871 284.118 384.117 283.709 384.373 283.29L384.751 282.663L385.073 281.987C386.01 280.209 386.625 278.154 387.06 275.976C387.146 275.424 387.231 274.863 387.316 274.302C387.344 273.731 387.373 273.151 387.401 272.571C387.448 271.41 387.439 270.193 387.401 268.975C387.335 264.106 385.509 258.779 381.714 254.518C377.976 250.257 372.176 247.194 365.722 247.032C359.268 246.966 352.417 247.032 345.245 247.013C287.806 247.032 208.471 247.061 120.836 247.089C115.405 247.089 110.068 249.153 106.065 252.739C102.053 256.297 99.3749 261.309 98.7598 266.588C98.6273 267.244 98.6462 267.91 98.5989 268.567C98.5516 269.223 98.5421 269.889 98.5516 270.564C98.5327 271.905 98.5894 273.218 98.7125 274.53C98.9774 277.155 99.7912 279.695 100.955 282.025C103.302 286.686 107.257 290.452 111.96 292.488C114.307 293.506 116.815 294.095 119.341 294.267C120.6 294.362 121.877 294.343 123.155 294.343C124.432 294.343 125.7 294.343 126.968 294.343C132.04 294.343 137.065 294.343 142.033 294.343C151.969 294.343 161.706 294.343 171.197 294.343C209.171 294.362 243.369 294.381 272.079 294.4C300.789 294.428 324.029 294.457 340.097 294.476C348.121 294.495 354.357 294.514 358.587 294.523C360.697 294.533 362.306 294.542 363.394 294.552C364.473 294.552 365.031 294.58 365.031 294.58C365.031 294.58 364.473 294.6 363.394 294.609C362.306 294.609 360.697 294.619 358.587 294.638C354.357 294.647 348.121 294.666 340.097 294.685C324.029 294.704 300.798 294.733 272.079 294.761C243.36 294.78 209.161 294.79 171.197 294.818C161.706 294.818 151.978 294.818 142.033 294.818C137.065 294.818 132.04 294.818 126.968 294.818C125.7 294.818 124.432 294.818 123.155 294.818C121.877 294.818 120.609 294.837 119.313 294.742C116.739 294.571 114.175 293.962 111.771 292.925C106.964 290.842 102.923 286.99 100.52 282.235C99.3275 279.857 98.5043 277.26 98.2299 274.578C98.1068 273.237 98.0501 271.886 98.069 270.554C98.069 269.889 98.069 269.213 98.1163 268.538C98.1636 267.863 98.1447 267.187 98.2772 266.512C98.9112 261.119 101.646 255.992 105.743 252.359C109.822 248.697 115.291 246.595 120.836 246.585C208.461 246.614 287.796 246.642 345.245 246.661C352.427 246.681 359.259 246.633 365.731 246.719C372.28 246.899 378.146 250.019 381.922 254.337C385.745 258.655 387.581 264.058 387.638 268.975C387.675 270.212 387.676 271.401 387.628 272.58C387.6 273.17 387.562 273.75 387.534 274.33C387.448 274.901 387.363 275.462 387.278 276.024C386.843 278.221 386.209 280.294 385.253 282.082C385.139 282.311 385.035 282.539 384.922 282.758L384.534 283.395C384.278 283.813 384.023 284.232 383.777 284.641C383.19 285.392 382.698 286.182 382.074 286.829C381.477 287.494 380.9 288.141 380.257 288.683C379.944 288.959 379.651 289.245 379.339 289.511C379.017 289.749 378.695 289.986 378.393 290.224C375.885 292.069 373.425 293.087 371.4 293.696C370.368 293.953 369.469 294.219 368.674 294.295C367.879 294.419 367.217 294.523 366.668 294.523C365.58 294.571 365.031 294.58 365.031 294.58L365.012 294.571Z" fill="black"/>
<path d="M246.103 297.318C244.716 295.683 244.568 294.299 247.707 294.025C254.623 293.396 259.719 290.366 260.515 288.605C261.323 286.845 259.127 285.13 257.25 286.193C255.738 287.051 252.769 287.702 250.517 288.114C248.663 288.445 246.763 288.48 244.909 288.194C243.294 287.942 241.883 287.668 240.621 287.394C240.621 287.394 233.307 285.804 230.145 283.335L214.664 299.959L221.921 308.202C221.921 308.202 225.39 313.416 231.612 312.798C237.845 312.181 246.217 307.688 246.217 307.688C247.355 305.938 257.376 312.158 260.606 314.49C263.791 316.788 266.225 316.228 266.1 313.999C266.02 312.467 256.306 305.104 253.053 302.874C251.279 301.651 247.775 299.318 246.103 297.352" fill="#FFBE9D"/>
<path d="M237.004 311.758C237.015 311.849 236.56 312.055 235.753 312.032C234.956 312.021 233.853 311.701 232.875 310.957C231.897 310.214 231.294 309.22 231.066 308.465C230.828 307.699 230.896 307.196 230.987 307.184C231.203 307.139 231.59 309.014 233.364 310.317C235.093 311.678 237.004 311.529 237.015 311.758H237.004Z" fill="#EB996E"/>
<path d="M243.135 309.334C243.135 309.425 242.691 309.597 241.929 309.551C241.167 309.505 240.121 309.185 239.199 308.454C238.278 307.722 237.698 306.784 237.47 306.053C237.231 305.321 237.288 304.841 237.379 304.829C237.607 304.772 238.016 306.544 239.688 307.813C241.326 309.128 243.135 309.094 243.135 309.322V309.334Z" fill="#EB996E"/>
<path d="M259.821 136.406C260.47 150.058 277.031 168.751 289.35 171.781C295.822 173.37 303.284 172.627 308.413 176.994C317.217 184.494 312.065 200.044 318.002 210.105C321.653 216.29 328.899 219.32 333.005 225.197C339.83 234.961 335.246 249.71 325.942 256.981C316.637 264.253 304.228 265.636 292.569 265.339C266.908 264.676 240.621 256.478 222.069 238.185C213.356 229.599 179.255 203.073 191.153 140.225" fill="black"/>
<path d="M352.456 234.08L254.885 204.96C246.797 201.507 240.678 200.661 240.678 200.661L207.737 200.878C203.267 200.878 199.047 201.85 195.1 203.531L106.287 233.189C99.7128 235.281 95.1743 242.049 95.1743 249.767C95.1743 259.279 101.999 266.997 110.416 266.997H151.433C151.319 267.385 151.251 267.603 151.251 267.603L293.899 268.14C293.899 268.14 293.899 268.106 293.899 268.083L348.35 268.209C356.767 268.209 363.591 260.423 363.591 250.819C363.591 243.021 359.053 236.184 352.479 234.08H352.456Z" fill="#44513C"/>
<path d="M332.903 244.679C332.903 244.679 332.596 244.679 332.016 244.633C331.356 244.553 330.526 244.462 329.502 244.347C327.329 244.073 324.167 243.719 320.266 243.341C312.463 242.575 301.634 241.901 289.657 242.049C277.679 242.221 266.873 243.181 259.093 244.142C255.203 244.622 252.052 245.056 249.88 245.388C248.868 245.525 248.037 245.651 247.377 245.742C246.809 245.811 246.502 245.834 246.49 245.811C246.49 245.788 246.775 245.708 247.343 245.582C247.992 245.445 248.822 245.285 249.823 245.079C251.984 244.645 255.124 244.13 259.014 243.57C266.794 242.45 277.634 241.398 289.645 241.238C301.646 241.089 312.508 241.855 320.323 242.77C324.224 243.216 327.375 243.661 329.547 244.039C330.56 244.21 331.39 244.359 332.038 244.473C332.607 244.576 332.903 244.656 332.903 244.679Z" fill="black"/>
<g opacity="0.6">
<path d="M310.006 220.852C310.006 220.852 309.926 220.978 309.733 221.184C309.505 221.424 309.221 221.721 308.868 222.098C308.095 222.887 306.957 224.042 305.422 225.46C303.875 226.878 301.941 228.558 299.496 230.262C297.039 231.931 294.047 233.669 290.385 234.629C286.745 235.658 282.456 235.555 278.191 234.389C273.903 233.234 269.671 231.051 265.349 228.695C261.004 226.374 256.534 223.688 251.449 222.144C246.422 220.475 240.655 220.521 235.559 222.967C230.429 225.288 226.061 228.844 221.284 231.394C220.101 232.057 218.85 232.571 217.644 233.12C216.393 233.566 215.165 234.069 213.902 234.378C211.4 235.121 208.863 235.498 206.383 235.681C196.408 236.401 187.49 233.143 181.416 228.775C178.345 226.58 176.013 224.088 173.875 222.041C171.748 219.983 169.791 218.337 168.04 217.239C164.479 215.033 162 215.136 162.057 214.987C162.057 214.987 162.637 214.987 163.729 215.181C164.809 215.376 166.39 215.902 168.199 216.965C170.007 218.04 172.021 219.663 174.182 221.698C176.366 223.711 178.709 226.169 181.746 228.295C187.763 232.526 196.544 235.67 206.326 234.926C208.761 234.732 211.24 234.355 213.686 233.623C214.926 233.314 216.12 232.823 217.348 232.388C218.531 231.84 219.748 231.348 220.909 230.696C225.595 228.181 229.963 224.614 235.229 222.224C240.462 219.697 246.558 219.652 251.677 221.378C256.886 222.979 261.368 225.7 265.702 228.032C270.013 230.41 274.176 232.583 278.362 233.737C282.525 234.904 286.676 235.041 290.237 234.069C293.82 233.177 296.788 231.497 299.234 229.884C301.679 228.238 303.636 226.592 305.206 225.22C306.775 223.848 307.947 222.727 308.754 221.973C309.13 221.618 309.426 221.344 309.664 221.115C309.869 220.921 309.983 220.829 309.994 220.841L310.006 220.852Z" fill="white"/>
</g>
<g opacity="0.2">
<path d="M158.383 244.485L220.056 256.169L212.935 267.831L211.058 267.866L158.383 244.485Z" fill="black"/>
</g>
<g opacity="0.6">
<path d="M345.085 232.228C345.085 232.228 345.119 232.56 345.119 233.177C345.108 233.795 345.04 234.721 344.846 235.887C344.46 238.208 343.515 241.615 341.127 245.159C338.784 248.692 334.825 252.282 329.479 254.146C326.829 255.083 323.872 255.621 320.8 255.506C317.729 255.392 314.624 254.683 311.542 253.803C308.459 252.922 305.49 251.962 302.556 251.367C299.632 250.727 296.743 250.601 294.036 250.922C288.599 251.573 284.004 253.848 280.739 256.398C277.406 258.913 275.37 261.692 274.131 263.658C273.835 264.15 273.573 264.596 273.334 264.996C273.141 265.385 272.97 265.716 272.822 266.013C272.538 266.562 272.379 266.848 272.356 266.837C272.333 266.837 272.436 266.516 272.675 265.945C272.8 265.636 272.948 265.282 273.118 264.881C273.346 264.47 273.585 264.001 273.858 263.498C275.029 261.463 277.031 258.57 280.387 255.952C283.674 253.3 288.349 250.91 293.945 250.19C296.732 249.847 299.735 249.961 302.715 250.601C305.706 251.196 308.698 252.168 311.758 253.037C314.817 253.917 317.854 254.603 320.823 254.729C323.792 254.843 326.658 254.351 329.229 253.448C334.427 251.676 338.306 248.246 340.649 244.839C343.038 241.409 344.05 238.105 344.528 235.83C344.994 233.532 344.994 232.217 345.074 232.228H345.085Z" fill="white"/>
</g>
<path d="M106.355 265.007C106.355 265.007 217.86 314.456 217.28 313.336C216.7 312.215 234.979 279.779 234.979 279.779L144.642 234.904L106.355 265.007Z" fill="#44513C"/>
<path d="M157.541 241.318C157.541 241.318 158.383 241.615 159.839 242.289C161.408 243.033 163.479 244.016 165.97 245.194C171.134 247.675 178.243 251.162 186.08 255.049C193.917 258.936 200.992 262.503 206.099 265.122C208.545 266.402 210.581 267.454 212.128 268.254C213.538 269.009 214.312 269.455 214.289 269.501C214.266 269.546 213.447 269.203 211.991 268.529C210.421 267.786 208.351 266.802 205.86 265.625C200.696 263.144 193.576 259.657 185.739 255.758C177.901 251.871 170.827 248.303 165.731 245.685C163.285 244.405 161.249 243.353 159.702 242.552C158.292 241.798 157.518 241.352 157.541 241.306V241.318Z" fill="black"/>
<g opacity="0.6">
<path d="M182.03 256.318C182.03 256.318 181.974 257.599 180.995 259.645C180.051 261.68 177.89 264.356 174.341 266.322C172.578 267.294 170.485 268.117 168.153 268.54C165.81 268.963 163.251 268.986 160.612 268.632C155.312 267.946 149.84 265.728 144.346 263.144C138.853 260.56 133.62 258.067 128.536 256.878C126.011 256.261 123.531 255.975 121.233 256.032C118.924 256.089 116.797 256.512 114.932 257.107C111.178 258.307 108.573 260.331 107.152 262.012C105.707 263.681 105.218 264.847 105.127 264.802C105.127 264.802 105.502 263.59 106.913 261.817C108.289 260.045 110.928 257.884 114.75 256.581C116.661 255.929 118.833 255.472 121.211 255.381C123.588 255.289 126.124 255.575 128.706 256.181C133.905 257.359 139.205 259.862 144.688 262.446C150.159 265.019 155.539 267.225 160.714 267.923C163.285 268.289 165.776 268.289 168.04 267.911C170.315 267.534 172.351 266.768 174.08 265.853C177.56 264.001 179.721 261.474 180.722 259.531C181.757 257.576 181.939 256.318 182.03 256.352V256.318Z" fill="white"/>
</g>
<g opacity="0.6">
<path d="M229.36 290.206C229.337 290.355 226.892 289.943 222.899 289.875C220.909 289.829 218.543 289.943 215.927 290.229C213.322 290.561 210.478 291.087 207.555 291.898C204.643 292.744 201.947 293.796 199.547 294.894C197.17 296.026 195.1 297.18 193.428 298.267C190.072 300.416 188.195 302.062 188.104 301.948C188.07 301.902 188.514 301.468 189.356 300.713C190.186 299.947 191.471 298.941 193.121 297.786C194.77 296.62 196.851 295.408 199.24 294.219C201.651 293.076 204.381 291.978 207.339 291.121C210.308 290.286 213.197 289.783 215.847 289.486C218.497 289.234 220.909 289.177 222.922 289.303C224.935 289.406 226.55 289.589 227.654 289.806C228.757 290 229.371 290.138 229.36 290.195V290.206Z" fill="white"/>
</g>
<g opacity="0.2">
<path d="M243.112 200.455C241.27 205.635 244.034 211.225 246.718 216.027C248.583 219.366 250.494 222.75 253.179 225.46C255.874 228.169 259.503 230.17 263.313 230.044C268.318 229.884 272.8 226.157 277.805 226.454C281.206 226.649 284.197 228.672 287.018 230.593C291.909 233.92 296.925 237.156 302.476 239.203C308.027 241.238 314.192 242.015 319.845 240.3C325.498 238.585 330.492 234.103 331.868 228.329" fill="black"/>
</g>
<path d="M243.533 199.026C243.795 192.989 244.113 187.536 244.113 187.536C244.113 187.536 257.524 185.832 258.104 172.066C258.684 158.301 257.319 126.608 257.319 126.608L232.625 114.695L206.054 136.212L210.217 199.426C210.82 208.538 218.554 215.49 227.631 215.067C236.253 214.667 243.158 207.715 243.522 199.037L243.533 199.026Z" fill="#FFBE9D"/>
<path d="M255.01 151.498C255.021 152.47 254.27 153.27 253.338 153.282C252.394 153.293 251.62 152.527 251.597 151.555C251.586 150.583 252.337 149.783 253.269 149.76C254.213 149.749 254.987 150.515 255.01 151.487V151.498Z" fill="black"/>
<path d="M250.733 144.398C251.029 144.295 251.677 145.839 253.281 146.742C254.873 147.668 256.523 147.439 256.58 147.748C256.614 147.897 256.227 148.171 255.499 148.285C254.782 148.4 253.713 148.308 252.712 147.737C251.711 147.165 251.086 146.285 250.824 145.61C250.551 144.924 250.585 144.444 250.722 144.398H250.733Z" fill="black"/>
<path d="M234.649 151.498C234.661 152.47 233.91 153.27 232.977 153.282C232.033 153.293 231.26 152.527 231.237 151.555C231.226 150.584 231.976 149.783 232.909 149.76C233.853 149.749 234.627 150.515 234.649 151.487V151.498Z" fill="black"/>
<path d="M227.21 147.645C227.29 147.222 229.531 147.531 231.692 146.262C233.864 145.038 234.729 142.935 235.138 143.083C235.332 143.14 235.377 143.781 235.013 144.718C234.661 145.644 233.819 146.833 232.465 147.611C231.112 148.388 229.667 148.514 228.689 148.365C227.699 148.217 227.165 147.84 227.21 147.645Z" fill="black"/>
<path d="M243.203 164.063C243.203 163.949 244.34 163.789 246.194 163.606C246.661 163.572 247.116 163.492 247.195 163.149C247.309 162.783 247.127 162.234 246.9 161.639C246.479 160.393 246.035 159.101 245.569 157.741C243.726 152.184 242.395 147.622 242.611 147.554C242.816 147.485 244.477 151.921 246.32 157.478C246.763 158.85 247.184 160.153 247.593 161.399C247.764 161.982 248.06 162.646 247.81 163.389C247.673 163.766 247.332 164.018 247.025 164.098C246.718 164.189 246.456 164.178 246.229 164.189C244.363 164.223 243.203 164.189 243.203 164.075V164.063Z" fill="black"/>
<path d="M245.785 171.038C247.639 172.307 240.655 167.882 236.901 167.882C236.901 167.882 239.21 164.452 242.987 166.098C246.911 167.802 245.774 171.038 245.774 171.038H245.785Z" fill="white"/>
<path d="M244.113 187.524C244.113 187.524 235.138 187.787 226.346 181.682C226.346 181.682 230.52 191.709 243.874 190.909L244.101 187.536L244.113 187.524Z" fill="#EB996E"/>
<path d="M191.653 149.76C191.608 161.674 188.503 193.172 210.103 197.54L209.318 154.162C209.318 154.162 230.236 144.249 233.774 123.601L233.899 123.715C235.241 126.837 237.629 133.525 236.174 138.979L255.761 143.826L258.013 145.896C258.013 145.896 264.985 130.53 251.529 116.592C238.073 102.655 226.573 112.751 219.362 111.882C214.562 111.299 197.921 111.413 191.142 140.214L191.642 149.749L191.653 149.76Z" fill="black"/>
<path d="M209.864 154.642C208.033 153.51 205.542 154.436 204.097 156.037C201.822 158.541 201.424 162.577 203.165 165.481C204.916 168.385 208.658 169.894 211.923 169.025" fill="#FFBE9D"/>
<path d="M209.443 164.898C209.443 165.001 208.829 165.104 207.874 164.841C206.964 164.601 205.553 163.869 205.007 162.291C204.746 161.525 204.791 160.69 205.087 160.05C205.371 159.399 205.838 158.964 206.258 158.678C207.123 158.118 207.771 158.164 207.783 158.244C207.817 158.37 207.248 158.541 206.6 159.124C205.951 159.684 205.326 160.816 205.758 162.028C206.167 163.24 207.259 163.949 208.056 164.303C208.875 164.669 209.443 164.772 209.432 164.898H209.443Z" fill="#EB996E"/>
<path d="M207.646 167.608C206.657 167.848 206.145 169.22 206.748 170.054C207.35 170.889 208.806 170.82 209.341 169.951C209.876 169.071 209.25 167.745 208.249 167.596" fill="#44513C"/>
<path d="M247.343 268.209V245.582C247.343 245.582 213.925 252.557 213.311 267.934L247.343 268.197V268.209Z" fill="#FFBE9D"/>
<path d="M243.874 196.637C244.42 203.531 247.605 210.173 252.61 214.907C257.626 219.64 264.416 222.418 271.298 222.533C276.235 222.624 281.433 221.435 285.937 223.47C289.85 225.231 292.375 229.05 295.458 232.045C302.692 239.077 313.93 241.638 323.485 238.414C327.534 237.053 333.961 234.126 334.711 229.896C335.28 226.683 331.367 223.482 329.07 221.172C326.761 218.863 323.78 217.388 320.834 216.004C297.027 204.766 271.469 196.591 245.205 195.196" fill="black"/>
<path d="M395.672 298.245C395.672 272.67 366.62 251.935 330.809 251.935C294.998 251.935 265.945 272.67 265.945 298.245C265.945 317.927 283.145 334.676 307.38 341.396C305.363 349.87 299.815 362.332 284.28 365.967C284.28 365.967 321.73 367.547 344.351 343.552C373.681 339.114 395.672 320.535 395.672 298.27V298.245Z" fill="#5D4F44"/>
<path d="M324.497 318.746L324.316 316.279C323.746 311.268 325.482 305.57 330.303 299.898C334.658 294.887 337.068 291.174 337.068 286.926C337.068 282.093 333.984 278.863 327.893 278.786C324.42 278.786 320.558 279.931 318.147 281.712L315.84 275.734C319.132 273.47 324.523 271.944 329.655 271.944C340.749 271.944 345.777 278.685 345.777 285.883C345.777 292.318 342.097 296.973 337.483 302.365C333.232 307.3 331.703 311.548 331.988 316.38L332.17 318.746H324.549H324.497ZM322.476 332.1C322.476 328.59 324.886 326.122 328.178 326.122C331.651 326.122 333.88 328.59 333.88 332.1C333.88 335.406 331.651 337.975 328.074 337.975C324.783 337.975 322.476 335.406 322.476 332.1Z" fill="white"/>
<path d="M80.3363 142.366C80.3363 124.419 100.896 109.868 126.24 109.868C151.583 109.868 172.143 124.419 172.143 142.366C172.143 156.178 159.971 167.932 142.82 172.647C144.248 178.594 148.174 187.339 159.168 189.89C159.168 189.89 132.665 190.999 116.656 174.16C95.8992 171.046 80.3363 158.008 80.3363 142.383V142.366Z" fill="#D9EDCB"/>
<path d="M122.032 156.494L121.911 154.774C121.531 151.282 122.689 147.311 125.903 143.357C128.806 139.865 130.413 137.277 130.413 134.316C130.413 130.948 128.356 128.696 124.296 128.643C121.98 128.643 119.406 129.441 117.799 130.682L116.261 126.516C118.455 124.938 122.049 123.874 125.471 123.874C132.866 123.874 136.219 128.572 136.219 133.589C136.219 138.074 133.765 141.318 130.689 145.077C127.855 148.516 126.836 151.477 127.026 154.845L127.147 156.494H122.067H122.032ZM120.684 165.801C120.684 163.354 122.291 161.635 124.486 161.635C126.801 161.635 128.287 163.354 128.287 165.801C128.287 168.105 126.801 169.896 124.417 169.896C122.222 169.896 120.684 168.105 120.684 165.801Z" fill="#44513C"/>
</svg>
