<svg width="480" height="480" viewBox="0 0 480 480" fill="none" xmlns="http://www.w3.org/2000/svg">
<path d="M411.261 120.85H67.3564C62.23 120.85 58.0742 125.008 58.0742 130.137V377.263C58.0742 382.392 62.23 386.55 67.3564 386.55H411.261C416.388 386.55 420.544 382.392 420.544 377.263V130.137C420.544 125.008 416.388 120.85 411.261 120.85Z" fill="#D9EDCB"/>
<path d="M71.4591 120.85H448.798C456.187 120.85 462.183 126.849 462.183 134.242V161.527H58.0742V134.242C58.0742 126.849 64.0705 120.85 71.4591 120.85Z" fill="#6B7665"/>
<path d="M82.7282 144.458C84.4917 144.458 85.9213 143.028 85.9213 141.263C85.9213 139.499 84.4917 138.068 82.7282 138.068C80.9647 138.068 79.5352 139.499 79.5352 141.263C79.5352 143.028 80.9647 144.458 82.7282 144.458Z" fill="#FAFAFA"/>
<path d="M105.042 141.263C105.042 143.028 103.613 144.458 101.849 144.458C100.086 144.458 98.6562 143.028 98.6562 141.263C98.6562 139.499 100.086 138.068 101.849 138.068C103.613 138.068 105.042 139.499 105.042 141.263Z" fill="#FAFAFA"/>
<path d="M120.989 144.458C122.752 144.458 124.182 143.028 124.182 141.263C124.182 139.499 122.752 138.068 120.989 138.068C119.225 138.068 117.796 139.499 117.796 141.263C117.796 143.028 119.225 144.458 120.989 144.458Z" fill="#FAFAFA"/>
<path d="M453.512 99.349H288.159C280.102 99.349 273.567 105.163 273.567 113.205V148.496C273.567 156.129 279.434 162.389 286.897 163.02L293.635 197.048L320.053 162.89H453.493C461.55 162.89 467.584 156.557 467.584 148.496V113.205C467.584 105.144 461.55 99.349 453.493 99.349H453.512Z" fill="white"/>
<path d="M439.385 111.701H282.386V116.994H439.385V111.701Z" fill="#6B7665"/>
<path d="M455.257 122.288H282.386V127.581H455.257V122.288Z" fill="#6B7665"/>
<path d="M409.385 134.639H282.386V139.933H409.385V134.639Z" fill="#6B7665"/>
<path d="M423.494 145.227H282.386V150.52H423.494V145.227Z" fill="#6B7665"/>
<g clip-path="url(#clip0_144_4654)">
<path d="M196.381 203.637L276.819 277.545C284.937 285.253 286.436 297.644 280.376 307.035C272.695 318.898 256.324 321.224 245.642 311.946L162.324 241.317C152.914 233.206 150.763 219.455 157.204 208.844C165.605 195.035 184.634 192.491 196.381 203.637Z" fill="black"/>
<path d="M289.749 217.448C289.749 217.448 297.209 193.529 317.95 191.58C319.483 191.448 325.915 184.792 327.514 184.993C341.771 186.659 340.054 196.12 337.011 205.533C334.796 212.319 329.363 217.563 322.606 219.811L303.687 229.163L298.855 246.63L281.038 236.138L289.709 217.421L289.749 217.448Z" fill="#FFBE9D"/>
<path d="M343.325 155.006L349.705 159.906L309.911 213.638L303.451 208.511L343.325 155.006Z" fill="black"/>
<path d="M252.693 255.378L276.806 212.642L316.855 237.01L280.376 307.035L252.693 255.378Z" fill="black"/>
<path d="M169.577 179.855C169.577 179.855 142.161 194.021 134.354 230.63C126.574 267.198 143.852 407.954 143.852 407.954C143.852 407.954 203.203 416.547 247.658 382.898C247.658 382.898 223.411 228.727 197.782 201.104L169.577 179.855Z" fill="black"/>
<path d="M97.4658 374.205L106.952 337.331L87.5514 335.754L78.4268 369.921C76.8479 369.82 75.069 369.932 73.2233 370.23C80.2298 374.971 87.796 379.565 95.3294 382.952L97.4658 374.205Z" fill="#FFBE9D"/>
<path d="M139.325 282.686C141.861 274.727 131.698 267.183 124.485 262.969C114.567 257.179 98.4148 262.686 95.0248 273.659L71.9769 358.586L112.894 366.103L139.332 282.72L139.325 282.686Z" fill="black"/>
<path d="M73.0046 368.263C80.6563 361.814 92.0685 362.765 98.5138 370.425C104.959 378.086 104.014 389.508 96.369 395.99C88.7173 402.438 77.3051 401.488 70.8598 393.827C64.4144 386.166 65.3595 374.744 73.0046 368.263Z" fill="#FFBE9D"/>
<path d="M83.6282 400.193C83.6282 400.193 86.8756 407.797 94.5668 402.243C102.258 396.688 109.153 385.225 98.5136 370.425L83.6282 400.193Z" fill="#FFBE9D"/>
<path d="M184.728 232.934L128.806 295.254C122.513 302.437 110.068 300.825 102.169 295.431C94.4237 290.109 91.7372 279.931 95.9054 271.473C104.649 253.816 120.177 231.098 146.036 199.733C153.822 190.31 167.262 187.875 177.939 193.825C192.119 201.713 195.421 220.714 184.728 232.934Z" fill="black"/>
<path d="M133.905 302.42L139.325 282.686L175.262 243.315" fill="black"/>
<path d="M201.804 167.226L192.626 200.953L162.659 186.851L175.541 139.73L201.804 167.226Z" fill="#FFBE9D"/>
<path d="M196.45 186.947C196.61 186.36 187.68 164.84 187.68 164.84L200.795 171.033L196.484 186.94L196.45 186.947Z" fill="#D6918A"/>
<path d="M206.742 97.9743C206.742 97.9743 222.564 99.6751 224.586 119.382C224.586 119.382 225.878 133.686 227.587 154.252C228.507 165.129 219.162 174.55 208.39 172.814C201.808 171.768 194.387 169.467 187.654 164.88L178.064 156.91C155.503 134.432 172.658 95.3707 204.417 97.7789C205.189 97.8329 205.936 97.9269 206.748 98.0076L206.742 97.9743Z" fill="#FFBE9D"/>
<path d="M224.089 140.006L231.628 146.374C232.667 147.242 232.206 148.929 230.867 149.161L223.791 150.328L224.089 140.006Z" fill="#FFBE9D"/>
<path d="M218.281 125.111C218.281 125.111 223.451 123.942 223.99 126.296C223.99 126.296 224.302 127.863 219.778 128.8C215.247 129.703 213.994 129.501 213.256 128.054C212.517 126.606 215.822 125.462 218.281 125.111Z" fill="black"/>
<path d="M218.341 138.274C218.173 139.521 219.026 140.668 220.238 140.843C221.444 140.984 222.55 140.105 222.718 138.858C222.885 137.611 222.032 136.463 220.82 136.289C219.614 136.148 218.508 137.027 218.341 138.274Z" fill="black"/>
<path d="M227.474 152.819C226.908 152.932 219.399 153.318 219.399 153.318C219.399 153.318 222.675 157.589 227.599 156.92L227.474 152.819Z" fill="white"/>
<path d="M187.922 134.593C187.922 134.593 164.917 94.0704 219.264 104.32C219.264 104.32 196.83 80.2214 165.289 96.978C157.925 100.873 150.498 110.535 149.581 118.796C148.062 132.205 156.705 141.855 169.693 162.011C169.693 162.011 179.187 161.506 182.013 146.311C182.654 142.924 187.922 134.593 187.922 134.593Z" fill="black"/>
<path d="M193.342 139.373C193.342 139.373 202.864 123.537 192.611 110.325C192.611 110.325 240.263 117.228 233.485 95.2101C224.533 66.1021 169.62 94.9013 169.62 94.9013L164.461 112.814L183.149 138.977L193.342 139.373Z" fill="black"/>
<path d="M173.37 138.568C173.247 144.383 177.841 149.188 183.618 149.32C189.427 149.445 194.226 144.848 194.356 139.067C194.479 133.252 189.884 128.447 184.108 128.315C178.298 128.19 173.499 132.787 173.37 138.568Z" fill="#FFBE9D"/>
<path fill-rule="evenodd" clip-rule="evenodd" d="M180.838 134.52C180.878 134.801 181.138 134.997 181.419 134.957C183.157 134.709 184.398 134.983 185.293 135.486C186.191 135.991 186.79 136.756 187.192 137.577C187.595 138.401 187.79 139.265 187.883 139.931C187.929 140.262 187.95 140.54 187.958 140.733C187.963 140.83 187.964 140.905 187.965 140.954L187.965 141.009L187.965 141.022L187.965 141.023" fill="#231E24"/>
<path d="M188.77 90.0101C188.77 90.0101 201.014 67.6687 222.402 77.6563C243.79 87.6439 232.482 104.425 232.482 104.425L204.588 101.593L188.77 90.0101Z" fill="black"/>
</g>
<defs>
<clipPath id="clip0_144_4654">
<rect width="321.429" height="321.429" fill="white" transform="matrix(-0.980715 0.195444 0.195444 0.980715 328.087 51.4285)"/>
</clipPath>
</defs>
</svg>
